<?xml version="1.0" encoding="iso-8859-1"?>
<!-- Generator: Adobe Illustrator 19.0.0, SVG Export Plug-In . SVG Version: 6.00 Build 0)  -->
<svg version="1.1" id="Layer_1" xmlns="http://www.w3.org/2000/svg" xmlns:xlink="http://www.w3.org/1999/xlink" x="0px" y="0px"
	 viewBox="0 0 504 504" style="enable-background:new 0 0 504 504;" xml:space="preserve">
<circle style="fill:#FFD05B;" cx="252" cy="252" r="252"/>
<polygon style="fill:#324A5E;" points="88.9,320.5 88.9,344.7 96.8,358.5 396,358.5 403.9,344.7 403.9,320.5 "/>
<rect x="212.1" y="327.7" style="fill:#FFFFFF;" width="68.7" height="5.9"/>
<rect x="110.7" y="112.5" style="fill:#324A5E;" width="271.5" height="191"/>
<rect x="126.4" y="128.3" style="fill:#E6E9EE;" width="240" height="159.5"/>
<rect x="158.6" y="145.8" style="fill:#324A5E;" width="14.6" height="7.9"/>
<rect x="158.6" y="174.9" style="fill:#ACB3BA;" width="14.6" height="7.9"/>
<rect x="234" y="174.9" style="fill:#4CDBC4;" width="61.6" height="7.9"/>
<rect x="194.5" y="174.9" style="fill:#FF7058;" width="14.6" height="7.9"/>
<rect x="319.6" y="174.9" style="fill:#324A5E;" width="14.6" height="7.9"/>
<rect x="158.6" y="204.1" style="fill:#F9B54C;" width="14.6" height="7.9"/>
<rect x="276.1" y="204.1" style="fill:#FF7058;" width="14.6" height="7.9"/>
<g>
	<rect x="194.5" y="204.1" style="fill:#ACB3BA;" width="59.1" height="7.9"/>
	<rect x="158.6" y="233.2" style="fill:#ACB3BA;" width="14.6" height="7.9"/>
	<rect x="194.5" y="233.2" style="fill:#ACB3BA;" width="14.6" height="7.9"/>
</g>
<rect x="231.5" y="233.2" style="fill:#324A5E;" width="14.6" height="7.9"/>
<rect x="268.5" y="233.2" style="fill:#F9B54C;" width="14.6" height="7.9"/>
<rect x="305.5" y="233.2" style="fill:#ACB3BA;" width="14.6" height="7.9"/>
<rect x="231.5" y="262.4" style="fill:#FF7058;" width="14.6" height="7.9"/>
<g>
	<rect x="268.5" y="262.4" style="fill:#ACB3BA;" width="14.6" height="7.9"/>
	<rect x="305.5" y="262.4" style="fill:#ACB3BA;" width="14.6" height="7.9"/>
</g>
<rect x="158.6" y="262.4" style="fill:#4CDBC4;" width="47.9" height="7.9"/>
<rect x="185.6" y="145.8" style="fill:#ACB3BA;" width="70.4" height="7.9"/>
<g>
</g>
<g>
</g>
<g>
</g>
<g>
</g>
<g>
</g>
<g>
</g>
<g>
</g>
<g>
</g>
<g>
</g>
<g>
</g>
<g>
</g>
<g>
</g>
<g>
</g>
<g>
</g>
<g>
</g>
</svg>
