<svg height="512" viewBox="0 0 128 128" width="512" xmlns="http://www.w3.org/2000/svg"><path d="m93.062 56.407h-12.84a2.65 2.65 0 0 0 -2.647 2.647v35.646a11.588 11.588 0 0 1 -12.023 11.567 11.839 11.839 0 0 1 -11.127-11.876v-35.337a2.65 2.65 0 0 0 -2.647-2.647h-12.84a2.65 2.65 0 0 0 -2.646 2.647v35.136a30.621 30.621 0 0 0 9.129 21.7 29.212 29.212 0 0 0 20.591 8.523h.5a29.844 29.844 0 0 0 29.196-29.713v-35.646a2.65 2.65 0 0 0 -2.646-2.647z" fill="#e6e7e8"/><path d="m104.934 25.735a10.608 10.608 0 1 0 -14.909 0 12.17 12.17 0 0 0 -7.067 11.03v3.929a3 3 0 0 0 3 3h23.042a3 3 0 0 0 3-3v-3.929a12.169 12.169 0 0 0 -7.066-11.03z" fill="#e6e7e8"/><path d="m54.479 43.694h23.042a3 3 0 0 0 3-3v-3.929a12.171 12.171 0 0 0 -7.066-11.03 10.607 10.607 0 1 0 -14.91 0 12.171 12.171 0 0 0 -7.066 11.03v3.929a3 3 0 0 0 3 3z" fill="#e6e7e8"/><path d="m49.042 40.694v-3.929a12.17 12.17 0 0 0 -7.067-11.03 10.608 10.608 0 1 0 -14.909 0 12.169 12.169 0 0 0 -7.066 11.03v3.929a3 3 0 0 0 3 3h23.042a3 3 0 0 0 3-3z" fill="#e6e7e8"/><path d="m92 52.592v-4.75a1 1 0 1 0 -2 0v4.75a1 1 0 0 0 2 0z" fill="#e6e7e8"/><path d="m80 47.842v4.75a1 1 0 0 0 2 0v-4.75a1 1 0 1 0 -2 0z" fill="#e6e7e8"/><path d="m70 47.842v4.75a1 1 0 0 0 2 0v-4.75a1 1 0 0 0 -2 0z" fill="#e6e7e8"/><path d="m60 47.842v4.75a1 1 0 0 0 2 0v-4.75a1 1 0 0 0 -2 0z" fill="#e6e7e8"/><path d="m51 53.592a1 1 0 0 0 1-1v-4.75a1 1 0 0 0 -2 0v4.75a1 1 0 0 0 1 1z" fill="#e6e7e8"/><path d="m40 47.842v4.75a1 1 0 0 0 2 0v-4.75a1 1 0 0 0 -2 0z" fill="#e6e7e8"/><path d="m62.5 119.4c-16.061.276-29.207-13.149-29.207-29.213v-35.133a1.646 1.646 0 0 1 1.646-1.646h12.84a1.646 1.646 0 0 1 1.647 1.646v35.337a12.778 12.778 0 0 0 12.09 12.874 12.588 12.588 0 0 0 13.059-12.565v-35.646a1.646 1.646 0 0 1 1.647-1.646h12.84a1.646 1.646 0 0 1 1.646 1.646v35.646a28.741 28.741 0 0 1 -28.208 28.7z" fill="#6dc9f7"/><path d="m62 103.258c-.163 0-.322.013-.485.007a12.778 12.778 0 0 1 -12.09-12.874v-35.337a1.647 1.647 0 0 0 -1.647-1.647h-12.84a1.647 1.647 0 0 0 -1.646 1.647v35.136c0 15.9 12.875 29.2 28.708 29.209z" fill="#fa759e"/><path d="m49.425 63.562v-8.508a1.647 1.647 0 0 0 -1.647-1.647h-12.84a1.647 1.647 0 0 0 -1.646 1.647v8.508z" fill="#ffd7e5"/><path d="m90.708 63.562v-8.508a1.647 1.647 0 0 0 -1.646-1.647h-12.84a1.647 1.647 0 0 0 -1.647 1.647v8.508z" fill="#d4fbff"/><path d="m98.993 22.06a9.574 9.574 0 0 1 -11.027 0 11.164 11.164 0 0 0 -8.007 10.705v3.929a2 2 0 0 0 2 2h23.041a2 2 0 0 0 2-2v-3.929a11.164 11.164 0 0 0 -8.007-10.705z" fill="#ffd7e5"/><circle cx="93.479" cy="14.199" fill="#fff" r="9.607"/><path d="m67.514 22.06a9.575 9.575 0 0 1 -11.028 0 11.164 11.164 0 0 0 -8.007 10.705v3.929a2 2 0 0 0 2 2h23.042a2 2 0 0 0 2-2v-3.929a11.164 11.164 0 0 0 -8.007-10.705z" fill="#0089ef"/><path d="m73.521 35.694h-23.042a2 2 0 0 1 -2-2v3a2 2 0 0 0 2 2h23.042a2 2 0 0 0 2-2v-3a2 2 0 0 1 -2 2z" fill="#fff"/><circle cx="62" cy="14.199" fill="#fff" r="9.607"/><path d="m36.034 22.06a9.574 9.574 0 0 1 -11.027 0 11.164 11.164 0 0 0 -8.007 10.705v3.929a2 2 0 0 0 2 2h23.041a2 2 0 0 0 2-2v-3.929a11.164 11.164 0 0 0 -8.007-10.705z" fill="#ffd7e5"/><circle cx="30.521" cy="14.199" fill="#fff" r="9.607"/><g fill="#3a2c60"><path d="m90.708 71.82a1 1 0 0 0 -1 1v7.236a1 1 0 1 0 2 0v-7.236a1 1 0 0 0 -1-1z"/><path d="m89.062 52.408h-12.84a2.649 2.649 0 0 0 -2.647 2.646v35.646a11.588 11.588 0 0 1 -12.023 11.567 11.84 11.84 0 0 1 -11.127-11.876v-35.337a2.649 2.649 0 0 0 -2.647-2.646h-12.84a2.649 2.649 0 0 0 -2.646 2.646v35.136a30.627 30.627 0 0 0 9.129 21.7 29.215 29.215 0 0 0 20.59 8.522h.506a29.844 29.844 0 0 0 29.191-29.712v-7a1 1 0 0 0 -2 0v7a27.832 27.832 0 0 1 -26.708 27.681v-14.149a13.581 13.581 0 0 0 12.575-13.532v-26.138h14.133v4.182a1 1 0 0 0 2 0v-13.69a2.649 2.649 0 0 0 -2.646-2.646zm-54.124 2h12.84a.647.647 0 0 1 .647.646v7.508h-14.133v-7.508a.647.647 0 0 1 .646-.646zm-.646 35.782v-25.628h14.133v25.829a13.868 13.868 0 0 0 12.575 13.831v14.167a27.213 27.213 0 0 1 -18.177-7.93 28.609 28.609 0 0 1 -8.531-20.269zm41.283-27.628v-7.508a.647.647 0 0 1 .647-.646h12.84a.647.647 0 0 1 .646.646v7.508z"/><path d="m100.93 21.74a10.608 10.608 0 1 0 -14.9 0 12.164 12.164 0 0 0 -7.071 11.026v3.934a3 3 0 0 0 3 3h23.041a3 3 0 0 0 3-3v-3.93a12.161 12.161 0 0 0 -7.07-11.03zm-16.058-7.54a8.608 8.608 0 1 1 8.607 8.607 8.617 8.617 0 0 1 -8.607-8.607zm21.128 22.5a1 1 0 0 1 -1 1h-23.042a1 1 0 0 1 -1-1v-3.93a10.169 10.169 0 0 1 6.873-9.6 10.52 10.52 0 0 0 11.3 0 10.171 10.171 0 0 1 6.872 9.6z"/><path d="m50.479 39.7h23.042a3 3 0 0 0 3-3v-3.93a12.16 12.16 0 0 0 -7.071-11.03 10.607 10.607 0 1 0 -14.9 0 12.16 12.16 0 0 0 -7.071 11.025v3.935a3 3 0 0 0 3 3zm2.914-25.5a8.607 8.607 0 1 1 8.607 8.607 8.617 8.617 0 0 1 -8.607-8.607zm-3.914 18.565a10.171 10.171 0 0 1 6.872-9.6 10.522 10.522 0 0 0 11.3 0 10.171 10.171 0 0 1 6.872 9.6v3.935a1 1 0 0 1 -1 1h-23.044a1 1 0 0 1 -1-1z"/><path d="m45.042 36.7v-3.93a12.164 12.164 0 0 0 -7.071-11.026 10.607 10.607 0 1 0 -14.9 0 12.161 12.161 0 0 0 -7.071 11.021v3.935a3 3 0 0 0 3 3h23.042a3 3 0 0 0 3-3zm-23.129-22.5a8.608 8.608 0 1 1 8.608 8.607 8.618 8.618 0 0 1 -8.608-8.607zm-3.913 22.5v-3.93a10.171 10.171 0 0 1 6.872-9.6 10.52 10.52 0 0 0 11.3 0 10.169 10.169 0 0 1 6.873 9.6v3.93a1 1 0 0 1 -1 1h-23.045a1 1 0 0 1 -1-1z"/><path d="m88 48.592v-4.75a1 1 0 1 0 -2 0v4.75a1 1 0 0 0 2 0z"/><path d="m76 43.842v4.75a1 1 0 0 0 2 0v-4.75a1 1 0 0 0 -2 0z"/><path d="m66 43.842v4.75a1 1 0 0 0 2 0v-4.75a1 1 0 0 0 -2 0z"/><path d="m56 43.842v4.75a1 1 0 0 0 2 0v-4.75a1 1 0 0 0 -2 0z"/><path d="m47 49.592a1 1 0 0 0 1-1v-4.75a1 1 0 0 0 -2 0v4.75a1 1 0 0 0 1 1z"/><path d="m36 43.842v4.75a1 1 0 0 0 2 0v-4.75a1 1 0 0 0 -2 0z"/></g></svg>