<?xml version="1.0" encoding="utf-8"?>
<!-- Generator: Adobe Illustrator 19.0.0, SVG Export Plug-In . SVG Version: 6.00 Build 0)  -->
<svg version="1.1" id="Layer_1" xmlns="http://www.w3.org/2000/svg" xmlns:xlink="http://www.w3.org/1999/xlink" x="0px" y="0px"
	 viewBox="0 0 300 300" style="enable-background:new 0 0 300 300;" xml:space="preserve">
<style type="text/css">
	.st0{fill:#6ECBD7;}
	.st1{fill:#705FA9;}
	.st2{fill:#9D93C7;}
	.st3{fill:#F4D37E;}
	.st4{fill:#FEF3F8;}
	.st5{fill:#6D66AE;}
	.st6{fill:#3E2E87;}
	.st7{fill:#782A8A;}
	.st8{fill:#AB65A9;}
	.st9{fill:#BC99C8;}
	.st10{fill:#DFB548;}
	.st11{fill:#232323;}
	.st12{fill:#FFFFFF;}
	.st13{fill:#818285;}
	.st14{fill:#1A1046;}
	.st15{fill:#4061AD;}
	.st16{fill:#4771B7;}
	.st17{fill:#E7E7E7;}
	.st18{fill:none;}
	.st19{fill:#FAF3F8;}
	.st20{fill:#1C76BC;}
	.st21{font-family:'TwCenMT-CondensedExtraBold';}
	.st22{font-size:10.7807px;}
</style>
<path id="XMLID_107_" class="st0" d="M126.6,45.3c0.5-0.2,1-0.5,1.5-0.7c15-6.4,31.1,3.6,46.5,3.5c14.2-0.1,27.8-7.4,42-7.1
	c4.2,0.1,8.6,0.9,12.1,3.4c3.8,2.7,6,7.1,9.2,10.5c7.4,8,20,11.2,23.7,21.5c3,8.1-1,17-4.2,25.1c-5.4,13.8-8.4,29.4-4,43.6
	c3.1,10.2,9.9,19.1,11.3,29.6c1.3,9.3-1.8,18.8-6.2,26.9c-5.8,10.8-5.8,23.1-8.6,34.7c-1.9,7.6-5.7,15.3-12.5,19.1
	c-6.2,3.4-13.4,3.1-20.2,3.4c-7,0.4-13.8,0.7-20.8-0.1c-11.9-1.4-23.6-4.3-35.6-5.1c-21.9-1.5-43.6,3.8-65.5,4.9
	c-12.1,0.6-24.9-0.2-35-7.1c-8.6-5.8-14.3-15.6-16.5-26.1c-2.2-10.4-1-21.4,2.1-31.5c3.8-12.4,10.5-24.5,9.1-37.3
	c-0.9-8.1-5-15.4-7.3-23.1c-3.2-10.7-2.9-22.6,1.8-32.6c2.8-6,7.3-11.2,12.7-14.7c6.3-4.1,13.4-3.2,20.3-5.8
	C100.3,73.4,109.8,53.5,126.6,45.3z"/>
<path id="XMLID_245_" class="st1" d="M240.8,139.1h-4.3c-0.7-2.8-1.8-5.4-3.3-7.9l3.1-3.1c1-1,1-2.7,0-3.7l-6.3-6.3
	c-1-1-2.7-1-3.7,0l-3.1,3.1c-2.4-1.4-5.1-2.6-7.9-3.3v-4.3c0-1.4-1.2-2.6-2.6-2.6h-8.9c-1.4,0-2.6,1.2-2.6,2.6v4.3
	c-2.8,0.7-5.5,1.8-7.9,3.3l-3.1-3.1c-1-1-2.7-1-3.7,0l-6.3,6.3c-1,1-1,2.7,0,3.7l3.1,3.1c-1.5,2.4-2.6,5.1-3.3,7.9h-4.3
	c-1.4,0-2.6,1.2-2.6,2.6v8.9c0,1.4,1.2,2.6,2.6,2.6h4.3c0.7,2.8,1.8,5.4,3.3,7.9l-3.1,3.1c-1,1-1,2.7,0,3.7l6.3,6.3c1,1,2.7,1,3.7,0
	l3.1-3.1c2.4,1.4,5.1,2.6,7.9,3.3v4.3c0,1.4,1.2,2.6,2.6,2.6h8.9c1.4,0,2.6-1.2,2.6-2.6v-4.3c2.8-0.7,5.5-1.8,7.9-3.3l3.1,3.1
	c1,1,2.7,1,3.7,0l6.3-6.3c1-1,1-2.7,0-3.7l-3.1-3.1c1.5-2.4,2.6-5.1,3.3-7.9h4.3c1.4,0,2.6-1.2,2.6-2.6v-8.9
	C243.4,140.3,242.2,139.1,240.8,139.1z M208.2,163.7c-9.7,0-17.6-7.8-17.6-17.5c0-9.7,7.9-17.5,17.6-17.5c9.7,0,17.6,7.8,17.6,17.5
	C225.8,155.8,218,163.7,208.2,163.7z"/>
<path id="XMLID_242_" class="st2" d="M149.7,131.3h-3.2c-0.5-2.1-1.3-4.1-2.4-5.8l2.3-2.3c0.8-0.8,0.8-2,0-2.7l-4.7-4.7
	c-0.8-0.8-2-0.8-2.7,0l-2.3,2.3c-1.8-1.1-3.8-1.9-5.9-2.4v-3.2c0-1.1-0.9-1.9-1.9-1.9h-6.6c-1.1,0-1.9,0.9-1.9,1.9v3.2
	c-2.1,0.5-4.1,1.3-5.9,2.4l-2.3-2.3c-0.8-0.8-2-0.8-2.7,0l-4.7,4.7c-0.8,0.8-0.8,2,0,2.7l2.3,2.3c-1.1,1.8-1.9,3.8-2.4,5.8h-3.2
	c-1.1,0-1.9,0.9-1.9,1.9v6.6c0,1.1,0.9,1.9,1.9,1.9h3.2c0.5,2.1,1.3,4.1,2.4,5.9l-2.3,2.3c-0.8,0.8-0.8,2,0,2.7l4.7,4.7
	c0.8,0.8,2,0.8,2.7,0l2.3-2.3c1.8,1.1,3.8,1.9,5.9,2.4v3.2c0,1.1,0.9,1.9,1.9,1.9h6.6c1.1,0,1.9-0.9,1.9-1.9v-3.2
	c2.1-0.5,4.1-1.3,5.9-2.4l2.3,2.3c0.8,0.8,2,0.8,2.7,0l4.7-4.7c0.8-0.8,0.8-2,0-2.7l-2.3-2.3c1.1-1.8,1.9-3.8,2.4-5.9h3.2
	c1.1,0,1.9-0.9,1.9-1.9v-6.6C151.6,132.2,150.8,131.3,149.7,131.3z M125.5,149.6c-7.2,0-13.1-5.8-13.1-13.1
	c0-7.2,5.9-13.1,13.1-13.1s13.1,5.8,13.1,13.1C138.6,143.8,132.7,149.6,125.5,149.6z"/>
<g id="XMLID_232_">
	<g id="XMLID_236_">
		<g id="XMLID_238_">
			<path id="XMLID_102_" class="st3" d="M94,174.6c-0.3-0.8-0.6-1.6-0.9-2.4L94,174.6z"/>
			<path id="XMLID_239_" class="st3" d="M93.1,179.2l0-7c-1.5-3.8-3.3-7.2-4.9-9.7c-1.8,1.9-2.4,7.8-2.4,7.8c0.2-6.1,0.8-8,0.9-10
				c-2.7-3.5-6.7-5.3-9.9-7.4c1.3,7.3,1.2,9.1,1.2,9.1c-0.4-4.4-1.9-7.4-2.6-10c-8.2-4.8-12.4-3.5-12.4-3.5
				c0.1,3.1,1.1,9.9,1.4,12.5c3.5,2.9,8.2,5.8,8.2,5.8c-2.5-0.8-5.7-2.7-8-4.2c0.5,3.8,0.5,3.2,1.5,6.2c3.4,3.1,10.4,6.7,10.4,6.7
				c-3-0.7-7.3-3-9.6-4.3c2,5.1,4.7,9.2,7.9,12.9c3.6,1.6,7.4,2.8,7.4,2.8c-1.7-0.1-3.9-0.6-6-1.2c3.8,4,8.3,7.5,13.3,11.5l5,2
				l1.6-7.5c0.7-6-0.3-11.9-2.1-17.2L93.1,179.2z"/>
		</g>
		<path id="XMLID_100_" class="st4" d="M89.1,186.5c1,1.8,1.9,3.6,2.7,5.5c0.8,1.9,1.5,3.8,2,5.8l-0.1,0c-0.5-2-1.3-3.9-2.1-5.7
			c-0.9-1.8-1.8-3.6-2.8-5.3c-2-3.5-4.1-6.9-6.3-10.2c-2.2-3.4-4.4-6.7-6.4-10.2c-1-1.7-2-3.5-2.9-5.3c-0.9-1.8-1.8-3.6-2.6-5.5
			l0.1,0c2,3.5,4.1,6.9,6.2,10.3c2.1,3.4,4.2,6.8,6.3,10.3C85.1,179.5,87.2,182.9,89.1,186.5z"/>
	</g>
	<g id="XMLID_233_">
		<path id="XMLID_99_" class="st2" d="M82.6,197.8c0.1-7.4,0.5-10.5,0-12.9c-4.3-3.2-8.9-5.2-13.4-6.4c3.8,8.3,2.9,14.1,2.9,14.1
			c-0.2-6-3.1-11.8-4.8-14.6C55.9,175.2,46,177,46,177c1,3.7,2.2,7,3.3,10.1C54.4,189.3,61,191,61,191c-3.2,0-7.7-1.1-10.9-2
			c1.8,4.4,3.8,8.1,5.9,11.4c5.1,2.5,14.6,4.2,14.6,4.2c-3.9,0.3-9.7-0.9-12.8-1.6c4,5.4,8.5,9.3,13.5,12.5c4.8,0.6,9.7,0.5,9.7,0.5
			c-2.1,0.5-4.9,0.7-7.5,0.8c5.8,3.4,12.3,5.9,19.5,8.8l6.7,0.6l-0.4-9.6c-1.8-14.4-7.3-23.7-14.1-29.7
			C83.4,189.8,82.6,197.8,82.6,197.8z"/>
		<path id="XMLID_98_" class="st5" d="M98.1,224.5c-1.2-2.2-2.7-4.2-4.3-6c-1.6-1.9-3.3-3.6-5-5.3c-3.5-3.4-7.1-6.7-10.7-9.9
			c-3.6-3.2-7.3-6.4-10.8-9.8c-1.8-1.7-3.5-3.5-5.2-5.3c-1.7-1.8-3.3-3.7-4.8-5.6l0.1-0.1c3.5,3.4,7,6.8,10.6,10
			c3.6,3.3,7.1,6.7,10.7,10c3.6,3.3,7.1,6.7,10.5,10.2c1.7,1.8,3.3,3.6,4.9,5.6C95.6,220.2,97,222.2,98.1,224.5L98.1,224.5z"/>
	</g>
</g>
<g id="XMLID_196_">
	<g id="XMLID_229_">
		<path id="XMLID_97_" class="st6" d="M214,222H93.6v-61.4c0-7.8,6.3-14.1,14.1-14.1h92.3c7.8,0,14.1,6.3,14.1,14.1V222z"/>
		<rect id="XMLID_96_" x="99.3" y="152.1" class="st1" width="108.9" height="63.4"/>
	</g>
	<g id="XMLID_197_">
		<polygon id="XMLID_95_" class="st2" points="236,240.6 71.5,240.6 93.6,222 214,222 		"/>
		<path id="XMLID_94_" class="st6" d="M229,247.7H78.6c-3.9,0-7.1-3.2-7.1-7.1v0H236v0C236,244.5,232.9,247.7,229,247.7z"/>
		<g id="XMLID_198_">
			<path id="XMLID_93_" class="st4" d="M109.3,227h-6.7c-0.2,0-0.3-0.3-0.2-0.4l2.1-2c0,0,0.1-0.1,0.2-0.1h6.4
				c0.2,0,0.3,0.2,0.2,0.4l-1.8,2C109.4,227,109.3,227,109.3,227z"/>
			<path id="XMLID_92_" class="st4" d="M119.8,227h-6.7c-0.2,0-0.3-0.2-0.2-0.4l1.7-2c0-0.1,0.1-0.1,0.2-0.1h6.4
				c0.2,0,0.3,0.2,0.2,0.4l-1.4,2C120,227,119.9,227,119.8,227z"/>
			<path id="XMLID_91_" class="st4" d="M130.4,227h-6.8c-0.2,0-0.3-0.2-0.2-0.3l1.2-2c0-0.1,0.1-0.1,0.2-0.1h6.5
				c0.2,0,0.3,0.2,0.2,0.3l-0.9,2C130.5,227,130.4,227,130.4,227z"/>
			<path id="XMLID_90_" class="st4" d="M140.9,227h-6.8c-0.2,0-0.3-0.2-0.2-0.3l0.8-2c0-0.1,0.1-0.1,0.2-0.1h6.5
				c0.1,0,0.3,0.1,0.2,0.3l-0.5,2C141.1,227,141,227,140.9,227z"/>
			<path id="XMLID_89_" class="st4" d="M151.4,227h-6.8c-0.1,0-0.3-0.1-0.2-0.3l0.4-2c0-0.1,0.1-0.2,0.2-0.2h6.5
				c0.1,0,0.2,0.1,0.2,0.2l-0.1,2C151.6,226.9,151.5,227,151.4,227z"/>
			<path id="XMLID_88_" class="st4" d="M161.9,227h-6.8c-0.1,0-0.2-0.1-0.2-0.2l-0.1-2c0-0.1,0.1-0.2,0.2-0.2h6.5
				c0.1,0,0.2,0.1,0.2,0.2l0.4,2C162.2,226.9,162.1,227,161.9,227z"/>
			<path id="XMLID_87_" class="st4" d="M172.4,227h-6.8c-0.1,0-0.2-0.1-0.2-0.2l-0.5-2c0-0.1,0.1-0.3,0.2-0.3h6.5
				c0.1,0,0.2,0.1,0.2,0.1l0.8,2C172.7,226.9,172.6,227,172.4,227z"/>
			<path id="XMLID_86_" class="st4" d="M182.9,227h-6.8c-0.1,0-0.2-0.1-0.2-0.1l-0.9-2c-0.1-0.2,0-0.3,0.2-0.3h6.5
				c0.1,0,0.2,0,0.2,0.1l1.2,2C183.2,226.8,183.1,227,182.9,227z"/>
			<path id="XMLID_85_" class="st4" d="M193.4,227h-6.7c-0.1,0-0.1,0-0.2-0.1l-1.4-2c-0.1-0.2,0-0.4,0.2-0.4h6.4
				c0.1,0,0.1,0,0.2,0.1l1.7,2C193.7,226.8,193.6,227,193.4,227z"/>
			<path id="XMLID_84_" class="st4" d="M203.9,227h-6.7c-0.1,0-0.1,0-0.2-0.1l-1.8-2c-0.1-0.1,0-0.4,0.2-0.4h6.4
				c0.1,0,0.1,0,0.2,0.1l2.1,2C204.2,226.8,204.1,227,203.9,227z"/>
			<path id="XMLID_83_" class="st4" d="M105.9,230.7h-7.2c-0.2,0-0.3-0.3-0.2-0.4l2.5-2.3c0,0,0.1-0.1,0.2-0.1h6.9
				c0.2,0,0.3,0.2,0.2,0.4l-2.1,2.3C106.1,230.7,106,230.7,105.9,230.7z"/>
			<path id="XMLID_82_" class="st4" d="M117.3,230.7H110c-0.2,0-0.3-0.2-0.2-0.4l2-2.3c0-0.1,0.1-0.1,0.2-0.1h6.9
				c0.2,0,0.3,0.2,0.2,0.4l-1.6,2.3C117.4,230.7,117.4,230.7,117.3,230.7z"/>
			<path id="XMLID_81_" class="st4" d="M128.6,230.7h-7.3c-0.2,0-0.3-0.2-0.2-0.3l1.5-2.3c0-0.1,0.1-0.1,0.2-0.1h7
				c0.2,0,0.3,0.2,0.2,0.3l-1.1,2.3C128.8,230.6,128.7,230.7,128.6,230.7z"/>
			<path id="XMLID_80_" class="st4" d="M102.1,235h-7.9c-0.2,0-0.3-0.3-0.2-0.4l3-2.8c0,0,0.1-0.1,0.2-0.1h7.4
				c0.2,0,0.3,0.2,0.2,0.4l-2.5,2.8C102.2,234.9,102.1,235,102.1,235z"/>
			<path id="XMLID_79_" class="st4" d="M114.3,235h-7.9c-0.2,0-0.3-0.2-0.2-0.4l2.4-2.8c0-0.1,0.1-0.1,0.2-0.1h7.5
				c0.2,0,0.3,0.2,0.2,0.4l-1.9,2.8C114.5,234.9,114.4,235,114.3,235z"/>
			<path id="XMLID_78_" class="st4" d="M126.6,235h-8c-0.2,0-0.3-0.2-0.2-0.3l1.7-2.8c0-0.1,0.1-0.1,0.2-0.1h7.6
				c0.2,0,0.3,0.2,0.2,0.3l-1.3,2.8C126.8,234.9,126.7,235,126.6,235z"/>
			<path id="XMLID_77_" class="st4" d="M140,230.7h-7.4c-0.2,0-0.3-0.2-0.2-0.3l0.9-2.3c0-0.1,0.1-0.1,0.2-0.1h7
				c0.1,0,0.3,0.1,0.2,0.3l-0.6,2.3C140.2,230.6,140.1,230.7,140,230.7z"/>
			<path id="XMLID_76_" class="st4" d="M175.6,235h-44.8c-0.2,0-0.3-0.2-0.2-0.3l1.1-2.8c0-0.1,0.1-0.1,0.2-0.1h42.5
				c0.1,0,0.2,0.1,0.2,0.1l1.1,2.8C175.9,234.8,175.8,235,175.6,235z"/>
			<path id="XMLID_75_" class="st4" d="M151.3,230.7h-7.4c-0.1,0-0.3-0.1-0.2-0.3l0.4-2.3c0-0.1,0.1-0.2,0.2-0.2h7
				c0.1,0,0.2,0.1,0.2,0.2l-0.1,2.3C151.5,230.6,151.4,230.7,151.3,230.7z"/>
			<path id="XMLID_74_" class="st4" d="M162.6,230.7h-7.4c-0.1,0-0.2-0.1-0.2-0.2l-0.1-2.3c0-0.1,0.1-0.2,0.2-0.2h7
				c0.1,0,0.2,0.1,0.2,0.2l0.4,2.3C162.9,230.6,162.8,230.7,162.6,230.7z"/>
			<path id="XMLID_73_" class="st4" d="M173.9,230.7h-7.4c-0.1,0-0.2-0.1-0.2-0.2l-0.6-2.3c0-0.1,0.1-0.3,0.2-0.3h7
				c0.1,0,0.2,0.1,0.2,0.1l0.9,2.3C174.2,230.5,174.1,230.7,173.9,230.7z"/>
			<path id="XMLID_72_" class="st4" d="M185.2,230.7h-7.3c-0.1,0-0.2-0.1-0.2-0.1l-1.1-2.3c-0.1-0.2,0-0.3,0.2-0.3h7
				c0.1,0,0.2,0,0.2,0.1l1.5,2.3C185.5,230.5,185.4,230.7,185.2,230.7z"/>
			<path id="XMLID_71_" class="st4" d="M196.5,230.7h-7.3c-0.1,0-0.1,0-0.2-0.1l-1.6-2.3c-0.1-0.2,0-0.4,0.2-0.4h6.9
				c0.1,0,0.1,0,0.2,0.1l2,2.3C196.8,230.5,196.7,230.7,196.5,230.7z"/>
			<path id="XMLID_70_" class="st4" d="M198.6,233.1h-7.7c-0.1,0-0.1,0-0.2-0.1l-0.7-1c-0.1-0.2,0-0.4,0.2-0.4h7.5
				c0.1,0,0.1,0,0.2,0.1l0.8,1C198.9,232.9,198.8,233.1,198.6,233.1z"/>
			<path id="XMLID_69_" class="st4" d="M200.1,235h-7.9c-0.1,0-0.1,0-0.2-0.1l-0.7-1.1c-0.1-0.2,0-0.4,0.2-0.4h7.8
				c0.1,0,0.1,0,0.2,0.1l0.9,1.1C200.4,234.7,200.3,235,200.1,235z"/>
			<path id="XMLID_68_" class="st4" d="M212.3,235h-7.9c-0.1,0-0.1,0-0.2-0.1l-1-1.1c-0.1-0.1,0-0.4,0.2-0.4h7.7
				c0.1,0,0.1,0,0.2,0.1l1.2,1.1C212.6,234.7,212.5,235,212.3,235z"/>
			<path id="XMLID_67_" class="st4" d="M187.9,235h-8c-0.1,0-0.2-0.1-0.2-0.1l-0.5-1.1c-0.1-0.2,0-0.3,0.2-0.3h7.8
				c0.1,0,0.2,0,0.2,0.1l0.7,1.1C188.2,234.8,188,235,187.9,235z"/>
			<path id="XMLID_66_" class="st4" d="M207.8,230.7h-7.2c-0.1,0-0.1,0-0.2-0.1l-2.1-2.3c-0.1-0.1,0-0.4,0.2-0.4h6.9
				c0.1,0,0.1,0,0.2,0.1l2.5,2.3C208.1,230.4,208,230.7,207.8,230.7z"/>
		</g>
	</g>
</g>
<g id="XMLID_155_">
	<g id="XMLID_187_">
		<g id="XMLID_194_">
			<polygon id="XMLID_65_" class="st7" points="10.7,56.5 34.5,74.4 27.7,82.8 			"/>
		</g>
		<g id="XMLID_192_">
			<polygon id="XMLID_64_" class="st8" points="10.7,56.5 29.1,74.7 27.7,82.8 			"/>
		</g>
		<g id="XMLID_190_">
			<polygon id="XMLID_63_" class="st9" points="10.7,56.5 43.6,72.2 34.5,74.4 			"/>
		</g>
		<g id="XMLID_188_">
			<polygon id="XMLID_62_" class="st9" points="10.7,56.5 29.1,74.7 18,76.5 			"/>
		</g>
	</g>
	<g id="XMLID_156_">
		<path id="XMLID_157_" class="st1" d="M115,129.5c0,0-0.1,0-0.1-0.1c-0.7-0.4-1.5-0.9-2.2-1.3c-0.2-0.1-0.3-0.4-0.1-0.6
			c0.1-0.2,0.4-0.3,0.6-0.1c0.7,0.5,1.4,0.9,2.1,1.3c0.2,0.1,0.3,0.4,0.2,0.6C115.4,129.4,115.2,129.5,115,129.5z M110.1,126
			c-0.1,0-0.1,0-0.2-0.1c-0.9-0.8-1.7-1.6-2.6-2.4c-0.2-0.2-0.2-0.5,0-0.7c0.2-0.2,0.5-0.2,0.7,0c0.8,0.8,1.6,1.6,2.5,2.4
			c0.2,0.2,0.2,0.5,0,0.7C110.4,126,110.2,126,110.1,126z M105.3,121c-0.1,0-0.2-0.1-0.3-0.2c-0.7-0.9-1.4-1.9-2.1-2.9
			c-0.1-0.2-0.1-0.5,0.1-0.6c0.2-0.1,0.5-0.1,0.6,0.1c0.6,1,1.3,1.9,2,2.8c0.2,0.2,0.1,0.5-0.1,0.7C105.5,121,105.4,121,105.3,121z
			 M101.4,115.2c-0.1,0-0.2-0.1-0.3-0.2c-0.6-1-1.1-2.1-1.6-3.1c-0.1-0.2,0-0.5,0.2-0.6c0.2-0.1,0.5,0,0.6,0.2
			c0.5,1.1,1,2.1,1.6,3.1c0.1,0.2,0,0.5-0.2,0.6C101.7,115.2,101.5,115.2,101.4,115.2z M64.9,102.3
			C64.9,102.3,64.9,102.3,64.9,102.3c-1.2-0.3-2.3-0.5-3.4-0.8c-0.2-0.1-0.4-0.3-0.3-0.6c0.1-0.2,0.3-0.4,0.6-0.3
			c1.1,0.3,2.2,0.6,3.4,0.8c0.3,0.1,0.4,0.3,0.4,0.6C65.4,102.2,65.2,102.4,64.9,102.3z M68.3,103c-0.2-0.1-0.4-0.3-0.4-0.5
			c0-0.3,0.3-0.4,0.5-0.4c1.1,0.2,2.3,0.4,3.4,0.6c0.2,0,0.4,0.3,0.4,0.5c0,0.3-0.3,0.4-0.5,0.4C70.7,103.4,69.5,103.2,68.3,103
			C68.4,103,68.4,103,68.3,103z M98.5,108.9c-0.1,0-0.3-0.1-0.3-0.3c-0.4-1.1-0.8-2.2-1.2-3.3c-0.1-0.2,0.1-0.5,0.3-0.6
			c0.2-0.1,0.5,0.1,0.6,0.3c0.4,1.1,0.8,2.2,1.2,3.2c0.1,0.2,0,0.5-0.3,0.6C98.7,108.9,98.6,108.9,98.5,108.9z M58.2,100.5
			C58.2,100.5,58.2,100.5,58.2,100.5c-1.2-0.4-2.3-0.8-3.4-1.2c-0.2-0.1-0.4-0.4-0.3-0.6c0.1-0.2,0.4-0.4,0.6-0.3
			c1.1,0.4,2.2,0.8,3.3,1.1c0.2,0.1,0.4,0.3,0.3,0.6C58.7,100.4,58.4,100.6,58.2,100.5z M75.3,104c-0.2,0-0.4-0.3-0.4-0.5
			c0-0.3,0.3-0.4,0.5-0.4c0.5,0,0.9,0.1,1.4,0.1c0.7,0.1,1.4,0.1,2.1,0.1c0.3,0,0.5,0.2,0.4,0.5c0,0.3-0.2,0.5-0.5,0.4
			c-0.7,0-1.4-0.1-2.1-0.1C76.2,104.1,75.8,104.1,75.3,104C75.3,104,75.3,104,75.3,104z M82.2,104.3c-0.2,0-0.4-0.2-0.4-0.4
			c0-0.3,0.2-0.5,0.5-0.5c1.2,0,2.3-0.1,3.4-0.2c0.3,0,0.5,0.2,0.5,0.4c0,0.3-0.2,0.5-0.4,0.5c-1.2,0.1-2.3,0.2-3.5,0.2
			C82.3,104.3,82.3,104.3,82.2,104.3z M51.7,98C51.7,98,51.6,98,51.7,98c-1.2-0.5-2.2-1-3.3-1.6c-0.2-0.1-0.3-0.4-0.2-0.6
			c0.1-0.2,0.4-0.3,0.6-0.2c1,0.5,2,1,3.1,1.5c0.2,0.1,0.3,0.4,0.2,0.6C52.1,98,51.9,98.1,51.7,98z M45.5,94.7c-0.1,0-0.1,0-0.2-0.1
			c-1-0.6-2-1.3-2.9-2c-0.2-0.2-0.2-0.4-0.1-0.6c0.2-0.2,0.4-0.2,0.7-0.1c0.9,0.7,1.8,1.3,2.8,2c0.2,0.1,0.3,0.4,0.1,0.6
			C45.9,94.7,45.7,94.8,45.5,94.7z M89.2,103.6c-0.2,0-0.3-0.2-0.4-0.4c0-0.3,0.1-0.5,0.4-0.5c1.1-0.2,2.3-0.5,3.4-0.7
			c0.3-0.1,0.5,0.1,0.6,0.3c0.1,0.2-0.1,0.5-0.3,0.6c-1.1,0.3-2.3,0.6-3.4,0.8C89.3,103.6,89.2,103.6,89.2,103.6z M96.3,102.3
			c-0.2,0-0.3-0.2-0.4-0.3c0,0,0-0.1,0-0.1c-0.2,0-0.3-0.1-0.4-0.3c-0.1-0.2,0-0.4,0.2-0.5c-0.2-0.8-0.4-1.7-0.6-2.5
			c-0.1-0.3,0.1-0.5,0.4-0.5c0.3,0,0.5,0.1,0.5,0.4c0.2,0.8,0.3,1.5,0.5,2.3c0.8-0.3,1.6-0.6,2.4-1c0.2-0.1,0.5,0,0.6,0.2
			c0.1,0.2,0,0.5-0.2,0.6c-0.8,0.4-1.7,0.7-2.6,1.1c0,0,0,0.1,0,0.1c0.1,0.2-0.1,0.5-0.3,0.6C96.5,102.3,96.4,102.3,96.3,102.3z
			 M40,90.5c-0.1,0-0.2-0.1-0.2-0.1c-0.9-0.8-1.7-1.6-2.5-2.5c-0.2-0.2-0.2-0.5,0-0.7c0.2-0.2,0.5-0.2,0.7,0
			c0.7,0.8,1.6,1.7,2.4,2.4c0.2,0.2,0.2,0.5,0,0.7C40.3,90.5,40.2,90.6,40,90.5z M35.4,85.3c-0.1,0-0.2-0.1-0.3-0.2
			c-0.7-1-1.3-2-1.9-3c-0.1-0.2,0-0.5,0.2-0.6c0.2-0.1,0.5,0,0.6,0.2c0.5,1,1.1,2,1.8,2.9c0.1,0.2,0.1,0.5-0.1,0.6
			C35.6,85.3,35.5,85.4,35.4,85.3z M102.3,99c-0.1,0-0.2-0.1-0.3-0.2c-0.1-0.2,0-0.5,0.2-0.6c1-0.5,2-1.1,3-1.8
			c0.2-0.1,0.5-0.1,0.6,0.1c0.1,0.2,0.1,0.5-0.1,0.6c-1,0.6-2,1.3-3,1.8C102.5,99,102.4,99,102.3,99z M95,95.4
			c-0.2,0-0.3-0.2-0.4-0.4c-0.1-1.2-0.2-2.4-0.3-3.5c0-0.3,0.2-0.5,0.4-0.5c0.3,0,0.5,0.2,0.5,0.4c0,1.1,0.1,2.3,0.3,3.4
			c0,0.3-0.1,0.5-0.4,0.5C95.1,95.5,95,95.5,95,95.4z M108.1,95.2c-0.1,0-0.2-0.1-0.3-0.2c-0.2-0.2-0.1-0.5,0.1-0.7
			c0.9-0.7,1.8-1.5,2.6-2.2c0.2-0.2,0.5-0.2,0.7,0c0.2,0.2,0.2,0.5,0,0.7c-0.9,0.8-1.8,1.6-2.7,2.3
			C108.3,95.2,108.2,95.2,108.1,95.2z M94.7,88.5c-0.2,0-0.4-0.2-0.4-0.5c0.1-1.2,0.2-2.4,0.4-3.5c0-0.3,0.3-0.4,0.5-0.4
			c0.3,0,0.4,0.3,0.4,0.5c-0.2,1.1-0.3,2.2-0.4,3.4C95.2,88.3,95,88.5,94.7,88.5C94.7,88.5,94.7,88.5,94.7,88.5z M113.2,90.4
			c-0.1,0-0.2-0.1-0.2-0.1c-0.2-0.2-0.2-0.5,0-0.7c0.8-0.8,1.5-1.7,2.2-2.6c0.2-0.2,0.5-0.2,0.7-0.1c0.2,0.2,0.2,0.4,0.1,0.7
			c-0.7,0.9-1.5,1.8-2.3,2.7C113.5,90.4,113.3,90.5,113.2,90.4z M95.8,81.7C95.8,81.7,95.8,81.7,95.8,81.7c-0.3-0.1-0.4-0.3-0.4-0.6
			l0-0.1c0.3-1.1,0.7-2.1,1.2-3.2c0.1-0.2,0.4-0.3,0.6-0.2c0.2,0.1,0.3,0.4,0.2,0.6c-0.5,1-0.8,2-1.1,3.1l0,0.1
			C96.3,81.6,96,81.7,95.8,81.7z M117.5,85c-0.1,0-0.1,0-0.2-0.1c-0.2-0.1-0.3-0.4-0.1-0.6c0.6-0.9,1.3-1.9,1.8-2.9
			c0.1-0.2,0.4-0.3,0.6-0.2c0.2,0.1,0.3,0.4,0.2,0.6c-0.6,1-1.2,2-1.9,3C117.9,85,117.7,85,117.5,85z M98.6,75.3
			c-0.1,0-0.1,0-0.2-0.1c-0.2-0.1-0.3-0.4-0.2-0.6c0.6-1,1.3-2,2.1-2.9c0.2-0.2,0.5-0.2,0.7-0.1c0.2,0.2,0.2,0.5,0.1,0.7
			c-0.7,0.9-1.4,1.8-2,2.8C99,75.3,98.8,75.4,98.6,75.3z M121,79c0,0-0.1,0-0.1,0c-0.2-0.1-0.3-0.4-0.2-0.6l0.2-0.5
			c0.4-0.8,0.7-1.7,0.9-2.6c0.1-0.2,0.3-0.4,0.5-0.4c0,0,0,0,0,0c0.3,0.1,0.4,0.3,0.4,0.6c-0.2,1-0.5,1.9-1,2.8l-0.3,0.5
			C121.4,78.9,121.2,79,121,79z M103.1,70c-0.1,0-0.2-0.1-0.3-0.1c-0.2-0.2-0.2-0.5,0-0.7c0.9-0.8,1.9-1.5,2.8-2.2
			c0.2-0.1,0.5-0.1,0.6,0.1c0.1,0.2,0.1,0.5-0.1,0.6c-0.9,0.6-1.8,1.3-2.7,2.1C103.4,70,103.2,70,103.1,70z M122.4,72.3
			c-0.2,0-0.4-0.2-0.4-0.4c-0.1-1.2-0.4-2.2-0.9-3.1c-0.1-0.2,0-0.5,0.2-0.6c0.2-0.1,0.5,0,0.6,0.2c0.6,1,0.9,2.2,1,3.5
			c0,0.3-0.2,0.5-0.4,0.5C122.5,72.3,122.5,72.3,122.4,72.3z M108.9,66.3c-0.1,0-0.3-0.1-0.3-0.3c-0.1-0.2,0-0.5,0.3-0.6
			c1.1-0.4,2.3-0.8,3.5-0.9c0.3,0,0.5,0.1,0.5,0.4c0,0.3-0.1,0.5-0.4,0.5c-1.1,0.2-2.2,0.4-3.3,0.9C109.1,66.3,109,66.3,108.9,66.3z
			 M119,66.5c-0.1,0-0.1,0-0.1-0.1c-0.9-0.5-2-0.9-3.1-1.1c-0.3,0-0.4-0.3-0.4-0.5c0-0.3,0.3-0.4,0.5-0.4c1.3,0.2,2.4,0.6,3.4,1.2
			c0.2,0.1,0.3,0.4,0.2,0.6C119.4,66.4,119.2,66.5,119,66.5z"/>
	</g>
</g>
<polygon id="XMLID_32_" class="st3" points="172.4,138.7 155.8,152.6 137.8,139.8 142.1,128 143,123.5 144.7,114.6 162.9,114.1 
	163.6,117.3 165.8,125.8 "/>
<g id="XMLID_136_">
	<path id="XMLID_31_" class="st10" d="M163.6,117.3c-1.8,3.2-6.9,7.6-20.7,6.2l1.8-8.9l18.1-0.5L163.6,117.3z"/>
	<g id="XMLID_143_">
		<path id="XMLID_30_" class="st3" d="M170.8,91.3c0,15.6-7.5,28.2-16.8,28.2c-9.3,0-16.8-12.6-16.8-28.2s7.5-20.2,16.8-20.2
			C163.3,71.1,170.8,75.8,170.8,91.3z"/>
		<path id="XMLID_29_" class="st10" d="M162.3,72.7c0,0,0.1,9-8.1,9.8c-8.2,0.8-15.6-4.1-17.5,6.5v-9.5l9-5.3L162.3,72.7z"/>
		<path id="XMLID_148_" class="st11" d="M172.6,78c1.5,5.3-2.5,29.1-4.8,33.9c-2.3,4.8-7.3,7.6-14.2,7.7c-8.8,0.1-11.8-4.3-13.6-6.8
			c-1.8-2.5-1.9-7.4-4.2-25.7s12.2-20.7,17.6-20.7c5.3,0,7.9-0.1,8.9,3.5C169.8,69.5,171,72.7,172.6,78z M155.7,80.6
			c-4.9,2.3-13.5-2.3-16.8,1.4c-3.3,3.7-1.3,15.5-0.2,20.4c0.4,2,6,0.4,9.5,2.2c-4.7,4.4,0,8.2,5.2,8.2c4.9,0,9.6-1.6,6.5-7.6
			c2.4-2.6,7.6-0.1,8.7-2.4c1.5-3.2,0.7-18.1,0.7-18.1c-2.1-0.6-6.8-6.4-6.8-10.7C162.4,74.2,160.6,78.4,155.7,80.6z"/>
		<ellipse id="XMLID_26_" class="st11" cx="146.5" cy="90.3" rx="1.6" ry="2.4"/>
		<ellipse id="XMLID_25_" class="st11" cx="160.6" cy="90.3" rx="1.6" ry="2.4"/>
		<path id="XMLID_24_" class="st12" d="M148.9,106.9h9.7c0,0-1,4.2-4.5,4.2C150.7,111.1,149.3,108.7,148.9,106.9z"/>
		<path id="XMLID_23_" class="st10" d="M153.7,92.7c0,0-6.2,9.9,0,9.9V92.7z"/>
	</g>
	<g id="XMLID_138_">
		<path id="XMLID_22_" class="st13" d="M134.6,91.8c-0.2-0.9-0.3-1.9-0.3-2.9c0-9.7,8.6-15.9,19.2-15.9c10.6,0,19.2,6.2,19.2,15.9
			c0,1-0.1,1.9-0.3,2.9h2.2c0.5-1.7,1-3.5,0.8-5.4c-0.9-9.1-8.5-17.9-21.9-17.9c-12.1,0-21.7,9.5-21.7,19.1c0,1.9,0,2.5,0.6,4.2
			H134.6z"/>
		<g id="XMLID_139_">
			<path id="XMLID_21_" class="st13" d="M135.5,102.4l-2,0.2c-2.2,0.2-4.3-1.3-4.5-3.4l-1.1-9.4c-0.2-2.1,1.4-4.1,3.6-4.3l2-0.2
				c1.2-0.1,2.3,0.7,2.4,1.8l1.5,13C137.6,101.2,136.7,102.2,135.5,102.4z"/>
			<path id="XMLID_20_" class="st13" d="M172,102.4l2,0.2c2.2,0.2,4.3-1.3,4.5-3.4l1.1-9.4c0.3-2.1-1.4-4.1-3.6-4.3l-2-0.2
				c-1.2-0.1-2.3,0.7-2.4,1.8l-1.5,13C169.9,101.2,170.8,102.2,172,102.4z"/>
		</g>
	</g>
	<path id="XMLID_19_" class="st11" d="M158.6,67.7c0,0-1.3,4.3-8.9,4.3c-7.6,0-10,0.7-10,0.7S145.3,66.7,158.6,67.7z"/>
</g>
<g id="XMLID_132_">
	<path id="XMLID_18_" class="st6" d="M182.5,165c-0.5,0.2-1,0.3-1.4,0.5c0.2,2.2,0.5,7.4,0.8,12.2l0,0.6c0.1,1.3,0.2,2.6,0.2,3.8
		c0.1,2.2,0.3,4,0.4,5c0.4,2.5,0.8,5.2,1.1,7.6c0.7,6.2,1,11.4,1,11.4c-1.2,0-59.7,0-59.7,0l0.3-10.1l0.2-6.6l0.2-6.3l0.5-17.4
		c-0.5-0.2-1.4-0.4-2.5-0.6c-4.3-0.7-11.8-1.5-14.7-1.8c-0.7-0.1-1.2-0.1-1.2-0.1s6.5-26.9,10.5-31.2c7.2-4.5,14.8-6.3,24.7-8.5
		c0,0-0.6,3.7,1.2,6.9c4.4,7.7,19.1,6.4,21.1-2.3c0.5-2.1-0.1-4.6-0.1-4.6s20.3,4.2,24.3,8.9c3.1,5.2,8.8,28.1,8.8,28.1
		s-0.6,0.1-1.5,0.4C193.7,161.7,186.5,163.6,182.5,165z"/>
	<polygon id="XMLID_17_" class="st14" points="177,149 181.1,165.4 181.9,178.2 177,164.8 	"/>
	<polygon id="XMLID_16_" class="st14" points="128.9,174.7 126.7,184.1 125.5,189.4 125.7,183.1 126.2,165.7 128.9,147.8 	"/>
</g>
<g id="XMLID_127_">
	<g id="XMLID_129_">
		<path id="XMLID_15_" class="st11" d="M116.3,217.3c0,0-20.8,1.1-25.5,3.2c-4.8,2.1,0.7,12.9,4,13.3c2.4,0.3,23-1.7,25.9-4.7
			L116.3,217.3z"/>
		<path id="XMLID_14_" class="st3" d="M116.3,217.3c0,0-9,1.9-10.7,4.1c-1.7,2.2-2,8.1-0.7,8.4c1.2,0.2,2.8,2.2,15.9-0.6
			L116.3,217.3z"/>
	</g>
	<path id="XMLID_13_" class="st15" d="M116.1,217.2l4.6,12.1l85.5-15.6c8.3-1.8,22.8-9.5,20.9-16c-2.3-7.9-8.8-13-17-10.7
		L116.1,217.2z"/>
</g>
<path id="XMLID_12_" class="st3" d="M126.7,184.1l-1.1-1l-5.5-4.9l3.5-13c-4.3-0.7-11.8-1.5-14.7-1.8l-3.3,16.7
	c-0.4,2.1,0.5,4.2,2.3,5.3l17.3,10.7l5.8,3.6l4.6-7.5L126.7,184.1z"/>
<path id="XMLID_11_" class="st3" d="M200.8,179.7l-4-18.8c-3.1,0.8-10.2,2.7-14.2,4l3.8,13.2l-4.1,3.8L171,192.4l4.7,7.5l8-5.2
	l14.8-9.6C200.3,183.9,201.2,181.8,200.8,179.7z"/>
<g id="XMLID_120_">
	<path id="XMLID_10_" class="st16" d="M193.9,217l-4.4,12.2L101,213.7c-8.4-1.7-18-8.3-18.2-13.3c-0.2-6.8,9.7-15.5,17.9-13.3
		L193.9,217z"/>
	<g id="XMLID_121_">
		<path id="XMLID_9_" class="st11" d="M193.9,217c0,0,21.8,1.4,26.7,3.4c4.8,1.9-1.7,11.9-5,12.5c-2.4,0.4-23.1-0.8-26.1-3.7
			L193.9,217z"/>
		<path id="XMLID_8_" class="st3" d="M193.9,217c0,0,8.6,1.8,10.4,3.9c1.8,2.1,2.3,8,1.1,8.3c-1.2,0.3-2.7,2.3-15.9,0L193.9,217z"/>
	</g>
</g>
<path id="XMLID_7_" class="st17" d="M186.5,164.8l-4.6,35.8h-57.9l-0.7-5.3l-3.9-30.5c0-2.2,1.8-4,4.1-4h58.9
	C184.7,160.8,186.5,162.6,186.5,164.8z"/>
<path id="XMLID_1_" class="st18" d="M153,176.1c-0.4,0-0.7,0-1,0.1c0,0.1,0,0.3,0,0.4c0,2-1.7,3.7-3.7,3.7c0,0.2,0,0.3,0,0.5
	c0,2.6,2.1,4.7,4.7,4.7c2.6,0,4.7-2.1,4.7-4.7C157.7,178.3,155.6,176.1,153,176.1z"/>
<g id="XMLID_110_">
	<g id="XMLID_115_">
		<path id="XMLID_5_" class="st19" d="M68.8,110.4c-3,0-4.2,1.2-4.2,3.9c0,0.2-0.5,0.2-0.5,0c0-2.7-1-3.9-4.2-3.9
			c-0.2,0-0.2-0.5,0-0.5c3.4,0,4.2-1.6,4.2-3.9c0-0.2,0.5-0.2,0.5,0c0,2.8,1.1,3.9,4.2,3.9C69.1,109.9,69.1,110.4,68.8,110.4z"/>
	</g>
	<g id="XMLID_113_">
		<path id="XMLID_4_" class="st19" d="M91.5,89.9c-4.5,0-6.3,1.9-6.3,5.9c0,0.4-0.7,0.4-0.7,0c0-4-1.4-5.9-6.3-5.9
			c-0.4,0-0.4-0.7,0-0.7c5,0,6.3-2.3,6.3-5.9c0-0.4,0.7-0.4,0.7,0c0,4.2,1.7,5.9,6.3,5.9C91.9,89.2,91.9,89.9,91.5,89.9z"/>
	</g>
	<g id="XMLID_111_">
		<path id="XMLID_3_" class="st19" d="M87.3,133.2c-3.5,0-4.8,1.4-4.8,4.5c0,0.3-0.5,0.3-0.5,0c0-3.1-1.1-4.5-4.8-4.5
			c-0.3,0-0.3-0.5,0-0.5c3.8,0,4.8-1.8,4.8-4.5c0-0.3,0.5-0.3,0.5,0c0,3.2,1.3,4.5,4.8,4.5C87.6,132.7,87.6,133.2,87.3,133.2z"/>
	</g>
</g>
<text id="XMLID_2_" transform="matrix(1.0034 0 0 1 135.9972 184.6583)" class="st20 st21 st22">Desigener</text>
</svg>
