<?xml version="1.0" encoding="utf-8"?>
<!-- Generator: Adobe Illustrator 19.0.0, SVG Export Plug-In . SVG Version: 6.00 Build 0)  -->
<svg version="1.1" id="Layer_1" xmlns="http://www.w3.org/2000/svg" xmlns:xlink="http://www.w3.org/1999/xlink" x="0px" y="0px"
	 viewBox="88 21.1 476 258.9" style="enable-background:new 88 21.1 476 258.9;" xml:space="preserve">
<style type="text/css">
	.st0{clip-path:url(#SVGID_2_);fill:#FFFFFF;}
	.st1{clip-path:url(#SVGID_4_);fill:url(#SVGID_5_);}
	.st2{opacity:0.7;fill:#30A0A0;enable-background:new    ;}
	.st3{fill:#EDDCDA;}
	.st4{fill:#2C1D1B;}
	.st5{fill:#3F2A28;}
	.st6{fill:#FFB65F;}
	.st7{fill:#F9BBA7;}
	.st8{fill:#FFC9B6;}
	.st9{fill:#F98F38;}
	.st10{fill:#DEC9C5;}
	.st11{fill:#F4EBEA;}
	.st12{fill:#FF5E4C;}
	.st13{fill:#EF4335;}
	.st14{fill:#FF7469;}
	.st15{fill:#FFB9A4;}
	.st16{fill:#F9F4F4;}
	.st17{fill:#513937;}
	.st18{fill:#74CACE;}
	.st19{fill:#53B7B7;}
	.st20{fill:#FF9E55;}
	.st21{fill:#FFFFFF;}
	.st22{fill:#3F2A2A;}
	.st23{fill:#778DFD;}
	.st24{fill:#5E4443;}
	.st25{fill:#472F2E;}
	.st26{fill:#8DA3FF;}
	.st27{fill:#42A8A5;}
	.st28{fill:#8DE0E0;}
	.st29{opacity:0.5;fill:#FF5E4C;enable-background:new    ;}
	.st30{fill:#FF908A;}
</style>
<g>
	<defs>
		<path id="SVGID_1_" d="M561.6,280H115.4c-8,0-14.4-6.6-14.4-14.7V35.8c0-8.2,6.4-14.7,14.4-14.7h446.2c8,0,14.4,6.6,14.4,14.7
			v229.4C575.9,273.4,569.5,280,561.6,280z"/>
	</defs>
	<clipPath id="SVGID_2_">
		<use xlink:href="#SVGID_1_"  style="overflow:visible;"/>
	</clipPath>
	<path class="st0" d="M561.6,280H115.4c-8,0-14.4-6.6-14.4-14.7V35.8c0-8.2,6.4-14.7,14.4-14.7h446.2c8,0,14.4,6.6,14.4,14.7v229.4
		C575.9,273.4,569.5,280,561.6,280z"/>
</g>
<g>
	<defs>
		<path id="SVGID_3_" d="M561.9,280.7H115.7c-8,0-14.4-6.6-14.4-14.7V36.5c0-8.2,6.4-14.7,14.4-14.7h446.2c8,0,14.4,6.6,14.4,14.7
			v229.4C576.2,274.1,569.8,280.7,561.9,280.7z"/>
	</defs>
	<clipPath id="SVGID_4_">
		<use xlink:href="#SVGID_3_"  style="overflow:visible;"/>
	</clipPath>
	
		<linearGradient id="SVGID_5_" gradientUnits="userSpaceOnUse" x1="382.9889" y1="-14.1964" x2="382.9889" y2="162.0775" gradientTransform="matrix(1 0 0 -1 0 302.2)">
		<stop  offset="0" style="stop-color:#778DFD"/>
		<stop  offset="3.827727e-002" style="stop-color:#7792F9"/>
		<stop  offset="0.3048" style="stop-color:#76B3E0"/>
		<stop  offset="0.5603" style="stop-color:#75CBCE"/>
		<stop  offset="0.7979" style="stop-color:#74D9C3"/>
		<stop  offset="1" style="stop-color:#74DEBF"/>
	</linearGradient>
	<path class="st1" d="M615,196.8c0,0-12.2,8.6-26.7,10.9c-14.8,2.3-28.1,2.5-49.7-18.4c-18.6-17.9-34.1-34.8-113.4-46.9
		c-40.8-6.3-84.3,0.8-104.5,18.3c-29.1,25.1-23.9,53.9-13.9,73.5c8,15.5,1.7,34.3-37.4,29c-39.2-5.3-69.4-9.5-96.3,15.6
		c-17.1,16-22,37.7-22,37.7h464V196.8z"/>
</g>
<g>
	<path class="st2" d="M512.2,237.6l-17.2,8.5c-2.2,1.1-6.1,1-8.7-0.3l-17.1-8.4c-2.6-1.3-2.8-3.2-0.6-4.3l17.2-8.5
		c2.2-1.1,6.1-1,8.7,0.3l17.1,8.4C514.2,234.5,514.4,236.5,512.2,237.6z"/>
	<path class="st2" d="M382.1,171.6l-17.2,8.5c-2.2,1.1-6.1,1-8.7-0.3l-17.1-8.4c-2.6-1.3-2.8-3.2-0.6-4.3l17.2-8.5
		c2.2-1.1,6.1-1,8.7,0.3l17.1,8.4C384.1,168.6,384.3,170.5,382.1,171.6z"/>
	<path class="st2" d="M366.5,237.3l-17.2,8.5c-2.2,1.1-6.1,1-8.7-0.3l-17.1-8.4c-2.6-1.3-2.8-3.2-0.6-4.3l17.2-8.5
		c2.2-1.1,6.1-1,8.7,0.3l17.1,8.4C368.4,234.3,368.7,236.2,366.5,237.3z"/>
	<path class="st2" d="M516.4,182.3l-17.1-8.4c-2.6-1.3-6.5-1.4-8.7-0.3l-17.2,8.5c-0.3,0.2-0.6,0.3-0.8,0.5
		c-12.9-6.2-31.2-10.1-51.6-10.1c-39.1,0-70.8,14.4-70.8,32.1c0,5,2.5,9.7,7,13.9c-9,3.8-5.3,6.5-2,7.6c3.6,1.2,8.3,2.7,11.8,5.5
		c2.9,2.3,8,6.2,10.1,7.8c2,1.6,6.9,1,12.2-1.8c2.1-1.1,3.6-2.3,4.7-3.3c8.3,1.6,17.5,2.4,27,2.4c39.1,0,70.8-14.4,70.8-32.1
		c0-4.2-1.8-8.2-5-11.9l4.3,2.1c2.6,1.3,6.5,1.4,8.7,0.3l17.2-8.5C519.3,185.4,519,183.5,516.4,182.3z"/>
	<g>
		<g>
			<path class="st3" d="M459.3,84.5c0,0-2.7,1.2-4.1,2.7c-1.4,1.6-2.3,4.2-1.7,5.8c-1.7,4-2.4,5-2.2,7.8c-3-1.7-8.3-0.8-8.3-0.8
				s0.3,1.1,0,2.1c-0.5,1.4-1.4,1.9-1.4,1.9c0.9,0.7,2.8,2.6,6.1,2.9c3.4,0.3,6,0.7,6.8,0c1.6-1.4,9.7-19.6,9.7-19.6L459.3,84.5z"/>
			<path class="st4" d="M454.8,109.6c0,0-4.3,9.3-4.9,13.1c-0.7,3.8-2,9.5-2.8,14.2c-0.8,4.7-0.8,9.4-0.4,14
				c0.1,1.8,0.9,6.6,0.5,9.3c0.5,1.7,5.1,1.9,5.7-0.1c0.3-1.2,3.9-12.1,4.3-15.5s-0.6-5.9-0.6-5.9s5.8-10.6,7.9-14.8
				c2-4.2,0.7-9.4,0.7-9.4L454.8,109.6z"/>
			<path class="st4" d="M452.8,159.7c0,0,0.2,1.1,0.6,2.3s-0.1,2.8-0.1,2.8s-0.3,0.7-1.6,0.9c-1.2,0.2-2.1,0-2.1,0s-1.2,1.2-2.7,2.1
				c-1.5,0.9-4.9,1.6-5.8,1.5c-1.5-0.2-2.3-1.2-2.2-1.8c0.1-0.6,1.9-2.4,3.3-3.1c0.9-0.5,3-2.2,3.7-2.7c1-1,1.8-2,1.8-2H452.8z"/>
			<path class="st4" d="M474.8,169.2c0,0,0.8,2.5,0.7,3.9c-0.1,1.4-0.5,1.8-1,2.3s-1.1,0.3-1.1,0.3s-0.2,3-1.9,4.2
				c-1.7,1.2-4.7,1.3-6,0.9c-1.4-0.4-0.5-2.6,0.9-4.7c1.4-2.1,3.1-4.3,3.5-6.2C473.1,169.5,474.8,169.2,474.8,169.2z"/>
			<path class="st5" d="M470.1,113.5c0,0,2.1,2.5,3.8,7c1.2,3.1,1,10.6,1,10.6s0.3,7.4-0.3,9.9c-0.6,2.6-0.5,3.1-0.5,3.1
				s2.4,6.1,2,13.4c-0.4,7.2-1.1,12.4-1.1,12.4s-0.5,1.4-2.7,1.6c-2,0.2-3.4-1-3.4-1s-3.6-15.3-5-18.8c-1.3-3.5-1.8-7.5-1.8-7.5
				l-2.8-17.2c0,0-5.5-3-2.7-10.7C458.5,111.4,470.1,113.5,470.1,113.5z"/>
			<path class="st6" d="M477.2,93.9c-2.7-4.6-10.8-7.9-16.7-7.2c-2.8,1.9-4.1,3.2-5.1,5.4c-0.9,2.1-1.3,4.5-1,6.7
				c0.9,6.5-0.9,12.8-1.6,15.2c3.1,2.8,7.2,4.6,11.7,5.2c2.5,0.4,4.3-0.4,6.7-1.2c0.4-0.1,0.5-0.3,0.6-0.6c0.8-5.2,2.9-9.6,5-14.5
				C478,100.4,478.7,96.5,477.2,93.9z"/>
			<path class="st7" d="M462.2,83.9c0,0,0.6,3.2-0.8,4.2c-1.4,1.1-1.4,3.3,1.3,4.1c3.3,0.9,5.6-1.1,7.7-2.5
				c-0.9-1.6-1.3-1.6-1.3-6.1C469.1,80,462.2,83.9,462.2,83.9z"/>
			<path class="st3" d="M480.4,97.1c-0.2-4-5.3-5.6-5.3-5.6s-3.6,2.5-3.1,11c0.2,0.8,1.6,1.5,2,2.3c-0.2,3.3,0.7,4.9,2.1,6.5
				c-1.3,0.7-4.3,4.9-6.1,6.9c2.7,0.7,2.6,3.2,2.6,3.2s6.9-2.7,10.4-6.3c1.4-1.5,0.9-2.9,1.5-4.5
				C485.7,107.4,480.6,100.6,480.4,97.1z"/>
			<path class="st3" d="M469.2,86.6c0,0-0.6,1.9-2.3,3c-2.1,1.3-5.9,1.5-5.9,2.4c1.1,0,1.3,0.1,1.3,0.7c0,1.3,0.4,1.6,0.4,1.6
				s2.8-0.7,4.8-1.4c2.5-0.9,3.7-3.9,3.7-3.9S470.7,86.5,469.2,86.6z"/>
			<path class="st3" d="M461,86.7c0,0-1.6,1.5-2.3,2.2c-0.7,0.7-0.3,2-0.6,2.6c-0.3,0.6-0.5,1-0.5,1s1.5-0.3,1.7-1
				c0.3-0.7,1.7,0.6,1.7,0.6l1-0.7c0,0-1.6-0.8-1-1.8c0.5-0.9,1.4-2.1,1.4-2.1L461,86.7z"/>
			<g>
				<path class="st8" d="M468.2,76.1c-2-1.9-7.4-2.7-9.3,0.1c-1.4,2.1-1.5,5.9-1.1,7.6c0.8,3.6,4.3,5.8,8.4,3
					C470,84.2,471.7,79.4,468.2,76.1z"/>
				<path class="st4" d="M472.6,78.5c-0.3-1.2-2.2-2.9-4-2.5c0.3-1.3-0.4-2.9-2.1-3.4c-3.5-0.9-6.7,1-10.1,1.6
					c-1,0.2-1.2,0.6,0.4,1.5c-0.9,0.1-1.8,0.5-1.6,1.4c0.1,0.6,0.6,0.9,1.2,1.1c-0.9,1.2,0.4,2.1,1.7,2.6c2.1,0.7,5.1,0.7,7-0.5
					c0.4,1.7,2.2,3.9,4,4.3C470.9,83.4,473.1,80.3,472.6,78.5z"/>
				<path class="st8" d="M466.1,82.6c0,0,1.2-1.5,2.2-0.4c1,1.2-1.1,2.3-1.1,2.3L466.1,82.6z"/>
			</g>
			<path class="st8" d="M470,118.2c-1.6,0.4-3.4,3.3-2.2,5.3c1.2,2,3.3,2.2,5.8,1.7s1.1-1.3,0.5-1.5c-0.9-0.2-1.8,0-1.8,0
				s0.8-1.8,0.8-2.9C473.1,119.4,471.8,117.7,470,118.2z"/>
			<path class="st8" d="M443.5,100.5c0,0-3.4-3.8-5-5.7c-1.1-1.3-2.1-1.3-2.1-0.6c0,0.3,0.3,0.6,0.8,1.3c0.5,0.7,1.3,1.7,1.3,1.7
				s-1,2-1.7,3s0.8,1.6,1.5,2.1s2.5,1.4,3.9,1.7C443.6,104.2,444.7,102.5,443.5,100.5z"/>
			<path class="st9" d="M459.1,114.5c0.4,0,2.6,1.6,4.9,1.8c2.6,0.3,3.8-0.2,4.7-0.6c-0.6,0-2.3,0.2-4.6-0.3
				S459.1,114.5,459.1,114.5z"/>
		</g>
		<g>
			<path class="st10" d="M514.7,176.9c-2.6-1.5-5.4-2.9-8.1-4.3c-1.5-0.8-3.2-2.1-4.9-2.6c-0.7-0.2-1.5-0.2-2,0.4
				c-0.5,0.7,0.1,1.2,0.8,1.5c1.9,0.9,3.8,1.8,5.7,2.7c2.8,1.4,5.6,2.8,8.4,4.3L514.7,176.9z"/>
			<path class="st10" d="M497.5,171.9c-0.4-0.6-1.2-0.7-1.9-0.5c-1.8,0.4-3.5,1.6-5.1,2.3c-3.5,1.6-7.2,3.2-10.6,5v1.9
				c3.6-1.7,7.2-3.3,10.9-4.8c2-0.8,3.9-1.6,5.9-2.4C497.3,173.1,498,172.7,497.5,171.9z"/>
			<path class="st10" d="M500.5,155.9c0-2.5,0.6-13.1,1-15.8c0.4-2.5,1-5,1.5-7.5c0.3-1.5,2.6-9.3-0.3-8.1c-1.1,0.5-1.7,2-2.2,3.4
				c-0.6,2.1-1.1,4.5-1.4,6.8c-0.7,5-1.2,15.7-0.7,20.8C498.5,155.9,500.5,155.9,500.5,155.9z"/>
			<path class="st11" d="M516.4,148.4c0.3-1.9,0.8-3.8,1.3-5.7c0.5-2.2,1.1-4.4,2.2-6.4c0.1-0.3,0.3-0.6,0.5-0.9
				c-1-0.6-8.7-4.6-12-6.1c-4.4-1.9-5.4-2.4-5.7-1.8c-2,3.3-3.1,8.9-3.2,12.6c0,0.4,0,1,2.5,2c4.9,2.1,13.5,6.8,14.4,7.1
				C516.4,149.1,516.4,148.6,516.4,148.4z"/>
			<path class="st12" d="M519.2,136.2c-0.2-1.2-16.7-8.9-18-8.7c-2.2,0.3-4.6,9.5-2.4,11.4c2,1.8,14.2,7.8,17.3,8.8
				c0.2,0.1,0.5-0.1,0.6-0.3c0.6-2,1.1-4.1,1.6-6.1C518.6,139.8,519.4,137.8,519.2,136.2z"/>
			<path class="st13" d="M517.4,135c-1.6-1.3-3.1,3.4-3.2,4.1c-0.6,2.2-2,6.9,0.9,8.4c0.6,0.3,1,0.3,1.4-0.2
				c0.5-0.7,0.4-1.8,0.6-2.5c0.2-1,0.4-2,0.6-3.1c0.3-1.7,1-3.6,1-5.3C518.6,135.7,518.1,135.1,517.4,135z"/>
			<path class="st3" d="M514.6,164.2h2l0.2-0.8c0-2.2,1.1-12.3,1.6-15c0.4-2.5,1-5,1.5-7.5c0.3-1.5,2.6-9.3-0.3-8.1
				c-1.1,0.5-1.7,2-2.2,3.4c-0.6,2.1-1.1,4.5-1.4,6.8c-0.7,5-2,14.4-1.4,19.5C514.7,162.9,514.6,163.9,514.6,164.2z"/>
			<path class="st3" d="M517.5,177.2c-0.2-4.9-0.7-9.8-1.3-14.6c0-0.2-0.2-0.3-0.3-0.2c-0.4,0.3-0.9,0.6-1.3,0.8
				c-0.1,0-0.1,0.1-0.1,0.1c-0.1-0.2-0.3-0.2-0.3,0.1c-0.4,5.1-0.5,10.3-0.7,15.4c-0.1,2.3-1.1,6.2,2.4,6.1
				C518.5,185,517.6,179.4,517.5,177.2z"/>
			<path class="st3" d="M477.8,178.7c0.2-4.9,0.7-9.8,1.3-14.6c0-0.2,0.2-0.3,0.3-0.2c0.4,0.3,0.9,0.6,1.3,0.8
				c0.1,0,0.1,0.1,0.1,0.1c0.1-0.2,0.3-0.2,0.3,0.1c0.4,5.1,0.5,10.3,0.7,15.4c0.1,2.3,1.1,6.2-2.4,6.1
				C476.8,186.5,477.7,181,477.8,178.7z"/>
			<path class="st10" d="M515.3,179.3c-0.4-0.6-1.2-0.7-1.9-0.5c-1.8,0.4-3.5,1.6-5.1,2.3c-3.5,1.6-7.2,3.2-10.6,5v1.9
				c3.6-1.7,7.2-3.3,10.9-4.8c2-0.8,3.9-1.6,5.9-2.4C515.1,180.5,515.7,180.1,515.3,179.3z"/>
			<path class="st10" d="M495.3,185.9c-2.6-1.5-5.4-2.9-8.1-4.3c-1.5-0.8-3.2-2.1-4.9-2.6c-0.7-0.2-1.5-0.2-2,0.4
				c-0.5,0.7,0.1,1.2,0.8,1.5c1.9,0.9,3.8,1.8,5.7,2.7c2.8,1.4,5.6,2.8,8.4,4.3L495.3,185.9z"/>
			<path class="st3" d="M497.7,172.6l-2.3-1.6c-0.4,5.1-1,12.1-1.2,17.2c-0.1,2.3-1.1,6.2,2.4,6.1c2.7,0,1.8-5.5,1.7-7.8
				C498.1,181.9,498.3,177.2,497.7,172.6z"/>
			<g>
				<path class="st10" d="M517,162.2h-2l-12.5-6.2c-1.7-0.8-4.6-0.7-6.5,0.2l-14.6,7.1l-2.8,0.2v2c0,0.1,0,0.2,0,0.2v0.2l0,0
					c0.1,0.4,0.5,0.8,1.1,1.1l13.4,6.6c1.7,0.8,4.6,0.7,6.5-0.2l15.7-7.7c1.1-0.6,1.6-1.3,1.6-1.9l0,0
					C517,163.8,517,162.4,517,162.2z"/>
				<path class="st11" d="M493.1,171.6l-13.4-6.6c-1.7-0.8-1.5-2.3,0.5-3.2l15.8-7.7c1.9-0.9,4.9-1.1,6.5-0.2l13.4,6.6
					c1.7,0.8,1.5,2.3-0.5,3.2l-15.7,7.7C497.8,172.3,494.8,172.4,493.1,171.6z"/>
			</g>
			<g>
				<path class="st12" d="M488.3,165.7c3.1,1.4,6.6,3.8,10.3,2.7c3.2-0.9,6.3-2.8,9.2-4.3c2-1,3.9-2.1,5.3-3.6
					c-1-1.2-2.8-2.2-3.9-2.9c-3.1-1.9-11.2-5.3-12.2-5.2c-0.5,0-1,0.1-1.5,0.2c-2,0.4-4.1,1.4-5.8,2c-2.6,1-5,2.2-7.2,3.7
					c-0.7,0.5-1.6,1.1-2.1,1.7C480.6,163,485.8,164.5,488.3,165.7z"/>
				<path class="st13" d="M480.5,164c1.9,1.2,5.5,2.5,7.2,3.4c1.9,1,5.6,3.2,7.6,3.6c1.3,0.3,3.6-0.3,5.2-0.9c2.3-1,4.6-2.2,6.8-3.3
					c1.8-0.9,4.5-1.7,5.9-3.2c1-1.1,0.7-2.1,0-3c-1.5,1.4-3.4,2.5-5.3,3.6c-2.9,1.5-5.9,3.5-9.2,4.3c-3.7,1-7.2-1.3-10.3-2.7
					c-2.5-1.1-7.7-2.7-7.9-5.6c-0.1,0.1-0.1,0.2-0.2,0.2C479.8,161.2,479.5,163.4,480.5,164z"/>
			</g>
			<path class="st14" d="M496.5,161.4c-0.5-1.6,0.3-2.8,0.5-4.3c0.7-4.5-8.7-0.6-9.7,0.1c-1.1,0.8-3.7,2.2-3.7,3.7
				c0.1,1.5,3.1,2.7,4.4,3.2c2,0.9,4.8,2.2,7.1,2.2c1.4,0,2.6-1.1,2.5-2.4C497.6,163,496.7,162.2,496.5,161.4z"/>
			<path class="st14" d="M506,129.8c-1.7-0.9-4.4-2.2-5.3-1.7c-0.8,0.4,0.9,1,1.6,1.5c1.4,0.8,2.9,1.5,4.4,2.2
				c2.7,1.2,4.9,2.2,7.8,3.1c0.9,0.3,1.5-0.3,0.7-0.7C513.1,133.1,508.8,131.2,506,129.8z"/>
		</g>
		<g>
			<path class="st10" d="M343.2,161.7c2.6-1.5,5.4-2.9,8.1-4.3c1.5-0.8,3.2-2.1,4.9-2.6c0.7-0.2,1.5-0.2,2,0.4
				c0.5,0.7-0.1,1.2-0.8,1.5c-1.9,0.9-3.8,1.8-5.7,2.7c-2.8,1.4-5.6,2.8-8.4,4.3L343.2,161.7z"/>
			<path class="st10" d="M360.4,156.8c0.4-0.6,1.2-0.7,1.9-0.5c1.8,0.4,3.5,1.6,5.1,2.3c3.5,1.6,7.2,3.2,10.6,5v1.9
				c-3.6-1.7-7.2-3.3-10.9-4.8c-2-0.8-3.9-1.6-5.9-2.4C360.6,158,360,157.6,360.4,156.8z"/>
			<path class="st10" d="M357.4,140.7c0-2.5-0.6-13.1-1-15.8c-0.4-2.5-1-5-1.5-7.5c-0.3-1.5-2.6-9.3,0.3-8.1c1.1,0.5,1.7,2,2.2,3.4
				c0.6,2.1,1.1,4.5,1.4,6.8c0.7,5,1.2,15.7,0.7,20.8C359.4,140.8,357.4,140.8,357.4,140.7z"/>
			<path class="st11" d="M341.5,133.3c-0.3-1.9-0.8-3.8-1.3-5.7c-0.5-2.2-1.1-4.4-2.2-6.4c-0.1-0.3-0.3-0.6-0.5-0.9
				c1-0.6,8.7-4.6,12-6.1c4.4-1.9,5.4-2.4,5.7-1.8c2,3.3,3.1,8.9,3.2,12.6c0,0.4,0,1-2.5,2c-4.9,2.1-13.5,6.8-14.4,7.1
				C341.6,134,341.5,133.4,341.5,133.3z"/>
			<path class="st12" d="M338.7,121.1c0.2-1.2,16.7-8.9,18-8.7c2.2,0.3,4.6,9.5,2.4,11.4c-2,1.8-14.2,7.8-17.3,8.8
				c-0.2,0.1-0.5-0.1-0.6-0.3c-0.6-2-1.1-4.1-1.6-6.1C339.3,124.7,338.5,122.7,338.7,121.1z"/>
			<path class="st13" d="M340.5,119.9c1.6-1.3,3.1,3.4,3.2,4.1c0.6,2.2,2,6.9-0.9,8.4c-0.6,0.3-1,0.3-1.4-0.2
				c-0.5-0.7-0.4-1.8-0.6-2.5c-0.2-1-0.4-2-0.6-3.1c-0.3-1.7-1-3.6-1-5.3C339.4,120.5,339.8,120,340.5,119.9z"/>
			<path class="st3" d="M343.3,149.1h-2l-0.2-0.8c0-2.2-1.1-12.3-1.6-15c-0.4-2.5-1-5-1.5-7.5c-0.3-1.5-2.6-9.3,0.3-8.1
				c1.1,0.5,1.7,2,2.2,3.4c0.6,2.1,1.1,4.5,1.4,6.8c0.7,5,2,14.4,1.4,19.5C343.3,147.8,343.3,148.8,343.3,149.1z"/>
			<path class="st3" d="M340.5,162c0.2-4.9,0.7-9.8,1.3-14.6c0-0.2,0.2-0.3,0.3-0.2c0.4,0.3,0.9,0.6,1.3,0.8c0.1,0,0.1,0.1,0.1,0.1
				c0.1-0.2,0.3-0.2,0.3,0.1c0.4,5.1,0.5,10.3,0.7,15.4c0.1,2.3,1.1,6.2-2.4,6.1C339.4,169.8,340.4,164.3,340.5,162z"/>
			<path class="st3" d="M380.1,163.6c-0.2-4.9-0.7-9.8-1.3-14.6c0-0.2-0.2-0.3-0.3-0.2c-0.4,0.3-0.9,0.6-1.3,0.8
				c-0.1,0-0.1,0.1-0.1,0.1c-0.1-0.2-0.3-0.2-0.3,0.1c-0.4,5.1-0.5,10.3-0.7,15.4c-0.1,2.3-1.1,6.2,2.4,6.1
				C381.1,171.4,380.2,165.9,380.1,163.6z"/>
			<path class="st10" d="M342.7,164.2c0.4-0.6,1.2-0.7,1.9-0.5c1.8,0.4,3.5,1.6,5.1,2.3c3.5,1.6,7.2,3.2,10.6,5v1.9
				c-3.6-1.7-7.2-3.3-10.9-4.8c-2-0.8-3.9-1.6-5.9-2.4C342.8,165.3,342.2,165,342.7,164.2z"/>
			<path class="st10" d="M362.7,170.8c2.6-1.5,5.4-2.9,8.1-4.3c1.5-0.8,3.2-2.1,4.9-2.6c0.7-0.2,1.5-0.2,2,0.4
				c0.5,0.7-0.1,1.2-0.8,1.5c-1.9,0.9-3.8,1.8-5.7,2.7c-2.8,1.4-5.6,2.8-8.4,4.3L362.7,170.8z"/>
			<path class="st3" d="M360.3,157.5l2.3-1.6c0.4,5.1,1,12.1,1.2,17.2c0.1,2.3,1.1,6.2-2.4,6.1c-2.7,0-1.8-5.5-1.7-7.8
				C359.8,166.8,359.6,162,360.3,157.5z"/>
			<g>
				<path class="st10" d="M340.9,147h2l12.5-6.2c1.7-0.8,4.6-0.7,6.5,0.2l14.6,7.1l2.8,0.2v2c0,0.1,0,0.2,0,0.2v0.2l0,0
					c-0.1,0.4-0.5,0.8-1.1,1.1l-13.4,6.6c-1.7,0.8-4.6,0.7-6.5-0.2l-15.7-7.7c-1.1-0.6-1.6-1.3-1.6-1.9l0,0
					C340.9,148.7,341,147.2,340.9,147z"/>
				<path class="st11" d="M364.8,156.5l13.4-6.6c1.7-0.8,1.5-2.3-0.5-3.2L362,139c-1.9-0.9-4.9-1.1-6.5-0.2l-13.4,6.6
					c-1.7,0.8-1.5,2.3,0.5,3.2l15.7,7.7C360.2,157.2,363.1,157.3,364.8,156.5z"/>
			</g>
			<g>
				<path class="st12" d="M369.6,150.6c-3.1,1.4-6.6,3.8-10.3,2.7c-3.2-0.9-6.3-2.8-9.2-4.3c-2-1-3.9-2.1-5.3-3.6
					c1-1.2,2.8-2.2,3.9-2.9c3.1-1.9,11.2-5.3,12.2-5.2c0.5,0,1,0.1,1.5,0.2c2,0.4,4.1,1.4,5.8,2c2.6,1,5,2.2,7.2,3.7
					c0.7,0.5,1.6,1.1,2.1,1.7C377.3,147.8,372.1,149.4,369.6,150.6z"/>
				<path class="st13" d="M377.4,148.9c-1.9,1.2-5.5,2.5-7.2,3.4c-1.9,1-5.6,3.2-7.6,3.6c-1.3,0.3-3.6-0.3-5.2-0.9
					c-2.3-1-4.6-2.2-6.8-3.3c-1.8-0.9-4.5-1.7-5.9-3.2c-1-1.1-0.7-2.1,0-3c1.5,1.4,3.4,2.5,5.3,3.6c2.9,1.5,5.9,3.5,9.2,4.3
					c3.7,1,7.2-1.3,10.3-2.7c2.5-1.1,7.7-2.7,7.9-5.6c0.1,0.1,0.1,0.2,0.2,0.2C378.1,146.1,378.4,148.2,377.4,148.9z"/>
			</g>
			<path class="st14" d="M361.4,146.3c0.5-1.6-0.3-2.8-0.5-4.3c-0.7-4.5,8.7-0.6,9.7,0.1c1.1,0.8,3.7,2.2,3.7,3.7
				c-0.1,1.5-3.1,2.7-4.4,3.2c-2,0.9-4.8,2.2-7.1,2.2c-1.4,0-2.6-1.1-2.5-2.4C360.3,147.9,361.2,147.1,361.4,146.3z"/>
			<path class="st14" d="M351.9,114.7c1.7-0.9,4.4-2.2,5.3-1.7c0.8,0.4-0.9,1-1.6,1.5c-1.4,0.8-2.9,1.5-4.4,2.2
				c-2.7,1.2-4.9,2.2-7.8,3.1c-0.9,0.3-1.5-0.3-0.7-0.7C344.8,118,349.1,116.1,351.9,114.7z"/>
		</g>
		<g>
			<path class="st15" d="M489.8,126.3c0,0-3.1,2.3-5,5.6c-1.1,2-3.6,4.7-5.1,6.5c-0.9-0.8-5-4.6-6.9-6.5c-1.8-1.8-3-1.5-4.7-1.8
				c-1.8-0.3-1.6-1.7-3.4-1.8c-1.8-0.1-1.5,0.7,0,2.4c0.9,1.1,2.2,2,3,2.2c1.7,0.4,3.4,0.3,3.9,1.6c0.3,0.8,3.3,6.5,4.8,7.4
				c2,1.2,2.1,1.5,3.6,1.5c1.1-0.1,2-1,2.5-1.5c1.5-1.4,3.3-2.9,4.6-4.5c1.8-2.2,5.5-8,5.6-8.2C492.7,129.2,489.8,126.3,489.8,126.3
				z"/>
			<path class="st16" d="M490.1,125.9c0,0-1.9,0.4-3.6,2c-1.7,1.7-5.1,6.7-5.1,6.7s1.6,2.1,2.3,2.5c0.8,0.4,2.7,1.4,2.7,1.4l6.6-8.4
				L490.1,125.9z"/>
			<path class="st17" d="M473.5,180.3c-0.9,0.9-1.9,1.8-2.9,2.7c-1.3,1.1-2.8,2.3-4.1,3.4c-1.7,1.3-1.8,2.8,0.9,2.7
				c4.4-0.2,5.5-1.8,7.5-3.1c0.3-0.2,0.8,0.3,1.9-0.1c1.4-0.5,1.6-0.7,1.6-1.9c0-0.8-0.1-2.4-0.6-3.2l0,0
				C478.2,180.4,474.7,179.1,473.5,180.3z"/>
			<path class="st17" d="M482.1,188.5c-0.9,0.9-1.9,1.8-2.9,2.7c-1.3,1.1-2.8,2.3-4.1,3.4c-1.7,1.3-1.8,2.8,0.9,2.7
				c4.4-0.2,5.5-1.8,7.5-3.1c0.3-0.2,0.8,0.3,1.9-0.1c1.4-0.5,1.6-0.7,1.6-1.9c0-0.8-0.1-2.4-0.6-3.2l0,0
				C486.7,188.6,483.3,187.3,482.1,188.5z"/>
			<path class="st4" d="M500.7,151.8c-0.4-0.7-8.9-3.1-8.7-3c-6.8,2.2-15.1,4.6-20.8,8.8c-1.1,0.1-2.1,0.4-2.1,2.1
				c0,1.3,0.9,3.5,1.2,4.8c0.9,4.5,2,11.8,2.4,16.4c0.9,1.4,3.6,1.4,5.3,0.3c0.5-3.3,0.7-7.7,1.4-10.3c0.9-3.5-0.6-5.1-1.8-7
				c3.4,0.1,10.6-3.1,13.9-3.9c3.9-0.9,5-1,8-3.5C501.4,154.9,502.1,154.3,500.7,151.8z"/>
			<path class="st4" d="M500.4,152.3c-2.1,0-4.5,0.2-6.5-0.4c-0.2,0.3-0.4,0.5-0.6,0.8c-0.8,1.3-1.5,2.3-0.9,3.8
				c-1,1.2-5.6,6.1-6.5,7.6c-1.1,0.9-1.6,1.4-1.5,3.5c0.2,2.4,0,3.4-0.3,6.1c-0.6,5-1.7,9.3-2.1,14.3c1.4,1.8,3.2,1.9,5,0.5
				c1.8-4.7,5.2-8,5.6-12.1c0.2-2.7,0.3-4.8-1.1-6.5c5.8-2.7,13.3-4.3,16.5-9.5c2.1-3.4,1.1-5.9-1.1-9.3
				C505,152.1,502.8,152.3,500.4,152.3z"/>
			<path class="st18" d="M489,128.1c2.4-2.6,1.4-1.8,4.3-0.4c3.5,1.7,6.4,2.8,8,3.9c2.6,1.9,4.2,5.7,4.6,10.5c0.1,0.7,0.6,3.2,0.9,4
				c1.1,2.6,0.6,3.1-0.2,3.7c1.1,0,1.7,1.4,0.8,1.9c-5.4,3.2-15.8,3.3-17.3-2.1c-0.1-0.3,0.3-1.4,0.6-1.7c-0.7-0.3-1-1.4-1-2.2
				c-1.2-0.6-1.5-1.4-1.8-2.9c-2.4-0.5-5-2.8-3.8-5.2c0.9-2,1.3-3.7,1.9-5C487.6,129.6,488.3,128.9,489,128.1z"/>
			<path class="st15" d="M490,129.6c0.7-0.1,2.4-0.9,1.9-3.6c-0.1-0.8,3.9-2.8,3.9-2.7c0,2.5,0.7,5.2,2,6.5
				c-1.9,1.7-3.7,5.6-7.1,4.2C489.1,133.3,488.7,132.7,490,129.6z"/>
			<path class="st16" d="M488.9,127.7c0,0-1.3,3-1.7,4c-0.4,1-1.3,2.9-1.3,2.9s1.2-0.5,1.9-0.2c0.6,0.3,1.5,1.1,2.1,1.3
				c0.5,0.1,1.3,0,1.3,0l0.4-1.3c0,0-1.1-0.3-1.1-1.9c0-1.6,0.3-3.8,0.3-3.8L488.9,127.7z"/>
			<path class="st16" d="M496.3,127.2c0,0,0,1-1.1,2.5c-1,1.5-3.4,3.2-4.5,4c-1.6,1.1-0.7,3.1-0.7,3.1s0.6-1.1,1.3-0.9
				c0.7,0.2,1.1,0.8,2,1.4c0.7-0.9,1-1.6,2.5-2.8c1.2-1,3.4-3.1,2.8-4.9C498.2,127.6,496.3,127.2,496.3,127.2z"/>
			<path class="st4" d="M486.6,123.6c0-0.1-0.1-0.1-0.1-0.1s0.1,0,0.1-0.1v-0.1c-0.1,0-0.2,0.1-0.3,0.1c-0.1,0-0.1,0-0.2,0.1
				c-1.7,0.6-3.2,2.4-2.6,3.9c0.3,0.7,1,1,1.8,0.8l0,0c-0.6,1.6,0.1,3.5,2.4,2.8c1.5-0.5,1.9-2.1,1.8-3.3
				C489.5,125.9,487.5,125.1,486.6,123.6z"/>
			<path class="st8" d="M487.1,119.8c2.8-0.5,4.2-0.6,6.6,0.2c1.4,0.3,2.7,0.8,3.9,1.5c0.1,0.1,0.2,0.2,0.2,0.3
				c-0.6,3.1-1.8,6.4-5.9,7.8c-3.3,1.1-5.2-2-5.8-4.1C485.4,123.1,485.2,120.2,487.1,119.8z"/>
			<path class="st8" d="M493.5,124.7c0,0,0.7-1.9,2.1-0.9c1.5,1-0.6,2.9-0.6,2.9L493.5,124.7z"/>
			<path class="st19" d="M496.6,148.3c0,0,3.3-0.9,5.1-0.7c1.8,0.2,3.3,0.7,3.3,0.7s-2.5,0.3-4.2,0.4
				C499.1,148.8,496.6,148.3,496.6,148.3z"/>
			<path class="st19" d="M495.7,150.6c0.2,0,3.9-0.1,5.9-0.2c2-0.1,2.8-0.2,2.8-0.2s-1.6,1.1-3.9,1.1
				C498.1,151.2,495.7,150.6,495.7,150.6z"/>
			<path class="st15" d="M469.6,131.2c0,0-0.7-1-1.3-2.1c-0.4-0.8-0.2-1.5,0.2-1.6c0.5-0.1,0.5,0.8,1,1.3c0.5,0.4,2.6,1.9,2.3,2.7
				C471.5,132.2,469.6,131.2,469.6,131.2z"/>
			<path class="st8" d="M505.7,140.4c-0.9-2-5.7,0.4-5.7,0.4s0,1.8,0,3.5c0,1.7,0.2,6,0.2,6s-5.5,7.1-6.1,7.8
				c-0.2,0.2-1.5,0-2.3,0.5c-1.1,0.6-1.2,1.1-1.7,1.4c-1.2,0.6-1.2,1.2-0.3,1.1c0.9,0,1.7-0.8,1.9-0.8c0.4,0,0.2,0.7-0.4,1.7
				c-0.5,0.9-1.9,2.2-1.2,3.1c0.7,0.9,2.3,0.3,4-1.1c1.3-1.1,1.5-2.8,2.3-4.3c0.5-0.8,6.4-6.1,7.5-6.8c0.8-0.6,1-0.8,1.1-1.2
				c0.3-0.9,0.5-1.4,0.5-2.6C505.3,147.3,506.6,142.4,505.7,140.4z"/>
			<g>
				<path class="st16" d="M501.6,133.2c-1.8,0.6-2.6,2.7-2.7,5.5c-0.1,2.7,0,6.6,0,6.6s1.8,1,4.3,1c2.6,0,3.8-1.2,3.8-1.2
					s-0.4-7.5-1.3-9.7C504.7,133.3,503.1,132.7,501.6,133.2z"/>
			</g>
			<path class="st4" d="M502.4,123.8c-0.2-0.8-1-1.8-2-2.3c0.3-0.5,0.2-1.2-0.1-1.7c-0.5-0.8-2.1-2-3.5-2c0.3-0.5,0.5-1.2,0.3-1.8
				c-0.3-0.7-1.1-1-1.9-1.1c-1.2-0.2-2.5,0-3.3,0.7c-0.4-0.7-1.6-1.3-2.5-0.9c-0.4,0.2-0.7,0.5-0.8,0.9c-0.6-0.4-1.5-0.6-2.1,0.1
				c-0.3,0.3-0.3,0.7,0,1c-1.3-0.1-2.9,0.2-3.2,1.2c-0.2,0.6,0.1,1.1,0.6,1.4c-1,0.6-1.6,1.7-0.6,2.6c1.2,1.1,3.7,0.9,5-0.1
				c0.4,1.3,1.6,2.5,3.2,2.6c0.6,0.1,1.3-0.2,1.9-0.6c0.3,0.4,0.7,0.8,1.1,1.2c-0.5,0.7-0.8,1.6-0.7,2.4c0.1,0.6,0.5,1.3,1.1,1.7
				c-1.2,1-1.9,2.4-1.4,3.9c0.4,1.2,2.1,2.1,4.3,0.9c1.1-0.6,1.9-2.6,1.6-3.4c0.8,0.2,1.9-0.3,2.1-1.1c0.2-0.7-0.1-1.5-0.6-2.2
				C502.2,126.9,502.7,125,502.4,123.8z"/>
		</g>
		<g>
			<path class="st15" d="M427.4,118.9c-0.8-0.7-1.9,0.2-3.4,0.5c-1.5,0.2-2.5-0.1-2.5-0.1s0-0.4,1-0.5s1.5-1.4,0.8-1.3
				c-0.6,0.1-1.3,0.2-2.6,0.5c-0.9,0.2-2,0.9-2.9,1.2c-2.1-1.1-5.8-2.2-7.9-3.7c-0.9-1.5-3.8-6.1-4.9-9.6c-1.1-3.6-3.7-6.4-3.7-6.4
				s-3.6,2.3-3.5,2.6c0.1,0.2,2.5,6.6,3.7,9.1c1.3,2.5,3.2,6.5,4.5,8.3c1.2,0.4,8.9,2.1,11.2,2.6c2.1,0.7,4.7,0.8,6.9,0.3
				C426.8,121.8,428.2,119.6,427.4,118.9z"/>
			<path class="st9" d="M399.7,99.7c0,0,2.3-0.5,3.9,1.5s2.7,7.1,3,8.2c-0.7,0-2.6,0.8-3.8,1.4c-1.2,0.6-1.8,0.5-1.8,0.5l-6.4-10.1
				L399.7,99.7z"/>
			<path class="st11" d="M406.3,108.1c0,0-2.5,0.2-3.6,1.2c-1,1-1.2,1.4-1.2,1.4l0.8,1.1c0,0,1.1-1,2.2-1.6c1-0.6,2.3-0.7,2.3-0.7
				L406.3,108.1z"/>
			<path class="st5" d="M384.8,174c0.9,0.9,2,1.9,3,2.7c1.3,1.2,2.8,2.4,4.2,3.5c1.7,1.3,1.9,2.9-1,2.8c-4.6-0.2-5.7-1.9-7.8-3.2
				c-0.3-0.2-0.8,0.3-1.9-0.1c-1.5-0.5-1.6-0.7-1.6-2c0-0.8,0.2-2.4,0.6-3.3l0,0C380,174.2,383.6,172.8,384.8,174z"/>
			<path class="st5" d="M403.5,164.5c0.9,0.9,2,1.9,3,2.7c1.3,1.2,2.8,2.4,4.2,3.5c1.7,1.3,1.9,2.9-1,2.8c-4.6-0.2-5.7-1.9-7.8-3.2
				c-0.3-0.2-0.8,0.3-1.9-0.1c-1.5-0.5-1.6-0.7-1.6-2c0-0.8,0.2-2.4,0.6-3.3l0,0C398.7,164.7,402.3,163.3,403.5,164.5z"/>
			<path class="st19" d="M406.9,146.4c0-2.7-1.5-16.1-9.1-23.3c-0.7-0.8-3.3-1.1-3.4-1.1c-1.8-0.3-5,1.9-5.9,2.7
				c-1.6,1.5,1.9,11.2,3.5,14.1c2,3.5,4.1,6.1,6.3,8.8c-0.3,1.4-1,2.7-1.5,6.5c-0.7,4.8,1.9,11.2,1.9,11.2s2.9,1.2,4.7-0.7
				C404.6,159.2,405.6,154.5,406.9,146.4z"/>
			<path class="st18" d="M392.6,133.4c1.8-1.9,2.4-4.4,2.2-6.6c-0.1-1.2-0.2-2.4-1.7-2.7c-2.6-0.5-10.5-1.6-10.5-1.4
				c-4.6,4.5-4.8,11-4.4,16.8c0.4,5.6,3.8,10.4,5.4,15.7c-0.5,0.7-2.5,2.6-2.8,5.2c-0.5,4.9-0.4,11.3-0.5,14
				c1.3,1.5,4.3,0.5,4.8,0.2c1-3.4,3.5-10.4,6-17.2c1.4-3.8,2.3-6.7,3-12.8C394.5,140,393.8,137.3,392.6,133.4z"/>
			<path class="st6" d="M401.2,101.9c-2.5-2.7-3.7-2.9-6.6-1.4c-3.6,1.8-6.6,2.9-8.2,4c-2.7,1.9-4.3,5.9-4.7,10.9
				c-0.1,0.8-0.6,3.3-0.9,4.1c-1.1,2.7-0.6,3.2,0.2,3.8c-0.4,0.4-0.9,2,0.1,2.4c4.2,2.1,13.6,2.5,16.9-2.6c0.2-0.3-0.3-1.4-0.6-1.7
				c0.7-0.3,1.2-1.1,1.2-1.9c1.3-0.6,2.3-1.4,2.6-3c2.5-0.5,5.2-1.7,4.4-4.3c-0.4-1.3-2.4-4.2-2.8-5.7
				C402,103.9,401.9,102.6,401.2,101.9z"/>
			<path class="st15" d="M399.5,102.7c-0.7-0.1-2.5-0.9-1.9-3.7c0.2-0.8-4-2.9-4-2.8c0,2.6-0.4,5.5-1.8,6.8c2,1.8,4,6.4,7.4,5.8
				C401,108.5,400.9,106,399.5,102.7z"/>
			<path class="st20" d="M401,100.8c0,0,1.3,3.3,1.7,4.4c0.4,1.1,1.3,3.1,1.3,3.1s-1.3-0.5-2-0.2s-1.7,1.2-2.2,1.3
				c-0.6,0.1-1.3,0-1.3,0l-0.4-1.4c0,0,1.2-0.3,1.3-2c0-1.7-0.2-4.1-0.2-4.1L401,100.8z"/>
			<path class="st8" d="M403.1,92.4c-2.8-0.5-4.3-0.6-6.8,0.2c-1.4,0.3-2.8,0.9-4,1.6c-0.1,0.1-0.2,0.2-0.2,0.3
				c0.6,3.2,1.9,6.6,6.1,8c3.5,1.2,5.4-2.1,6-4.2C404.9,95.7,405.1,92.8,403.1,92.4z"/>
			<path class="st4" d="M389.5,89.9c1-3.2,3.4-4.8,5-3.4c0.3-1.5,2.1-2.5,3.1-1.4c0.8-1.7,2.9-1.2,4-0.5c2.2,1.4,6.8,6.9,3.4,9
				c-0.2,2.7-4,2.9-6.2,1.6c-1.2,0.9-3.5,0.9-4.2,0c-0.4,1.7-1,3.3-1.4,4.8C391.7,99.2,388,94.6,389.5,89.9z"/>
			<path class="st8" d="M395.5,97c0,0-0.7-2-2.2-1s0.6,3,0.6,3L395.5,97z"/>
			<path class="st9" d="M396,119.1c0,0-3.4-0.9-5.2-0.7c-1.8,0.2-3.4,0.7-3.4,0.7s2.6,0.3,4.3,0.4C393.4,119.5,396,119.1,396,119.1z
				"/>
			<path class="st9" d="M394.5,122.6c-0.2,0-4-0.1-6.1-0.2c-2-0.1-2.9-0.2-2.9-0.2s1.7,1.1,4.1,1.1
				C392.1,123.2,394.5,122.6,394.5,122.6z"/>
			<path class="st8" d="M386.9,115.4c0,0-0.7,3.6-1.2,7.4c2.3,4.2,4.7,8.3,4.7,8.3l-3.6,2.4c0,0-2.8-2.8-4.9-6.6
				c-1.2-2.2-2.3-2.2-2.1-4.2c0.4-4.2,0.9-9.1,0.9-9.1S384.8,113.6,386.9,115.4z"/>
			<path class="st9" d="M388.2,104.4c2.3,1.5,3,4.7,1.6,7.8c-1.3,3.1-3.2,5.2-3.2,5.2s-2.9-0.7-6.2-0.9c-0.9-3.7-0.9-7.4,0.9-9.9
				C383.1,104.1,386.6,103.3,388.2,104.4z"/>
			<path class="st20" d="M393.1,100c0,0,0,1.1,1,2.7s3,3.7,4.1,4.5c1.7,1.2,1,3.1,1,3.1s-0.6-1.2-1.4-1s-1.2,0.8-2.1,1.5
				c-0.7-0.9-1-1.7-2.5-3.1c-1.2-1.1-3.5-3.5-2.8-5.4C391.1,100.4,393.1,100,393.1,100z"/>
			<path class="st11" d="M387.2,116.7c0,0-1.4-0.8-3.5-1c-2.1-0.3-3.5,0-3.5,0l0.1,1.8c0,0,2.2-0.2,3.4,0c1.2,0.2,2.7,0.9,2.7,0.9
				L387.2,116.7z"/>
		</g>
		<g>
			<path class="st5" d="M355.3,167.5v47.3c0,0.5,1,1,2.2,1s2.2-0.4,2.2-1v-47.3H355.3z"/>
			<path class="st5" d="M483.5,167.5v47.3c0,0.5,1,1,2.2,1s2.2-0.4,2.2-1v-47.3H483.5z"/>
			<path class="st5" d="M417.6,185.3v47.3c0,0.5,1,1,2.2,1s2.2-0.4,2.2-1v-47.3H417.6z"/>
			<g>
				<path class="st10" d="M491.8,163.1c-3.8-16.1-33.8-28.6-70.2-28.6s-66.4,12.5-70.2,28.6H351v3.4c0,17.7,31.6,32,70.6,32
					s70.6-14.3,70.6-32v-3.4H491.8z"/>
			</g>
			<g>
				<path class="st3" d="M492,159.7c-3.8-16.1-33.9-28.7-70.4-28.7s-66.6,12.6-70.4,28.7h-0.4v3.5c0,17.7,31.7,32.1,70.8,32.1
					s70.8-14.4,70.8-32.1v-3.5H492z"/>
				<ellipse class="st11" cx="421.6" cy="159.7" rx="70.8" ry="32.1"/>
			</g>
		</g>
		<g>
			<polygon class="st21" points="407.9,147.7 420.7,141.4 400.8,131.6 388,137.9 			"/>
			<g>
				<path class="st5" d="M416.9,141c-3.1,1.4-6.1,2.8-9.2,4.2c-0.2,0.1,0,0.4,0.2,0.3c3-1.4,6.1-2.8,9.1-4.3
					C417.1,141.1,417,140.9,416.9,141z"/>
				<path class="st5" d="M415.5,140.2c-3.1,1.4-6.1,2.8-9.2,4.2c-0.2,0.1,0,0.4,0.2,0.3c3-1.4,6.1-2.8,9.1-4.3
					C415.7,140.3,415.6,140.1,415.5,140.2z"/>
				<path class="st5" d="M413.9,139.5c-3.1,1.4-6.1,2.8-9.2,4.2c-0.2,0.1,0,0.4,0.2,0.3c3-1.4,6.1-2.8,9.1-4.3
					C414.2,139.6,414,139.5,413.9,139.5z"/>
				<path class="st5" d="M412.5,138.8c-3.1,1.4-6.1,2.8-9.2,4.2c-0.2,0.1,0,0.4,0.2,0.3c3-1.4,6.1-2.8,9.1-4.3
					C412.8,138.9,412.7,138.7,412.5,138.8z"/>
				<path class="st5" d="M409.2,137.5c-3.1,1.4-6.1,2.8-9.2,4.2c-0.2,0.1,0,0.4,0.2,0.3c3-1.4,6.1-2.8,9.1-4.3
					C409.4,137.6,409.3,137.4,409.2,137.5z"/>
				<path class="st5" d="M407.8,136.7c-3.1,1.4-6.1,2.8-9.2,4.2c-0.2,0.1,0,0.4,0.2,0.3c3-1.4,6.1-2.8,9.1-4.3
					C408,136.9,407.9,136.7,407.8,136.7z"/>
				<path class="st5" d="M405.7,135.7c-3.1,1.4-6.1,2.8-9.2,4.2c-0.2,0.1,0,0.4,0.2,0.3c3-1.4,6.1-2.8,9.1-4.3
					C406,135.8,405.8,135.6,405.7,135.7z"/>
				<path class="st5" d="M404.3,134.9c-3.1,1.4-6.1,2.8-9.2,4.2c-0.2,0.1,0,0.4,0.2,0.3c3-1.4,6.1-2.8,9.1-4.3
					C404.6,135,404.5,134.9,404.3,134.9z"/>
				<path class="st5" d="M402.7,134.2c-3.1,1.4-6.1,2.8-9.2,4.2c-0.2,0.1,0,0.4,0.2,0.3c3-1.4,6.1-2.8,9.1-4.3
					C403,134.4,402.9,134.2,402.7,134.2z"/>
				<path class="st5" d="M401.4,133.5c-3.1,1.4-6.1,2.8-9.2,4.2c-0.2,0.1,0,0.4,0.2,0.3c3-1.4,6.1-2.8,9.1-4.3
					C401.6,133.6,401.5,133.4,401.4,133.5z"/>
			</g>
		</g>
		<path class="st8" d="M389.6,130.2l-4.3,1.6c0,0,2,2.3,3.5,3.6c1.5,1.3,3,1,5.7,2.4c2.8,1.5,4.1,0.5,3.3-2.2
			c-0.4-1.4-1.9-2.8-4.9-3.5C390.6,131.7,389.6,130.2,389.6,130.2z"/>
		<path class="st15" d="M481,139.1c-0.2-0.4-0.5-0.9-0.7-1.3c-0.2,0.2-0.4,0.5-0.6,0.7c-0.9-0.8-5-4.6-6.9-6.5
			c-1.8-1.8-3-1.5-4.7-1.8c-1.8-0.3-1.6-1.7-3.4-1.8s-1.5,0.7,0,2.4c0.9,1.1,2.2,2,3,2.2c1.7,0.4,3.4,0.3,3.9,1.6
			c0.3,0.8,3.3,6.5,4.8,7.4c2,1.2,2.1,1.5,3.6,1.5c1.1-0.1,2-1,2.4-1.4C481.9,141.1,481.5,140.1,481,139.1z"/>
		<g>
			<g>
				<g>
					<path class="st4" d="M402,172.4l0.5,0.5c0.2-0.2,0.4-0.3,0.7-0.5l7.8-3.8c1.8-0.9,4.4-1,6-0.2l12.4,6.1c0.1,0,0.2,0.1,0.2,0.1
						l0.6-0.6c0,0,0.6,1,0.1,2.1l0,0c-0.2,0.4-0.6,0.8-1.3,1.2l-7.8,3.8c-1.8,0.9-4.4,1-6,0.2l-12.4-6.1c-0.4-0.2-0.7-0.5-0.9-0.8
						l-0.1-0.1C401.4,173.4,402,172.4,402,172.4z"/>
					<path class="st22" d="M415.2,180.5l-12.4-6.1c-1.5-0.7-1.3-2.1,0.4-2.9l7.8-3.8c1.8-0.9,4.4-1,6-0.2l12.4,6.1
						c1.5,0.7,1.3,2.1-0.4,2.9l-7.8,3.8C419.4,181.1,416.8,181.2,415.2,180.5z"/>
				</g>
				<g>
					<g>
						<path class="st17" d="M414.7,168.3l-1-0.5c-0.1,0-0.3,0-0.4,0l-0.6,0.3c-0.1,0.1-0.1,0.1,0,0.2l1,0.5c0.1,0,0.3,0,0.4,0
							l0.6-0.3C414.7,168.5,414.8,168.4,414.7,168.3z"/>
						<path class="st17" d="M418.6,170.3l-3-1.5c-0.1,0-0.3,0-0.4,0l-0.6,0.3c-0.1,0.1-0.1,0.1,0,0.2l3,1.5c0.1,0,0.3,0,0.4,0
							l0.6-0.3C418.7,170.4,418.7,170.3,418.6,170.3z"/>
						<path class="st17" d="M420.5,171.2l-1-0.5c-0.1,0-0.3,0-0.4,0l-0.6,0.3c-0.1,0.1-0.1,0.1,0,0.2l1,0.5c0.1,0,0.3,0,0.4,0
							l0.6-0.3C420.6,171.4,420.6,171.3,420.5,171.2z"/>
						<path class="st17" d="M411.7,169.8l-1-0.5c-0.1,0-0.3,0-0.4,0l-0.6,0.3c-0.1,0.1-0.1,0.1,0,0.2l1,0.5c0.1,0,0.3,0,0.4,0
							l0.6-0.3C411.8,169.9,411.8,169.8,411.7,169.8z"/>
						<path class="st17" d="M413.6,170.7l-1-0.5c-0.1,0-0.3,0-0.4,0l-0.6,0.3c-0.1,0.1-0.1,0.1,0,0.2l1,0.5c0.1,0,0.3,0,0.4,0
							l0.6-0.3C413.7,170.9,413.7,170.8,413.6,170.7z"/>
						<path class="st17" d="M415.6,171.7l-1-0.5c-0.1,0-0.3,0-0.4,0l-0.6,0.3c-0.1,0.1-0.1,0.1,0,0.2l1,0.5c0.1,0,0.3,0,0.4,0
							l0.6-0.3C415.7,171.9,415.7,171.8,415.6,171.7z"/>
						<path class="st17" d="M417.6,172.7l-1-0.5c-0.1,0-0.3,0-0.4,0l-0.6,0.3c-0.1,0.1-0.1,0.1,0,0.2l1,0.5c0.1,0,0.3,0,0.4,0
							l0.6-0.3C417.7,172.8,417.7,172.7,417.6,172.7z"/>
						<path class="st17" d="M410.2,170.5l-1-0.5c-0.1,0-0.3,0-0.4,0l-0.6,0.3c-0.1,0.1-0.1,0.1,0,0.2l1,0.5c0.1,0,0.3,0,0.4,0
							l0.6-0.3C410.3,170.7,410.3,170.6,410.2,170.5z"/>
						<path class="st17" d="M412.2,171.5l-1-0.5c-0.1,0-0.3,0-0.4,0l-0.6,0.3c-0.1,0.1-0.1,0.1,0,0.2l1,0.5c0.1,0,0.3,0,0.4,0
							l0.6-0.3C412.2,171.6,412.3,171.5,412.2,171.5z"/>
						<path class="st17" d="M414.2,172.5l-1-0.5c-0.1,0-0.3,0-0.4,0l-0.6,0.3c-0.1,0.1-0.1,0.1,0,0.2l1,0.5c0.1,0,0.3,0,0.4,0
							l0.6-0.3C414.2,172.6,414.3,172.5,414.2,172.5z"/>
						<path class="st17" d="M416.1,173.4l-1-0.5c-0.1,0-0.3,0-0.4,0l-0.6,0.3c-0.1,0.1-0.1,0.1,0,0.2l1,0.5c0.1,0,0.3,0,0.4,0
							l0.6-0.3C416.2,173.5,416.2,173.5,416.1,173.4z"/>
						<path class="st17" d="M408.3,171.4l-1-0.5c-0.1,0-0.3,0-0.4,0l-0.6,0.3c-0.1,0.1-0.1,0.1,0,0.2l1,0.5c0.1,0,0.3,0,0.4,0
							l0.6-0.3C408.4,171.6,408.4,171.5,408.3,171.4z"/>
						<path class="st17" d="M410.3,172.4l-1-0.5c-0.1,0-0.3,0-0.4,0l-0.6,0.3c-0.1,0.1-0.1,0.1,0,0.2l1,0.5c0.1,0,0.3,0,0.4,0
							l0.6-0.3C410.4,172.5,410.4,172.4,410.3,172.4z"/>
						<path class="st17" d="M412.3,173.4l-1-0.5c-0.1,0-0.3,0-0.4,0l-0.6,0.3c-0.1,0.1-0.1,0.1,0,0.2l1,0.5c0.1,0,0.3,0,0.4,0
							l0.6-0.3C412.4,173.5,412.4,173.4,412.3,173.4z"/>
						<path class="st17" d="M414.2,174.3l-1-0.5c-0.1,0-0.3,0-0.4,0l-0.6,0.3c-0.1,0.1-0.1,0.1,0,0.2l1,0.5c0.1,0,0.3,0,0.4,0
							l0.6-0.3C414.3,174.5,414.3,174.4,414.2,174.3z"/>
						<path class="st17" d="M413.2,169.1l-1-0.5c-0.1,0-0.3,0-0.4,0l-0.6,0.3c-0.1,0.1-0.1,0.1,0,0.2l1,0.5c0.1,0,0.3,0,0.4,0
							l0.6-0.3C413.3,169.2,413.3,169.1,413.2,169.1z"/>
						<path class="st17" d="M415.1,170l-1-0.5c-0.1,0-0.3,0-0.4,0l-0.6,0.3c-0.1,0.1-0.1,0.1,0,0.2l1,0.5c0.1,0,0.3,0,0.4,0l0.6-0.3
							C415.2,170.2,415.2,170.1,415.1,170z"/>
						<path class="st17" d="M417.1,171l-1-0.5c-0.1,0-0.3,0-0.4,0l-0.6,0.3c-0.1,0.1-0.1,0.1,0,0.2l1,0.5c0.1,0,0.3,0,0.4,0l0.6-0.3
							C417.2,171.1,417.2,171.1,417.1,171z"/>
						<path class="st17" d="M419,172l-1-0.5c-0.1,0-0.3,0-0.4,0l-0.6,0.3c-0.1,0.1-0.1,0.1,0,0.2l1,0.5c0.1,0,0.3,0,0.4,0l0.6-0.3
							C419.1,172.1,419.1,172,419,172z"/>
						<path class="st17" d="M422.5,172.2l-1-0.5c-0.1,0-0.3,0-0.4,0l-0.6,0.3c-0.1,0.1-0.1,0.1,0,0.2l1,0.5c0.1,0,0.3,0,0.4,0
							l0.6-0.3C422.6,172.3,422.6,172.2,422.5,172.2z"/>
						<path class="st17" d="M419.5,173.7l-1-0.5c-0.1,0-0.3,0-0.4,0l-2,1c-0.1,0.1-0.1,0.1,0,0.2l1,0.5c0.1,0,0.3,0,0.4,0l2-1
							C419.6,173.8,419.6,173.7,419.5,173.7z"/>
						<path class="st17" d="M416.2,175.3l-1-0.5c-0.1,0-0.3,0-0.4,0l-0.6,0.3c-0.1,0.1-0.1,0.1,0,0.2l1,0.5c0.1,0,0.3,0,0.4,0
							l0.6-0.3C416.3,175.4,416.3,175.4,416.2,175.3z"/>
						<path class="st17" d="M406.7,172.2l-1-0.5c-0.1,0-0.3,0-0.4,0l-0.6,0.3c-0.1,0.1-0.1,0.1,0,0.2l1,0.5c0.1,0,0.3,0,0.4,0
							l0.6-0.3C406.8,172.4,406.8,172.3,406.7,172.2z"/>
						<path class="st17" d="M408.7,173.2l-1-0.5c-0.1,0-0.3,0-0.4,0l-0.6,0.3c-0.1,0.1-0.1,0.1,0,0.2l1,0.5c0.1,0,0.3,0,0.4,0
							l0.6-0.3C408.8,173.3,408.8,173.2,408.7,173.2z"/>
						<path class="st17" d="M410.7,174.2l-1-0.5c-0.1,0-0.3,0-0.4,0l-0.6,0.3c-0.1,0.1-0.1,0.1,0,0.2l1,0.5c0.1,0,0.3,0,0.4,0
							l0.6-0.3C410.8,174.3,410.8,174.2,410.7,174.2z"/>
						<path class="st17" d="M412.6,175.1l-1-0.5c-0.1,0-0.3,0-0.4,0l-0.6,0.3c-0.1,0.1-0.1,0.1,0,0.2l1,0.5c0.1,0,0.3,0,0.4,0
							l0.6-0.3C412.7,175.2,412.7,175.2,412.6,175.1z"/>
						<path class="st17" d="M414.6,176.1l-1-0.5c-0.1,0-0.3,0-0.4,0l-0.6,0.3c-0.1,0.1-0.1,0.1,0,0.2l1,0.5c0.1,0,0.3,0,0.4,0
							l0.6-0.3C414.6,176.2,414.7,176.1,414.6,176.1z"/>
						<path class="st17" d="M421,172.9l-1-0.5c-0.1,0-0.3,0-0.4,0l-0.6,0.3c-0.1,0.1-0.1,0.1,0,0.2l1,0.5c0.1,0,0.3,0,0.4,0l0.6-0.3
							C421.1,173.1,421.1,173,421,172.9z"/>
					</g>
					<g>
						<path class="st17" d="M424.4,173.1l-1-0.5c-0.1,0-0.3,0-0.4,0l-0.6,0.3c-0.1,0.1-0.1,0.1,0,0.2l1,0.5c0.1,0,0.3,0,0.4,0
							l0.6-0.3C424.5,173.3,424.5,173.2,424.4,173.1z"/>
						<path class="st17" d="M427.7,173.4l-1-0.5c-0.1,0-0.3,0-0.4,0l-0.6,0.3c-0.1,0.1-0.1,0.1,0,0.2l1,0.5c0.1,0,0.3,0,0.4,0
							l0.6-0.3C427.8,173.5,427.8,173.4,427.7,173.4z"/>
						<path class="st17" d="M418,168.6l-1-0.5c-0.1,0-0.3,0-0.4,0l-0.6,0.3c-0.1,0.1-0.1,0.1,0,0.2l1,0.5c0.1,0,0.3,0,0.4,0l0.6-0.3
							C418.1,168.7,418.1,168.6,418,168.6z"/>
						<path class="st17" d="M428.4,175.1l-3-1.5c-0.1,0-0.3,0-0.4,0l-0.6,0.3c-0.1,0.1-0.1,0.1,0,0.2l3,1.5c0.1,0,0.3,0,0.4,0
							l0.6-0.3C428.4,175.2,428.5,175.1,428.4,175.1z"/>
						<path class="st17" d="M421.5,174.6l-1-0.5c-0.1,0-0.3,0-0.4,0l-0.6,0.3c-0.1,0.1-0.1,0.1,0,0.2l1,0.5c0.1,0,0.3,0,0.4,0
							l0.6-0.3C421.6,174.7,421.6,174.7,421.5,174.6z"/>
						<path class="st17" d="M423.4,175.6l-1-0.5c-0.1,0-0.3,0-0.4,0l-0.6,0.3c-0.1,0.1-0.1,0.1,0,0.2l1,0.5c0.1,0,0.3,0,0.4,0
							l0.6-0.3C423.5,175.7,423.5,175.6,423.4,175.6z"/>
						<path class="st17" d="M425.4,176.5l-1-0.5c-0.1,0-0.3,0-0.4,0l-0.6,0.3c-0.1,0.1-0.1,0.1,0,0.2l1,0.5c0.1,0,0.3,0,0.4,0
							l0.6-0.3C425.5,176.7,425.5,176.6,425.4,176.5z"/>
						<path class="st17" d="M420,175.3l-1-0.5c-0.1,0-0.3,0-0.4,0l-0.6,0.3c-0.1,0.1-0.1,0.1,0,0.2l1,0.5c0.1,0,0.3,0,0.4,0l0.6-0.3
							C420.1,175.5,420.1,175.4,420,175.3z"/>
						<path class="st17" d="M421.9,176.3l-1-0.5c-0.1,0-0.3,0-0.4,0l-0.5,0.3c-0.1,0.1-0.1,0.1,0,0.2l1,0.5c0.1,0,0.3,0,0.4,0
							l0.6-0.3C422,176.4,422,176.3,421.9,176.3z"/>
						<path class="st17" d="M423.9,177.3l-1-0.5c-0.1,0-0.3,0-0.4,0l-0.5,0.3c-0.1,0.1-0.1,0.1,0,0.2l1,0.5c0.1,0,0.3,0,0.4,0
							l0.6-0.3C424,177.4,424,177.3,423.9,177.3z"/>
						<path class="st17" d="M418.1,176.3l-1-0.5c-0.1,0-0.3,0-0.4,0l-0.6,0.3c-0.1,0.1-0.1,0.1,0,0.2l1,0.5c0.1,0,0.3,0,0.4,0
							l0.6-0.3C418.2,176.4,418.2,176.3,418.1,176.3z"/>
						<path class="st17" d="M420,177.2l-1-0.5c-0.1,0-0.3,0-0.4,0L418,177c-0.1,0.1-0.1,0.1,0,0.2l1,0.5c0.1,0,0.3,0,0.4,0l0.6-0.3
							C420.1,177.3,420.1,177.3,420,177.2z"/>
						<path class="st17" d="M422,178.2l-1-0.5c-0.1,0-0.3,0-0.4,0L420,178c-0.1,0.1-0.1,0.1,0,0.2l1,0.5c0.1,0,0.3,0,0.4,0l0.6-0.3
							C422.1,178.3,422.1,178.2,422,178.2z"/>
						<path class="st17" d="M416.5,177l-1-0.5c-0.1,0-0.3,0-0.4,0l-0.6,0.3c-0.1,0.1-0.1,0.1,0,0.2l1,0.5c0.1,0,0.3,0,0.4,0l0.6-0.3
							C416.6,177.2,416.6,177.1,416.5,177z"/>
						<path class="st17" d="M418.4,178l-1-0.5c-0.1,0-0.3,0-0.4,0l-0.6,0.3c-0.1,0.1-0.1,0.1,0,0.2l1,0.5c0.1,0,0.3,0,0.4,0l0.6-0.3
							C418.5,178.1,418.5,178,418.4,178z"/>
						<path class="st17" d="M420.4,179l-1-0.5c-0.1,0-0.3,0-0.4,0l-0.6,0.3c-0.1,0.1-0.1,0.1,0,0.2l1,0.5c0.1,0,0.3,0,0.4,0l0.6-0.3
							C420.5,179.1,420.5,179,420.4,179z"/>
						<path class="st17" d="M422.9,173.9l-1-0.5c-0.1,0-0.3,0-0.4,0l-0.6,0.3c-0.1,0.1-0.1,0.1,0,0.2l1,0.5c0.1,0,0.3,0,0.4,0
							l0.6-0.3C423,174,423,173.9,422.9,173.9z"/>
						<path class="st17" d="M424.9,174.8l-1-0.5c-0.1,0-0.3,0-0.4,0l-0.6,0.3c-0.1,0.1-0.1,0.1,0,0.2l1,0.5c0.1,0,0.3,0,0.4,0
							l0.6-0.3C425,175,425,174.9,424.9,174.8z"/>
						<path class="st17" d="M426.9,175.8l-1-0.5c-0.1,0-0.3,0-0.4,0l-0.6,0.3c-0.1,0.1-0.1,0.1,0,0.2l1,0.5c0.1,0,0.3,0,0.4,0
							l0.6-0.3C427,175.9,427,175.9,426.9,175.8z"/>
						<path class="st17" d="M405.1,173l-1-0.5c-0.1,0-0.3,0-0.4,0l-0.6,0.3c-0.1,0.1-0.1,0.1,0,0.2l1,0.5c0.1,0,0.3,0,0.4,0l0.6-0.3
							C405.2,173.1,405.2,173,405.1,173z"/>
						<path class="st17" d="M409.1,174.9l-3-1.5c-0.1,0-0.3,0-0.4,0l-0.6,0.3c-0.1,0.1-0.1,0.1,0,0.2l3,1.5c0.1,0,0.3,0,0.4,0
							l0.6-0.3C409.1,175,409.2,174.9,409.1,174.9z"/>
						<path class="st17" d="M411,175.8l-1-0.5c-0.1,0-0.3,0-0.4,0l-0.6,0.3c-0.1,0.1-0.1,0.1,0,0.2l1,0.5c0.1,0,0.3,0,0.4,0l0.6-0.3
							C411.1,176,411.1,175.9,411,175.8z"/>
						<path class="st17" d="M412.9,176.8l-1-0.5c-0.1,0-0.3,0-0.4,0l-0.6,0.3c-0.1,0.1-0.1,0.1,0,0.2l1,0.5c0.1,0,0.3,0,0.4,0
							l0.6-0.3C413,176.9,413,176.9,412.9,176.8z"/>
						<path class="st17" d="M414.9,177.8l-1-0.5c-0.1,0-0.3,0-0.4,0l-0.6,0.3c-0.1,0.1-0.1,0.1,0,0.2l1,0.5c0.1,0,0.3,0,0.4,0
							l0.6-0.3C415,177.9,415,177.8,414.9,177.8z"/>
						<path class="st17" d="M418.8,179.7l-3-1.5c-0.1,0-0.3,0-0.4,0l-0.6,0.3c-0.1,0.1-0.1,0.1,0,0.2l3,1.5c0.1,0,0.3,0,0.4,0
							l0.6-0.3C418.9,179.8,418.9,179.7,418.8,179.7z"/>
					</g>
				</g>
			</g>
			<g>
				<path class="st4" d="M415.1,152.4c0.6-0.8,1.6-1,2-1s1.1,0.1,1.7,0.3l11.3,5.6c1.8,0.9,3.3,3.3,3.3,5.4v8.3
					c0,0.8-0.2,1.4-0.6,1.8c0,0-0.6,0.7-1.8,1c-0.8,0.2-1.1-0.4-1.2-0.8l-11.1-5.5c-1.8-0.9-3.3-3.3-3.3-5.4v-8.3c0-0.1,0-0.2,0-0.3
					C415,153.2,414.8,152.8,415.1,152.4z"/>
				<path class="st5" d="M429.2,173.5c1.8,0.9,3.3-0.1,3.3-2.2v-8.2c0-2.1-1.5-4.5-3.3-5.4l-11.3-5.6c-1.8-0.9-3.3,0.1-3.3,2.2v8.3
					c0,2.1,1.5,4.5,3.3,5.4L429.2,173.5z"/>
				<path class="st23" d="M417.9,167.1l11.3,5.6c1.4,0.7,2.6-0.1,2.6-1.7v-8.3c0-1.6-1.2-3.5-2.6-4.2l-11.3-5.6
					c-1.4-0.7-2.6,0.1-2.6,1.7v8.3C415.3,164.5,416.5,166.4,417.9,167.1z"/>
			</g>
		</g>
		<polygon class="st12" points="392.5,175.7 379.8,169.4 399.7,159.6 412.5,165.9 		"/>
		<polygon class="st12" points="462.7,177.4 449.9,171.1 469.9,161.4 482.7,167.7 		"/>
		<polygon class="st23" points="455.3,184.1 468.1,177.8 448.2,168.1 435.4,174.4 		"/>
		<g>
			<polygon class="st21" points="462.2,181.7 475,175.4 455,165.6 442.3,171.9 			"/>
			<g>
				<path class="st5" d="M471.1,175c-3.1,1.4-6.1,2.8-9.2,4.2c-0.2,0.1,0,0.4,0.2,0.3c3-1.4,6.1-2.8,9.1-4.3
					C471.4,175.1,471.3,174.9,471.1,175z"/>
				<path class="st5" d="M469.8,174.2c-3.1,1.4-6.1,2.8-9.2,4.2c-0.2,0.1,0,0.4,0.2,0.3c3-1.4,6.1-2.8,9.1-4.3
					C470,174.3,469.9,174.1,469.8,174.2z"/>
				<path class="st5" d="M468.2,173.5c-3.1,1.4-6.1,2.8-9.2,4.2c-0.2,0.1,0,0.4,0.2,0.3c3-1.4,6.1-2.8,9.1-4.3
					C468.4,173.6,468.3,173.5,468.2,173.5z"/>
				<path class="st5" d="M466.8,172.8c-3.1,1.4-6.1,2.8-9.2,4.2c-0.2,0.1,0,0.4,0.2,0.3c3-1.4,6.1-2.8,9.1-4.3
					C467.1,172.9,466.9,172.7,466.8,172.8z"/>
				<path class="st5" d="M463.4,171.5c-3.1,1.4-6.1,2.8-9.2,4.2c-0.2,0.1,0,0.4,0.2,0.3c3-1.4,6.1-2.8,9.1-4.3
					C463.7,171.6,463.6,171.4,463.4,171.5z"/>
				<path class="st5" d="M462.1,170.7c-3.1,1.4-6.1,2.8-9.2,4.2c-0.2,0.1,0,0.4,0.2,0.3c3-1.4,6.1-2.8,9.1-4.3
					C462.3,170.9,462.2,170.7,462.1,170.7z"/>
				<path class="st5" d="M460,169.7c-3.1,1.4-6.1,2.8-9.2,4.2c-0.2,0.1,0,0.4,0.2,0.3c3-1.4,6.1-2.8,9.1-4.3
					C460.2,169.8,460.1,169.6,460,169.7z"/>
				<path class="st5" d="M458.6,168.9c-3.1,1.4-6.1,2.8-9.2,4.2c-0.2,0.1,0,0.4,0.2,0.3c3-1.4,6.1-2.8,9.1-4.3
					C458.9,169,458.7,168.9,458.6,168.9z"/>
				<path class="st5" d="M457,168.2c-3.1,1.4-6.1,2.8-9.2,4.2c-0.2,0.1,0,0.4,0.2,0.3c3-1.4,6.1-2.8,9.1-4.3
					C457.3,168.4,457.2,168.2,457,168.2z"/>
				<path class="st5" d="M455.6,167.5c-3.1,1.4-6.1,2.8-9.2,4.2c-0.2,0.1,0,0.4,0.2,0.3c3-1.4,6.1-2.8,9.1-4.3
					C455.9,167.6,455.8,167.4,455.6,167.5z"/>
			</g>
		</g>
		<g>
			<polygon class="st6" points="447,150.8 459.7,144.5 439.8,134.8 427,141 			"/>
			<polygon class="st9" points="436.4,144.2 446.6,139.2 439.8,135.9 429.6,140.9 			"/>
			<path class="st5" d="M456.3,144.5c-3.1,1.4-6.1,2.8-9.2,4.2c-0.2,0.1,0,0.4,0.2,0.3c3-1.4,6.1-2.8,9.1-4.3
				C456.6,144.6,456.5,144.4,456.3,144.5z"/>
			<path class="st5" d="M454.9,143.7c-3.1,1.4-6.1,2.8-9.2,4.2c-0.2,0.1,0,0.4,0.2,0.3c3-1.4,6.1-2.8,9.1-4.3
				C455.2,143.8,455.1,143.6,454.9,143.7z"/>
			<path class="st5" d="M453.4,143c-3.1,1.4-6.1,2.8-9.2,4.2c-0.2,0.1,0,0.4,0.2,0.3c3-1.4,6.1-2.8,9.1-4.3
				C453.6,143.1,453.5,143,453.4,143z"/>
			<path class="st5" d="M452,142.2c-3.1,1.4-6.1,2.8-9.2,4.2c-0.2,0.1,0,0.4,0.2,0.3c3-1.4,6.1-2.8,9.1-4.3
				C452.2,142.4,452.1,142.2,452,142.2z"/>
			<path class="st5" d="M448.6,140.9c-3.1,1.4-6.1,2.8-9.2,4.2c-0.2,0.1,0,0.4,0.2,0.3c3-1.4,6.1-2.8,9.1-4.3
				C448.9,141.1,448.8,140.9,448.6,140.9z"/>
			<path class="st5" d="M447.2,140.2c-3.1,1.4-6.1,2.8-9.2,4.2c-0.2,0.1,0,0.4,0.2,0.3c3-1.4,6.1-2.8,9.1-4.3
				C447.5,140.3,447.4,140.2,447.2,140.2z"/>
		</g>
		<g>
			<polygon class="st6" points="392.5,169.4 379.8,163.1 399.7,153.4 412.5,159.7 			"/>
			<polygon class="st9" points="403.1,162.9 392.9,157.8 399.7,154.5 409.9,159.5 			"/>
			<path class="st5" d="M383.2,163.1c3.1,1.4,6.1,2.8,9.2,4.2c0.2,0.1,0,0.4-0.2,0.3c-3-1.4-6.1-2.8-9.1-4.3
				C382.9,163.2,383.1,163,383.2,163.1z"/>
			<path class="st5" d="M384.6,162.3c3.1,1.4,6.1,2.8,9.2,4.2c0.2,0.1,0,0.4-0.2,0.3c-3-1.4-6.1-2.8-9.1-4.3
				C384.3,162.4,384.4,162.3,384.6,162.3z"/>
			<path class="st5" d="M386.1,161.6c3.1,1.4,6.1,2.8,9.2,4.2c0.2,0.1,0,0.4-0.2,0.3c-3-1.4-6.1-2.8-9.1-4.3
				C385.9,161.7,386,161.6,386.1,161.6z"/>
			<path class="st5" d="M387.5,160.9c3.1,1.4,6.1,2.8,9.2,4.2c0.2,0.1,0,0.4-0.2,0.3c-3-1.4-6.1-2.8-9.1-4.3
				C387.3,161,387.4,160.8,387.5,160.9z"/>
			<path class="st5" d="M390.9,159.6c3.1,1.4,6.1,2.8,9.2,4.2c0.2,0.1,0,0.4-0.2,0.3c-3-1.4-6.1-2.8-9.1-4.3
				C390.6,159.7,390.8,159.5,390.9,159.6z"/>
			<path class="st5" d="M392.3,158.9c3.1,1.4,6.1,2.8,9.2,4.2c0.2,0.1,0,0.4-0.2,0.3c-3-1.4-6.1-2.8-9.1-4.3
				C392,159,392.1,158.8,392.3,158.9z"/>
		</g>
		<g>
			<g>
				<path class="st4" d="M454.2,147.5l0.5,0.5c0.2-0.2,0.4-0.3,0.7-0.5l7.9-3.9c1.8-0.9,4.5-1,6.1-0.2l12.6,6.2
					c0.1,0,0.2,0.1,0.2,0.2l0.6-0.6c0,0,0.6,1,0.1,2.1l0,0c-0.2,0.4-0.6,0.9-1.4,1.2l-7.9,3.9c-1.8,0.9-4.5,1-6,0.2l-12.6-6.2
					c-0.5-0.2-0.7-0.5-0.9-0.8l-0.1-0.1C453.6,148.5,454.2,147.5,454.2,147.5z"/>
				<path class="st22" d="M467.6,155.6l-12.6-6.2c-1.5-0.8-1.3-2.1,0.4-3l7.9-3.9c1.8-0.9,4.5-1,6.1-0.2l12.6,6.2
					c1.5,0.8,1.3,2.1-0.4,3l-7.9,3.9C471.9,156.3,469.2,156.4,467.6,155.6z"/>
			</g>
			<g>
				<g>
					<path class="st17" d="M467.8,143l-1-0.5c-0.1,0-0.3,0-0.4,0l-0.6,0.3c-0.1,0.1-0.1,0.1,0,0.2l1,0.5c0.1,0,0.3,0,0.4,0l0.6-0.3
						C467.9,143.2,467.9,143.1,467.8,143z"/>
					<path class="st17" d="M471.8,145l-3-1.5c-0.1,0-0.3,0-0.4,0l-0.6,0.3c-0.1,0.1-0.1,0.1,0,0.2l3,1.5c0.1,0,0.3,0,0.4,0l0.6-0.3
						C471.9,145.1,471.9,145,471.8,145z"/>
					<path class="st17" d="M473.8,146l-1-0.5c-0.1,0-0.3,0-0.4,0l-0.6,0.3c-0.1,0.1-0.1,0.1,0,0.2l1,0.5c0.1,0,0.3,0,0.4,0l0.6-0.3
						C473.8,146.1,473.9,146,473.8,146z"/>
					<path class="st17" d="M464.8,144.5l-1-0.5c-0.1,0-0.3,0-0.4,0l-0.6,0.3c-0.1,0.1-0.1,0.1,0,0.2l1,0.5c0.1,0,0.3,0,0.4,0
						l0.6-0.3C464.9,144.6,464.9,144.5,464.8,144.5z"/>
					<path class="st17" d="M466.8,145.5l-1-0.5c-0.1,0-0.3,0-0.4,0l-0.6,0.3c-0.1,0.1-0.1,0.1,0,0.2l1,0.5c0.1,0,0.3,0,0.4,0
						l0.6-0.3C466.8,145.6,466.9,145.5,466.8,145.5z"/>
					<path class="st17" d="M468.8,146.5l-1-0.5c-0.1,0-0.3,0-0.4,0l-0.6,0.3c-0.1,0.1-0.1,0.1,0,0.2l1,0.5c0.1,0,0.3,0,0.4,0
						l0.6-0.3C468.9,146.6,468.9,146.5,468.8,146.5z"/>
					<path class="st17" d="M470.8,147.4l-1-0.5c-0.1,0-0.3,0-0.4,0l-0.6,0.3c-0.1,0.1-0.1,0.1,0,0.2l1,0.5c0.1,0,0.3,0,0.4,0
						l0.6-0.3C470.8,147.6,470.9,147.5,470.8,147.4z"/>
					<path class="st17" d="M463.3,145.2l-1-0.5c-0.1,0-0.3,0-0.4,0l-0.6,0.3c-0.1,0.1-0.1,0.1,0,0.2l1,0.5c0.1,0,0.3,0,0.4,0
						l0.6-0.3C463.4,145.4,463.4,145.3,463.3,145.2z"/>
					<path class="st17" d="M465.3,146.2l-1-0.5c-0.1,0-0.3,0-0.4,0l-0.6,0.3c-0.1,0.1-0.1,0.1,0,0.2l1,0.5c0.1,0,0.3,0,0.4,0
						l0.6-0.3C465.3,146.3,465.4,146.3,465.3,146.2z"/>
					<path class="st17" d="M467.3,147.2l-1-0.5c-0.1,0-0.3,0-0.4,0l-0.6,0.3c-0.1,0.1-0.1,0.1,0,0.2l1,0.5c0.1,0,0.3,0,0.4,0
						l0.6-0.3C467.4,147.3,467.4,147.3,467.3,147.2z"/>
					<path class="st17" d="M469.2,148.2l-1-0.5c-0.1,0-0.3,0-0.4,0l-0.6,0.3c-0.1,0.1-0.1,0.1,0,0.2l1,0.5c0.1,0,0.3,0,0.4,0
						l0.6-0.3C469.3,148.3,469.3,148.2,469.2,148.2z"/>
					<path class="st17" d="M461.4,146.2l-1-0.5c-0.1,0-0.3,0-0.4,0l-0.6,0.3c-0.1,0.1-0.1,0.1,0,0.2l1,0.5c0.1,0,0.3,0,0.4,0
						l0.6-0.3C461.5,146.3,461.5,146.2,461.4,146.2z"/>
					<path class="st17" d="M463.4,147.1l-1-0.5c-0.1,0-0.3,0-0.4,0l-0.6,0.3c-0.1,0.1-0.1,0.1,0,0.2l1,0.5c0.1,0,0.3,0,0.4,0
						l0.6-0.3C463.4,147.3,463.5,147.2,463.4,147.1z"/>
					<path class="st17" d="M465.4,148.1l-1-0.5c-0.1,0-0.3,0-0.4,0l-0.6,0.3c-0.1,0.1-0.1,0.1,0,0.2l1,0.5c0.1,0,0.3,0,0.4,0
						l0.6-0.3C465.5,148.3,465.5,148.2,465.4,148.1z"/>
					<path class="st17" d="M467.3,149.1l-1-0.5c-0.1,0-0.3,0-0.4,0l-0.6,0.3c-0.1,0.1-0.1,0.1,0,0.2l1,0.5c0.1,0,0.3,0,0.4,0
						l0.6-0.3C467.4,149.2,467.4,149.2,467.3,149.1z"/>
					<path class="st17" d="M466.3,143.8l-1-0.5c-0.1,0-0.3,0-0.4,0l-0.6,0.3c-0.1,0.1-0.1,0.1,0,0.2l1,0.5c0.1,0,0.3,0,0.4,0
						l0.6-0.3C466.4,143.9,466.4,143.8,466.3,143.8z"/>
					<path class="st17" d="M468.3,144.7l-1-0.5c-0.1,0-0.3,0-0.4,0l-0.6,0.3c-0.1,0.1-0.1,0.1,0,0.2l1,0.5c0.1,0,0.3,0,0.4,0
						l0.6-0.3C468.3,144.9,468.4,144.8,468.3,144.7z"/>
					<path class="st17" d="M470.3,145.7l-1-0.5c-0.1,0-0.3,0-0.4,0l-0.6,0.3c-0.1,0.1-0.1,0.1,0,0.2l1,0.5c0.1,0,0.3,0,0.4,0
						l0.6-0.3C470.4,145.9,470.4,145.8,470.3,145.7z"/>
					<path class="st17" d="M472.3,146.7l-1-0.5c-0.1,0-0.3,0-0.4,0l-0.6,0.3c-0.1,0.1-0.1,0.1,0,0.2l1,0.5c0.1,0,0.3,0,0.4,0
						l0.6-0.3C472.3,146.8,472.4,146.7,472.3,146.7z"/>
					<path class="st17" d="M475.7,146.9l-1-0.5c-0.1,0-0.3,0-0.4,0l-0.6,0.3c-0.1,0.1-0.1,0.1,0,0.2l1,0.5c0.1,0,0.3,0,0.4,0
						l0.6-0.3C475.8,147.1,475.8,147,475.7,146.9z"/>
					<path class="st17" d="M472.7,148.4l-1-0.5c-0.1,0-0.3,0-0.4,0l-2.1,1c-0.1,0.1-0.1,0.1,0,0.2l1,0.5c0.1,0,0.3,0,0.4,0l2.1-1
						C472.8,148.6,472.8,148.5,472.7,148.4z"/>
					<path class="st17" d="M469.3,150.1l-1-0.5c-0.1,0-0.3,0-0.4,0l-0.6,0.3c-0.1,0.1-0.1,0.1,0,0.2l1,0.5c0.1,0,0.3,0,0.4,0
						l0.6-0.3C469.4,150.2,469.4,150.1,469.3,150.1z"/>
					<path class="st17" d="M474.2,147.7l-1-0.5c-0.1,0-0.3,0-0.4,0l-0.6,0.3c-0.1,0.1-0.1,0.1,0,0.2l1,0.5c0.1,0,0.3,0,0.4,0
						l0.6-0.3C474.3,147.8,474.3,147.7,474.2,147.7z"/>
				</g>
				<g>
					<path class="st17" d="M477.7,147.9l-1-0.5c-0.1,0-0.3,0-0.4,0l-0.6,0.3c-0.1,0.1-0.1,0.1,0,0.2l1,0.5c0.1,0,0.3,0,0.4,0
						l0.6-0.3C477.8,148,477.8,148,477.7,147.9z"/>
					<path class="st17" d="M481.7,149.9l-3-1.5c-0.1,0-0.3,0-0.4,0l-0.6,0.3c-0.1,0.1-0.1,0.1,0,0.2l3,1.5c0.1,0,0.3,0,0.4,0
						l0.6-0.3C481.8,150,481.8,149.9,481.7,149.9z"/>
					<path class="st17" d="M474.7,149.4l-1-0.5c-0.1,0-0.3,0-0.4,0l-0.6,0.3c-0.1,0.1-0.1,0.1,0,0.2l1,0.5c0.1,0,0.3,0,0.4,0
						l0.6-0.3C474.8,149.5,474.8,149.4,474.7,149.4z"/>
					<path class="st17" d="M476.7,150.3l-1-0.5c-0.1,0-0.3,0-0.4,0l-0.6,0.3c-0.1,0.1-0.1,0.1,0,0.2l1,0.5c0.1,0,0.3,0,0.4,0
						l0.6-0.3C476.8,150.5,476.8,150.4,476.7,150.3z"/>
					<path class="st17" d="M478.7,151.3l-1-0.5c-0.1,0-0.3,0-0.4,0l-0.6,0.3c-0.1,0.1-0.1,0.1,0,0.2l1,0.5c0.1,0,0.3,0,0.4,0
						l0.6-0.3C478.8,151.5,478.8,151.4,478.7,151.3z"/>
					<path class="st17" d="M473.2,150.1l-1-0.5c-0.1,0-0.3,0-0.4,0l-0.6,0.3c-0.1,0.1-0.1,0.1,0,0.2l1,0.5c0.1,0,0.3,0,0.4,0
						l0.6-0.3C473.3,150.3,473.3,150.2,473.2,150.1z"/>
					<path class="st17" d="M475.2,151.1l-1-0.5c-0.1,0-0.3,0-0.4,0l-0.6,0.3c-0.1,0.1-0.1,0.1,0,0.2l1,0.5c0.1,0,0.3,0,0.4,0
						l0.6-0.3C475.3,151.2,475.3,151.1,475.2,151.1z"/>
					<path class="st17" d="M477.2,152.1l-1-0.5c-0.1,0-0.3,0-0.4,0l-0.6,0.3c-0.1,0.1-0.1,0.1,0,0.2l1,0.5c0.1,0,0.3,0,0.4,0
						l0.6-0.3C477.3,152.2,477.3,152.1,477.2,152.1z"/>
					<path class="st17" d="M471.3,151.1l-1-0.5c-0.1,0-0.3,0-0.4,0l-0.6,0.3c-0.1,0.1-0.1,0.1,0,0.2l1,0.5c0.1,0,0.3,0,0.4,0
						l0.6-0.3C471.4,151.2,471.4,151.1,471.3,151.1z"/>
					<path class="st17" d="M473.3,152l-1-0.5c-0.1,0-0.3,0-0.4,0l-0.6,0.3c-0.1,0.1-0.1,0.1,0,0.2l1,0.5c0.1,0,0.3,0,0.4,0l0.6-0.3
						C473.4,152.2,473.4,152.1,473.3,152z"/>
					<path class="st17" d="M475.3,153l-1-0.5c-0.1,0-0.3,0-0.4,0l-0.6,0.3c-0.1,0.1-0.1,0.1,0,0.2l1,0.5c0.1,0,0.3,0,0.4,0l0.6-0.3
						C475.4,153.2,475.4,153.1,475.3,153z"/>
					<path class="st17" d="M467.7,150.9l-1-0.5c-0.1,0-0.3,0-0.4,0l-0.6,0.3c-0.1,0.1-0.1,0.1,0,0.2l1,0.5c0.1,0,0.3,0,0.4,0
						l0.6-0.3C467.8,151,467.8,150.9,467.7,150.9z"/>
					<path class="st17" d="M469.7,151.8l-1-0.5c-0.1,0-0.3,0-0.4,0l-0.6,0.3c-0.1,0.1-0.1,0.1,0,0.2l1,0.5c0.1,0,0.3,0,0.4,0
						l0.6-0.3C469.7,152,469.8,151.9,469.7,151.8z"/>
					<path class="st17" d="M471.6,152.8l-1-0.5c-0.1,0-0.3,0-0.4,0l-0.6,0.3c-0.1,0.1-0.1,0.1,0,0.2l1,0.5c0.1,0,0.3,0,0.4,0
						l0.6-0.3C471.7,152.9,471.7,152.9,471.6,152.8z"/>
					<path class="st17" d="M473.7,153.8l-1-0.5c-0.1,0-0.3,0-0.4,0l-0.6,0.3c-0.1,0.1-0.1,0.1,0,0.2l1,0.5c0.1,0,0.3,0,0.4,0
						l0.6-0.3C473.7,153.9,473.8,153.9,473.7,153.8z"/>
					<path class="st17" d="M476.2,148.6l-1-0.5c-0.1,0-0.3,0-0.4,0l-0.6,0.3c-0.1,0.1-0.1,0.1,0,0.2l1,0.5c0.1,0,0.3,0,0.4,0
						l0.6-0.3C476.3,148.8,476.3,148.7,476.2,148.6z"/>
					<path class="st17" d="M478.2,149.6l-1-0.5c-0.1,0-0.3,0-0.4,0l-0.6,0.3c-0.1,0.1-0.1,0.1,0,0.2l1,0.5c0.1,0,0.3,0,0.4,0
						l0.6-0.3C478.3,149.7,478.3,149.7,478.2,149.6z"/>
					<path class="st17" d="M480.2,150.6l-1-0.5c-0.1,0-0.3,0-0.4,0l-0.6,0.3c-0.1,0.1-0.1,0.1,0,0.2l1,0.5c0.1,0,0.3,0,0.4,0
						l0.6-0.3C480.3,150.7,480.3,150.7,480.2,150.6z"/>
				</g>
			</g>
			<g>
				<path class="st4" d="M446.6,135.6c0.5-0.7,1.5-0.8,1.6-0.8l0,0l0,0l0,0c0.3,0,0.8,0.1,1.2,0.3l14.9,7.2c0.9,0.5,1.7,1.4,2.1,2.5
					c0.2,0.4,3,6.1,3.9,8c0.3,0.8,0.4,1.3,0.4,1.7l0,0l0,0c0,0.1,0,0.1,0,0.2c-0.2,0.9-1.5,0.9-1.5,0.9l-0.1-0.8H469l-13.4-6.6
					c-1.4-0.7-2.4-2.2-3.3-3.7c0,0-3.2-5.7-4.1-7.5l-0.3,0.2C447.8,137.1,446.3,136.1,446.6,135.6z"/>
				<path class="st5" d="M454.5,148.7l13.4,6.6c1.4,0.7,2.4,0.4,1.4-1.9c-0.8-1.9-3.7-7.6-3.9-8c-0.4-1.1-1.2-2-2.1-2.5l-14.9-7.2
					c-0.8-0.4-1.7-0.5-1.9,0.2c-0.1,0.3,0.1,0.7,0.3,1c0.1,0.2,4.4,8.1,4.4,8.1C452.1,146.5,453.1,148,454.5,148.7z"/>
			</g>
			<g>
				<polygon class="st24" points="464.5,154.7 466.6,155.7 465.8,154 463.7,153 				"/>
				<polygon class="st17" points="463.7,153 464.1,152.8 466.2,153.9 465.8,154 				"/>
				<polygon class="st25" points="466.6,155.7 467,155.5 466.2,153.9 465.8,154 				"/>
			</g>
			<g>
				<polygon class="st24" points="455.4,150.2 457.5,151.2 456.7,149.5 454.6,148.5 				"/>
				<polygon class="st17" points="454.6,148.5 455,148.3 457.1,149.4 456.7,149.5 				"/>
				<polygon class="st25" points="457.5,151.2 457.9,151 457.1,149.4 456.7,149.5 				"/>
			</g>
		</g>
		<g>
			<path class="st8" d="M408,173.6c1-0.5,1.8-2.2,3.4-3.5s1.9-1.8,2.4-1.8s0.9,0.5,0,1.4c-0.9,0.8-1.3,1.7-1.3,1.7s1.6-0.1,3.4-1
				s2.7-1.7,3.6-1s-0.9,3.4-2.7,4.2c-1.8,0.8-4.7,1.1-5.3,1.4c-0.6,0.3-2.4,0.8-2.4,0.8L408,173.6z"/>
			<path class="st17" d="M379.6,231.1c-0.3,0.7-1,2.2-1.9,3.5c-1.2,1.7,0.1,2.9,1.7,3.4s3.9,0.2,7.8-1.6c3.8-1.7,5.5-3.5,5.7-4.6
				c0.1-1.1-1.8-2.8-5.1-1.9c-3.3,0.9-5,1.6-5,1.6L379.6,231.1z"/>
			<path class="st17" d="M357,215.5c0,0-3.4,1.7-4.6,2.4c0,0.5,0.7,1.8,2.5,4.6c1.9,2.8,5.2,4.3,7.9,2.8c2.7-1.5,4.6-3.9,2.3-4.6
				c-2.3-0.7-4.3,0-4.3,0s-0.8-1.6-1.6-3.2C358.5,215.8,357,215.5,357,215.5z"/>
			<path class="st4" d="M352.4,217.9c0,0,3,0.2,3.9,2.8s2.6,4.6,3.4,5.1c-2.7-0.3-3.5-1.1-5.2-3.8
				C353.1,219.8,351.7,218.3,352.4,217.9z"/>
			<path class="st4" d="M360.4,219.7c-0.2,0,0.3,1,0,1.9c-0.3,1-0.1,1.6,0.6,1s0.3-1.9,0.3-1.9S361.1,219.7,360.4,219.7z"/>
			<path class="st4" d="M385,230.7c0.4,0.2,1.9,0.8,2.9,1.8c0.9,1,2,0.2,1.3-0.8s-2.4-1.5-2.4-1.5S385.3,230.4,385,230.7z"/>
			<path class="st4" d="M367.1,180.7c0,0-3.1,1.2-4.2,6.2c-0.5,2.3,0.4,5.6,1.5,8.5c1.4,3.6,3.1,6.7,3.1,6.7s-3.4,1.3-6.3,4.9
				c-1.9,2.3-5.7,9.3-5.7,9.3s0.4,0.9,1.7,1.8c1.3,0.9,3,0.9,3,0.9s7.3-7.4,10.7-11.1c3.4-3.7,4.8-3.4,4.7-6
				c-0.1-2.2,0.1-13.3,0.1-13.3L367.1,180.7z"/>
			<path class="st5" d="M383,187c0,0,3.9,4.6,6.7,10.2c2,4,3.8,9,4.7,11.5c0.4,1,0.2,2.3-0.4,3.3c-1.3,2.5-3.8,7.1-5.7,10.7
				c-2.6,5-3.2,7.7-3.9,9.7c-1.1,1.2-4.3,1.1-5.2,0c0-3.4-0.7-4.1,0-10.3c0.9-8.6,6.3-11,6.3-11s-2.7-2.5-3.4-6.4
				c-4.2-1.6-6.6-5-8-7.3c-6.1-1.7-14-5.1-11.3-12.5c0.6-1.5,2.6-5.3,4.1-5.7C372.8,178,383,187,383,187z"/>
			<path class="st8" d="M391.2,144.7c-1.6-1.5-4-1.9-6.4-1.2c-2.2,0.6-3.4,1.7-3.8,3c-0.2,0.4-0.6,2.4-0.5,3c0.3,1.8,1.8,4,2.4,5.2
				c0.8,1.5,2.5,2.5,4.8,2.3c3-0.4,3.7-3.6,4.5-5.7C393.2,148.9,393.3,146.7,391.2,144.7z"/>
			<path class="st23" d="M377.6,155.4c0,0-3.8-3.9-7.6-1.8c-4.7,2.6-5.3,6.8-7.8,9.2c-2.5,2.5-3,3.1-3.5,4.8c-0.4,1.1,0.2,1.8,1,2.3
				c0.4,0.3,1.2,2.7,1.8,3.5c1.1,1.5,4.1,3.5,4.1,3.5S378.5,157.6,377.6,155.4z"/>
			<path class="st26" d="M382.6,157c-5.5-2.8-7-4.1-11.5-1.8c-2.8,1.4-4.7,7.1-5.1,10.2c-0.4,3.1-2.5,9.5-2,10.9
				c0.5,1.2,2.2,1.6-0.1,2.9c-1.8,1-0.4,1.8,0.1,3.1c1,2.4,5.2,6.2,10.2,7s9,0.5,10.1-0.5s1.2-2,0-3.5c-0.8-1.1,0.7-2.5,1.5-3.8
				c0.9-1.4,5.6-9.7,7-14.4C394.3,162.4,388.9,160.3,382.6,157z"/>
			<path class="st8" d="M382,148.2c0,0-0.8,2.7-1.5,3.9c-1,1.7-2.9,2.7-2.9,2.7s-2.3,2.2,0.6,3.7s7.1-0.3,7.1-0.3s0.3-1.5,1.9-3.8
				C388.4,152.7,382,148.2,382,148.2z"/>
			<path class="st4" d="M392.9,144.3c0.2-2.2-2.9-3.2-4.4-1.9c-0.8-2.5-5.2-3-7.6-2.1c-1,0.4-1.8,1.4-1.8,2.3
				c-1.1-0.3-2.7,0.5-2.9,1.6c-0.1,0.7,0.3,1.6,0.8,2.1c-0.5,0.3-1.2,0.8-1,1.9c0.4,2.8,4.1,4.5,4,7.2c1.3-0.1,3.4-0.6,5.2-1
				c2.1-0.5,5.2-2.5,5.8-4c1.5,0.2,2.1-0.8,2.1-1.8C395.3,148.2,395.7,145.3,392.9,144.3z"/>
			<path class="st8" d="M386.4,151.6c-1.3,1.9,1,3,1,3l2.1-1.9C389.4,152.7,387.8,149.4,386.4,151.6z"/>
			<path class="st23" d="M369.2,181.3c0,0,3,3.9,6.5,4.7s4.9,0.8,4.9,0.8s-2-1.9-4.5-2.7C373.5,183.2,369.2,181.3,369.2,181.3z"/>
			<path class="st23" d="M386.7,161.9c-1.8,1.3-3.4,4.6-4.2,7.5c-0.7,3-0.5,5.8,1.1,6.8c1.7,1,2.4,1.2,4.7,0.8
				c0.6,1.1,3.3,3,7.4,5.1c6.8,0,11.4-5.4,15.2-6.8c0.6-1.1,0-3.2-1.6-3.2c-2,0.5-3.7,0.9-6.5,1.4c-2.1,0.4-3.6,0.7-5,1.3
				c0,0-2.6-9.4-3.8-11C391.4,160,388.8,160.5,386.7,161.9z"/>
			<path class="st23" d="M377.4,154c-1.3,0.2-3.1,2.1-0.6,4.3c2.5,2.3,7,1.2,8.2,0.8c1.2-0.3,1.2-0.3,1.2-0.3s0-1.6-2.8-2
				c-1.7-0.2-4.2-1-4.7-1.9C378.1,153.9,378.1,153.9,377.4,154z"/>
		</g>
		<g>
			<path class="st12" d="M326.7,188.7c0,0,1.5-1.7,4-0.3c2.5,1.3,10.7,5.4,10.7,5.4l0.4,4.5L326.7,188.7z"/>
			<path class="st10" d="M326.7,226.9c2.6-1.5,5.4-2.9,8.1-4.3c1.5-0.8,3.2-2.1,4.9-2.6c0.7-0.2,1.5-0.2,2,0.4
				c0.5,0.7-0.1,1.2-0.8,1.5c-1.9,0.9-3.8,1.8-5.7,2.7c-2.8,1.4-5.6,2.8-8.4,4.3L326.7,226.9z"/>
			<path class="st10" d="M343.8,222c0.4-0.6,1.2-0.7,1.9-0.5c1.8,0.4,3.5,1.6,5.1,2.3c3.5,1.6,7.2,3.2,10.6,5v1.9
				c-3.6-1.7-7.2-3.3-10.9-4.8c-2-0.8-3.9-1.6-5.9-2.4C344,223.1,343.4,222.7,343.8,222z"/>
			<path class="st3" d="M323.9,227.2c0.2-4.9,0.7-9.8,1.3-14.6c0-0.2,0.2-0.3,0.3-0.2c0.4,0.3,0.9,0.6,1.3,0.8
				c0.1,0,0.1,0.1,0.1,0.1c0.1-0.2,0.3-0.2,0.3,0.1c0.4,5.1,0.5,10.3,0.7,15.4c0.1,2.3,1.1,6.2-2.4,6.1
				C322.9,235,323.8,229.5,323.9,227.2z"/>
			<path class="st3" d="M363.5,228.8c-0.2-4.9-0.7-9.8-1.3-14.6c0-0.2-0.2-0.3-0.3-0.2c-0.4,0.3-0.9,0.6-1.3,0.8
				c-0.1,0-0.1,0.1-0.1,0.1c-0.1-0.2-0.3-0.2-0.3,0.1c-0.4,5.1-0.5,10.3-0.7,15.4c-0.1,2.3-1.1,6.2,2.4,6.1
				C364.5,236.6,363.6,231,363.5,228.8z"/>
			<path class="st10" d="M326.1,229.4c0.4-0.6,1.2-0.7,1.9-0.5c1.8,0.4,3.5,1.6,5.1,2.3c3.5,1.6,7.2,3.2,10.6,5v1.9
				c-3.6-1.7-7.2-3.3-10.9-4.8c-2-0.8-3.9-1.6-5.9-2.4C326.3,230.5,325.6,230.1,326.1,229.4z"/>
			<path class="st10" d="M346.1,235.9c2.6-1.5,5.4-2.9,8.1-4.3c1.5-0.8,3.2-2.1,4.9-2.6c0.7-0.2,1.5-0.2,2,0.4
				c0.5,0.7-0.1,1.2-0.8,1.5c-1.9,0.9-3.8,1.8-5.7,2.7c-2.8,1.4-5.6,2.8-8.4,4.3L346.1,235.9z"/>
			<path class="st3" d="M343.7,222.7l2.3-1.6c0.4,5.1,1,12.1,1.2,17.2c0.1,2.3,1.1,6.2-2.4,6.1c-2.7,0-1.8-5.5-1.7-7.8
				C343.2,232,343.1,227.2,343.7,222.7z"/>
			<g>
				<path class="st10" d="M324.3,212.2h2l12.5-6.2c1.7-0.8,4.6-0.7,6.5,0.2l14.6,7.1l2.8,0.2v2c0,0.1,0,0.2,0,0.2v0.2l0,0
					c-0.1,0.4-0.5,0.8-1.1,1.1l-13.4,6.6c-1.7,0.8-4.6,0.7-6.5-0.2l-15.7-7.7c-1.1-0.6-1.6-1.3-1.6-1.9l0,0
					C324.3,213.9,324.4,212.4,324.3,212.2z"/>
				<path class="st11" d="M348.2,221.6l13.4-6.6c1.7-0.8,1.5-2.3-0.5-3.2l-15.7-7.7c-1.9-0.9-4.9-1.1-6.5-0.2l-13.4,6.6
					c-1.7,0.8-1.5,2.3,0.5,3.2l15.7,7.7C343.6,222.4,346.5,222.5,348.2,221.6z"/>
			</g>
			<g>
				<path class="st12" d="M353,215.7c-3.1,1.4-6.6,3.8-10.3,2.7c-3.2-0.9-6.3-2.8-9.2-4.3c-2-1-3.9-2.1-5.3-3.6
					c1-1.2,2.8-2.2,3.9-2.9c3.1-1.9,11.2-5.3,12.2-5.2c0.5,0,1,0.1,1.5,0.2c2,0.4,4.1,1.4,5.8,2c2.6,1,5,2.2,7.2,3.7
					c0.7,0.5,1.6,1.1,2.1,1.7C360.7,213,355.5,214.6,353,215.7z"/>
				<path class="st13" d="M360.8,214c-1.9,1.2-5.5,2.5-7.2,3.4c-1.9,1-5.6,3.2-7.6,3.6c-1.3,0.3-3.6-0.3-5.2-0.9
					c-2.3-1-4.6-2.2-6.8-3.3c-1.8-0.9-4.5-1.7-5.9-3.2c-1-1.1-0.7-2.1,0-3c1.5,1.4,3.4,2.5,5.3,3.6c2.9,1.5,5.9,3.5,9.2,4.3
					c3.7,1,7.2-1.3,10.3-2.7c2.5-1.1,7.7-2.7,7.9-5.6c0.1,0.1,0.1,0.2,0.2,0.2C361.5,211.3,361.8,213.4,360.8,214z"/>
			</g>
			<path class="st10" d="M323,183.3c-1.2,0.5-0.8,2.2,0.2,5.8c0.5,1.7,1,8.3,1.1,11.2c0.1,2.9-0.2,11.7,0,13.5
				c0.2,1.8,1.9,1.9,2,0.4c0.1-1.5,0.9-11.8,0.9-15s-0.5-10.8-1.3-13.5C325.1,183.1,324,182.9,323,183.3z"/>
			<path class="st3" d="M324.7,187.7l16.3,8l0.7,10.8l-15.7-7.7c0,0,0.1-3.6-0.3-6.3C325.3,190.3,324.7,187.7,324.7,187.7z"/>
			<polygon class="st11" points="326,187 324.7,187.7 341,195.7 342.3,195 			"/>
			<path class="st10" d="M340,191.6c-1.2,0.5-0.8,2.2,0.2,5.8c0.5,1.7,1,8.3,1.1,11.2c0.1,2.9-0.2,11.7,0,13.5
				c0.2,1.8,1.9,1.9,2,0.4c0.1-1.5,0.9-11.8,0.9-15s-0.5-10.8-1.3-13.5C342.1,191.4,341,191.1,340,191.6z"/>
		</g>
		<g>
			<path class="st12" d="M508.2,189.2c0,0-1.5-1.7-4-0.3c-2.5,1.3-10.7,5.4-10.7,5.4l-0.4,4.5L508.2,189.2z"/>
			<path class="st10" d="M508.2,227.5c-2.6-1.5-5.4-2.9-8.1-4.3c-1.5-0.8-3.2-2.1-4.9-2.6c-0.7-0.2-1.5-0.2-2,0.4
				c-0.5,0.7,0.1,1.2,0.8,1.5c1.9,0.9,3.8,1.8,5.7,2.7c2.8,1.4,5.6,2.8,8.4,4.3L508.2,227.5z"/>
			<path class="st10" d="M491,222.6c-0.4-0.6-1.2-0.7-1.9-0.5c-1.8,0.4-3.5,1.6-5.1,2.3c-3.5,1.6-7.2,3.2-10.6,5v1.9
				c3.6-1.7,7.2-3.3,10.9-4.8c2-0.8,3.9-1.6,5.9-2.4C490.8,223.7,491.5,223.3,491,222.6z"/>
			<path class="st3" d="M511,227.8c-0.2-4.9-0.7-9.8-1.3-14.6c0-0.2-0.2-0.3-0.3-0.2c-0.4,0.3-0.9,0.6-1.3,0.8
				c-0.1,0-0.1,0.1-0.1,0.1c-0.1-0.2-0.3-0.2-0.3,0.1c-0.4,5.1-0.5,10.3-0.7,15.4c-0.1,2.3-1.1,6.2,2.4,6.1
				C512,235.6,511.1,230,511,227.8z"/>
			<path class="st3" d="M471.3,229.3c0.2-4.9,0.7-9.8,1.3-14.6c0-0.2,0.2-0.3,0.3-0.2c0.4,0.3,0.9,0.6,1.3,0.8
				c0.1,0,0.1,0.1,0.1,0.1c0.1-0.2,0.3-0.2,0.3,0.1c0.4,5.1,0.5,10.3,0.7,15.4c0.1,2.3,1.1,6.2-2.4,6.1
				C470.3,237.1,471.2,231.6,471.3,229.3z"/>
			<path class="st10" d="M508.7,229.9c-0.4-0.6-1.2-0.7-1.9-0.5c-1.8,0.4-3.5,1.6-5.1,2.3c-3.5,1.6-7.2,3.2-10.6,5v1.9
				c3.6-1.7,7.2-3.3,10.9-4.8c2-0.8,3.9-1.6,5.9-2.4C508.6,231.1,509.2,230.7,508.7,229.9z"/>
			<path class="st10" d="M488.7,236.5c-2.6-1.5-5.4-2.9-8.1-4.3c-1.5-0.8-3.2-2.1-4.9-2.6c-0.7-0.2-1.5-0.2-2,0.4
				c-0.5,0.7,0.1,1.2,0.8,1.5c1.9,0.9,3.8,1.8,5.7,2.7c2.8,1.4,5.6,2.8,8.4,4.3L488.7,236.5z"/>
			<path class="st3" d="M491.1,223.2l-2.3-1.6c-0.4,5.1-1,12.1-1.2,17.2c-0.1,2.3-1.1,6.2,2.4,6.1c2.7,0,1.8-5.5,1.7-7.8
				C491.6,232.5,491.8,227.8,491.1,223.2z"/>
			<g>
				<path class="st10" d="M510.5,212.8h-2l-12.5-6.2c-1.7-0.8-4.6-0.7-6.5,0.2l-14.6,7.1l-2.8,0.2v2c0,0.1,0,0.2,0,0.2v0.2l0,0
					c0.1,0.4,0.5,0.8,1.1,1.1l13.4,6.6c1.7,0.8,4.6,0.7,6.5-0.2l15.7-7.7c1.1-0.6,1.6-1.3,1.6-1.9l0,0
					C510.5,214.5,510.5,213,510.5,212.8z"/>
				<path class="st11" d="M486.6,222.2l-13.4-6.6c-1.7-0.8-1.5-2.3,0.5-3.2l15.7-7.7c1.9-0.9,4.9-1.1,6.5-0.2l13.4,6.6
					c1.7,0.8,1.5,2.3-0.5,3.2l-15.7,7.7C491.2,222.9,488.3,223,486.6,222.2z"/>
			</g>
			<g>
				<path class="st12" d="M481.8,216.3c3.1,1.4,6.6,3.8,10.3,2.7c3.2-0.9,6.3-2.8,9.2-4.3c2-1,3.9-2.1,5.3-3.6
					c-1-1.2-2.8-2.2-3.9-2.9c-3.1-1.9-11.2-5.3-12.2-5.2c-0.5,0-1,0.1-1.5,0.2c-2,0.4-4.1,1.4-5.8,2c-2.6,1-5,2.2-7.2,3.7
					c-0.7,0.5-1.6,1.1-2.1,1.7C474.1,213.6,479.3,215.1,481.8,216.3z"/>
				<path class="st13" d="M474,214.6c1.9,1.2,5.5,2.5,7.2,3.4c1.9,1,5.6,3.2,7.6,3.6c1.3,0.3,3.6-0.3,5.2-0.9c2.3-1,4.6-2.2,6.8-3.3
					c1.8-0.9,4.5-1.7,5.9-3.2c1-1.1,0.7-2.1,0-3c-1.5,1.4-3.4,2.5-5.3,3.6c-2.9,1.5-5.9,3.5-9.2,4.3c-3.7,1-7.2-1.3-10.3-2.7
					c-2.5-1.1-7.7-2.7-7.9-5.6c-0.1,0.1-0.1,0.2-0.2,0.2C473.3,211.8,473,214,474,214.6z"/>
			</g>
			<path class="st10" d="M511.8,183.9c1.2,0.5,0.8,2.2-0.2,5.8c-0.5,1.7-1,8.3-1.1,11.2s0.2,11.7,0,13.5s-1.9,1.9-2,0.4
				s-0.9-11.8-0.9-15s0.5-10.8,1.3-13.5C509.7,183.7,510.8,183.4,511.8,183.9z"/>
			<path class="st3" d="M510.1,188.3l-16.3,8l-0.7,10.8l15.7-7.7c0,0-0.1-3.6,0.3-6.3C509.5,190.9,510.1,188.3,510.1,188.3z"/>
			<polygon class="st11" points="508.8,187.6 510.1,188.3 493.8,196.3 492.5,195.6 			"/>
			<path class="st10" d="M494.9,192.1c1.2,0.5,0.8,2.2-0.2,5.8c-0.5,1.7-1,8.3-1.1,11.2s0.2,11.7,0,13.5s-1.9,1.9-2,0.4
				s-0.9-11.8-0.9-15s0.5-10.8,1.3-13.5C492.7,191.9,493.9,191.7,494.9,192.1z"/>
		</g>
		<g>
			<polygon class="st18" points="452.2,162.2 457.6,159.4 451.3,156.2 445.9,159 			"/>
			<polygon class="st27" points="452.2,165 452.2,162.2 457.6,159.4 457.6,162.2 			"/>
			<polygon class="st19" points="445.9,161.8 445.9,159 452.2,162.2 452.2,165 			"/>
			<path class="st18" d="M453.7,161.4l-1.6,0.8l-1.5-0.8c0,0,1,0.2,1.6,0.2C452.9,161.6,453.7,161.4,453.7,161.4z"/>
			<path class="st28" d="M453.7,161.4c0,0-0.6,0.1-1,0c-0.5-0.2-0.6-0.4-0.6-0.4s-0.2,0.3-0.5,0.4c-0.2,0.1-0.9,0.1-0.9,0.1
				s0.5,0.2,1.5,0.2C453.1,161.7,453.7,161.4,453.7,161.4z"/>
		</g>
		<g>
			<polygon class="st14" points="428.2,141.8 422.8,139.1 429,135.9 434.5,138.6 			"/>
			<polygon class="st12" points="428.2,144.6 428.2,141.8 422.8,139.1 422.8,141.9 			"/>
			<polygon class="st13" points="434.5,141.4 434.5,138.6 428.2,141.8 428.2,144.6 			"/>
			<path class="st29" d="M426.6,141l1.6,0.8l1.5-0.8c0,0-1,0.2-1.6,0.2S426.6,141,426.6,141z"/>
			<path class="st30" d="M426.6,141c0,0,0.6,0.1,1,0c0.5-0.2,0.6-0.4,0.6-0.4s0.2,0.3,0.5,0.4c0.2,0.1,0.9,0.1,0.9,0.1
				s-0.5,0.2-1.5,0.2C427.3,141.3,426.6,141,426.6,141z"/>
		</g>
		<g>
			<path class="st21" d="M423.8,160c0-0.6-0.4-1.1-0.9-1.4c-0.5-0.2-0.8-0.1-1.2,0.1l-1.1-1.6c0.6-0.5,1.5-0.6,2.5-0.1
				c1.4,0.7,2.5,2,2.5,3.8c0,1.9-2,1.4-1.8,3.3l-1.7-0.8C421.9,161,423.8,161.1,423.8,160z M421.8,165.3c0-0.8,0.5-1.2,1.2-0.8
				c0.7,0.3,1.2,1.2,1.2,2s-0.5,1.1-1.2,0.8C422.3,166.9,421.8,166,421.8,165.3z"/>
		</g>
		<g>
			<path class="st24" d="M468.7,160.5c0-0.2-0.2-0.5-0.3-0.6c-0.1,0-0.1,0-0.2,0l0,0l-1.1,0.5l0.5,0.8l1.1-0.5
				C468.6,160.7,468.7,160.6,468.7,160.5z"/>
			<path class="st6" d="M466.9,160.7c0,0.2,0.2,0.5,0.3,0.6c0.2,0.1,0.3,0,0.3-0.2s-0.2-0.5-0.3-0.6
				C467.1,160.3,466.9,160.4,466.9,160.7z"/>
			<polygon class="st6" points="459.5,164.1 467.1,160.4 467.5,161.2 460,164.9 			"/>
			<g>
				<path class="st24" d="M460,164.9c0.1,0,0.1-0.1,0.1-0.2c0-0.2-0.2-0.5-0.3-0.6c-0.1,0-0.2,0-0.2,0l0,0l0,0c0,0-0.7,0.5-1.3,0.9
					c0.1,0.1,0.2,0.2,0.2,0.3L460,164.9L460,164.9z"/>
				<path class="st6" d="M458.2,165c-0.5,0.3-0.9,0.6-0.9,0.6l1.1-0.3C458.4,165.2,458.4,165.1,458.2,165z"/>
			</g>
		</g>
		<g>
			<path class="st24" d="M432.4,176c0-0.2,0.2-0.5,0.3-0.6c0.1,0,0.1,0,0.2,0l0,0l1.1,0.5l-0.5,0.8l-1.1-0.5
				C432.5,176.2,432.4,176.1,432.4,176z"/>
			<path class="st6" d="M434.2,176.2c0,0.2-0.2,0.5-0.3,0.6c-0.2,0.1-0.3,0-0.3-0.2s0.2-0.5,0.3-0.6
				C434,175.8,434.2,175.9,434.2,176.2z"/>
			<polygon class="st6" points="441.6,179.6 434,175.9 433.6,176.7 441.1,180.4 			"/>
			<g>
				<path class="st24" d="M441.1,180.4c-0.1,0-0.1-0.1-0.1-0.2c0-0.2,0.2-0.5,0.3-0.6c0.1,0,0.2,0,0.2,0l0,0l0,0
					c0,0,0.7,0.5,1.3,0.9c-0.1,0.1-0.2,0.2-0.2,0.3L441.1,180.4L441.1,180.4z"/>
				<path class="st6" d="M442.9,180.5c0.5,0.3,0.9,0.6,0.9,0.6l-1.1-0.3C442.7,180.7,442.7,180.6,442.9,180.5z"/>
			</g>
		</g>
		<g>
			<path class="st24" d="M407.9,133.4c0-0.2,0.2-0.5,0.3-0.6c0.1,0,0.1,0,0.2,0l0,0l1.1,0.5l-0.5,0.8l-1.1-0.5
				C407.9,133.6,407.9,133.5,407.9,133.4z"/>
			<path class="st6" d="M409.6,133.6c0,0.2-0.2,0.5-0.3,0.6c-0.2,0.1-0.3,0-0.3-0.2c0-0.2,0.2-0.5,0.3-0.6
				C409.5,133.3,409.6,133.4,409.6,133.6z"/>
			<polygon class="st6" points="417,137.1 409.5,133.3 409.1,134.2 416.6,137.9 			"/>
			<g>
				<path class="st24" d="M416.6,137.9c-0.1,0-0.1-0.1-0.1-0.2c0-0.2,0.2-0.5,0.3-0.6c0.1,0,0.2,0,0.2,0l0,0l0,0
					c0,0,0.7,0.5,1.3,0.9c-0.1,0.1-0.2,0.2-0.2,0.3L416.6,137.9L416.6,137.9z"/>
				<path class="st6" d="M418.3,138c0.5,0.3,0.9,0.6,0.9,0.6l-1.1-0.3C418.1,138.2,418.1,138,418.3,138z"/>
			</g>
		</g>
	</g>
</g>
</svg>
