<?xml version="1.0" encoding="utf-8"?>
<!-- Generator: Adobe Illustrator 19.0.0, SVG Export Plug-In . SVG Version: 6.00 Build 0)  -->
<svg version="1.1" xmlns="http://www.w3.org/2000/svg" xmlns:xlink="http://www.w3.org/1999/xlink" x="0px" y="0px"
	 viewBox="0 0 500 500" style="enable-background:new 0 0 500 500;" xml:space="preserve">
<style type="text/css">
	.st0{fill:#FFFFFF;}
	.st1{opacity:0.2;}
	.st2{fill:#39ACCC;}
	.st3{opacity:0.1;}
	.st4{fill:#D5D1DE;}
	.st5{fill:#A6A3AD;}
	.st6{opacity:0.15;}
	.st7{fill:#747AC2;}
	.st8{fill:#8A91E6;}
	.st9{fill:#310047;}
	.st10{fill:#2A2E5E;}
	.st11{fill:#FE9B88;}
	.st12{fill:#FFA800;}
	.st13{fill:#373C7A;}
	.st14{fill:#363A68;}
	.st15{fill:#FE8D77;}
	.st16{fill:#0E3266;}
	.st17{fill:#CF8800;}
	.st18{fill:#082951;}
	.st19{fill:#EFF4DF;}
</style>
<g id="BACKGROUND">
	<rect class="st0" width="500" height="500"/>
</g>
<g id="OBJECTS">
	<g class="st1">
		<path class="st2" d="M75,323.3C28.6,288.2-2,236,21.5,177.4C57.9,86.7,169,41.4,263.6,36.9c40.5-1.9,52.7,12.8,70.6,44.8
			c21.3,37.7,81.3,33.1,114.9,58.6c25.3,19.3,37.2,53.6,37.5,84.1c0.8,74.1-62.7,126.9-131.8,144.3c-64.4,16.2-135.7,11.3-199.4-6
			C127.9,355.3,99.3,341.7,75,323.3z"/>
	</g>
	<g class="st3">
		<ellipse cx="250" cy="404.1" rx="184.3" ry="12.3"/>
	</g>
	<g>
		<g>
			<g>
				<g>
					<g>
						<path class="st4" d="M282.6,353.8h-55.7c5.3,4.6,8.7,11.3,8.7,18.9l0,0c0,13.7-11.1,24.8-24.8,24.8h-17.1c-1.7,0-3,1.3-3,3
							l0,0c0,1.7,1.3,3,3,3h88.9c13.7,0,24.8-11.1,24.8-24.8l0,0C307.5,364.9,296.3,353.8,282.6,353.8z"/>
					</g>
				</g>
				<g>
					<g>
						<path class="st5" d="M282.9,406.2h-90.6c-1.5,0-2.7-1.2-2.7-2.7c0-1.5,1.2-2.7,2.7-2.7h90.6c12.2,0,22.2-9.9,22.2-22.2
							c0-12.2-9.9-22.2-22.2-22.2c-1.5,0-2.7-1.2-2.7-2.7s1.2-2.7,2.7-2.7c15.2,0,27.5,12.4,27.5,27.5
							C310.4,393.8,298,406.2,282.9,406.2z"/>
					</g>
				</g>
			</g>
			<g class="st6">
				<path d="M235.4,369.7h73.5c-3.7-10.8-14-18.6-26-18.6c-1.5,0-2.7,1.2-2.7,2.7h-53.2C231.6,357.8,234.7,363.4,235.4,369.7z"/>
			</g>
		</g>
		<g>
			<g>
				<path class="st7" d="M108.7,359.7H400c6.8,0,12.4-5.5,12.4-12.4V156c0-6.8-5.5-12.4-12.4-12.4H108.7c-6.8,0-12.4,5.5-12.4,12.4
					v191.4C96.3,354.2,101.9,359.7,108.7,359.7z"/>
			</g>
			<g>
				<path class="st5" d="M96.3,317.5v29.9c0,6.8,5.5,12.4,12.4,12.4H400c6.8,0,12.4-5.5,12.4-12.4v-29.9H96.3z"/>
			</g>
			<g>
				<path class="st8" d="M100,359.7h291.3c6.8,0,12.4-5.5,12.4-12.4V156c0-6.8-5.5-12.4-12.4-12.4H100c-6.8,0-12.4,5.5-12.4,12.4
					v191.4C87.6,354.2,93.1,359.7,100,359.7z"/>
			</g>
			<g>
				<rect x="100.3" y="153.9" class="st0" width="290.9" height="163.8"/>
			</g>
			<g>
				<path class="st4" d="M87.6,317.5v29.9c0,6.8,5.5,12.4,12.4,12.4h291.3c6.8,0,12.4-5.5,12.4-12.4v-29.9H87.6z"/>
			</g>
			<g>
				<circle class="st5" cx="245.7" cy="337.6" r="7.8"/>
			</g>
		</g>
		<g>
			<g>
				<rect x="110.5" y="166.7" class="st9" width="280.8" height="145.9"/>
			</g>
			<g>
				<rect x="99.9" y="154" class="st10" width="291.4" height="19.6"/>
			</g>
			<g>
				<rect x="360.3" y="173.6" class="st2" width="31" height="72"/>
			</g>
			<g>
				<g>
					<path class="st8" d="M384.7,167.3c-0.2,0-0.3-0.1-0.4-0.2l-5.7-5.7c-0.2-0.2-0.2-0.7,0-0.9c0.2-0.2,0.6-0.2,0.9,0l5.7,5.7
						c0.2,0.2,0.2,0.7,0,0.9C385,167.2,384.8,167.3,384.7,167.3z"/>
				</g>
				<g>
					<path class="st8" d="M379,167.3c-0.2,0-0.3-0.1-0.4-0.2c-0.2-0.2-0.2-0.7,0-0.9l5.7-5.7c0.2-0.2,0.7-0.2,0.9,0
						c0.2,0.2,0.2,0.7,0,0.9l-5.7,5.7C379.3,167.2,379.2,167.3,379,167.3z"/>
				</g>
			</g>
			<g>
				<g>
					<g>
						<rect x="122.1" y="228.6" class="st10" width="35.3" height="4.7"/>
					</g>
					<g>
						<rect x="122.1" y="232.1" class="st2" width="35.3" height="18.7"/>
					</g>
				</g>
				<g>
					<g>
						<rect x="122.1" y="250.9" class="st10" width="35.3" height="4.7"/>
					</g>
					<g>
						<rect x="122.1" y="254.4" class="st2" width="35.3" height="18.7"/>
					</g>
				</g>
			</g>
			<g>
				<path class="st8" d="M372.7,167.3h-5.8c-0.4,0-0.6-0.3-0.6-0.6v-5.8c0-0.4,0.3-0.6,0.6-0.6h5.8c0.4,0,0.6,0.3,0.6,0.6v5.8
					C373.3,167,373,167.3,372.7,167.3z M367.6,166.1h4.5v-4.5h-4.5V166.1z"/>
			</g>
			<g>
				<rect x="99.9" y="307.7" class="st10" width="291.4" height="9.8"/>
			</g>
			<g>
				<rect x="99.9" y="173.6" class="st10" width="13.8" height="134.1"/>
			</g>
			<g>
				<g>
					<path class="st4" d="M106.9,199.1L106.9,199.1c-2.1,0-3.8-1.7-3.8-3.8v0c0-2,1.6-3.6,3.6-3.6h0c2.1,0,3.8,1.7,3.8,3.8v0
						C110.5,197.5,108.9,199.1,106.9,199.1z"/>
				</g>
				<g>
					<path class="st4" d="M106.9,212.6L106.9,212.6c-2.1,0-3.8-1.7-3.8-3.8v0c0-2,1.6-3.6,3.6-3.6h0c2.1,0,3.8,1.7,3.8,3.8v0
						C110.5,211,108.9,212.6,106.9,212.6z"/>
				</g>
				<g>
					<path class="st4" d="M106.9,226L106.9,226c-2.1,0-3.8-1.7-3.8-3.8v0c0-2,1.6-3.6,3.6-3.6h0c2.1,0,3.8,1.7,3.8,3.8v0
						C110.5,224.4,108.9,226,106.9,226z"/>
				</g>
				<g>
					<path class="st4" d="M106.9,239.5L106.9,239.5c-2.1,0-3.8-1.7-3.8-3.8v0c0-2,1.6-3.6,3.6-3.6h0c2.1,0,3.8,1.7,3.8,3.8v0
						C110.5,237.9,108.9,239.5,106.9,239.5z"/>
				</g>
				<g>
					<path class="st4" d="M106.9,252.9L106.9,252.9c-2.1,0-3.8-1.7-3.8-3.8v0c0-2,1.6-3.6,3.6-3.6h0c2.1,0,3.8,1.7,3.8,3.8v0
						C110.5,251.3,108.9,252.9,106.9,252.9z"/>
				</g>
			</g>
			<g>
				<rect x="360.3" y="185.6" class="st10" width="31" height="2.7"/>
			</g>
			<g>
				<rect x="360.3" y="200.2" class="st10" width="31" height="2.7"/>
			</g>
			<g>
				<rect x="360.3" y="214.9" class="st10" width="31" height="2.7"/>
			</g>
			<g>
				<rect x="360.3" y="229.6" class="st10" width="31" height="2.7"/>
			</g>
			<g>
				<rect x="172.8" y="186.8" class="st0" width="166.5" height="107.7"/>
			</g>
		</g>
	</g>
	<g>
		<g class="st3">
			<ellipse cx="224.3" cy="448.4" rx="45.4" ry="5.6"/>
		</g>
		<g>
			<path class="st11" d="M247.7,343c-1.6,0-3.3-0.3-4.8-0.9c-7.3-3-10.6-12.6-10-28.5c0.1-1.4,1.3-2.6,2.7-2.5
				c1.4,0.1,2.5,1.3,2.5,2.7c-0.5,13.1,1.9,21.5,6.8,23.5c4.7,2,12.6-1.8,19.5-9.3c1-1,2.6-1.1,3.7-0.1c1.1,1,1.1,2.6,0.1,3.7
				C262.7,337.5,254.9,343,247.7,343z"/>
		</g>
		<g>
			<g>
				<path class="st10" d="M269.4,338.9l-82.9-3.8c-2.4,0-4.3-1.9-4.3-4.3l0,0c0-2.4,1.9-4.3,4.3-4.3l82.9-3.8c2.4,0,4.3,5.7,4.3,8.1
					l0,0C273.7,333.2,271.8,338.9,269.4,338.9z"/>
			</g>
			<g>
				<path class="st12" d="M321.1,325.8c0,0-15.9,16.6-35.2,19.2c-11.2,1.5-18.4-5.9-18.4-13.8c0-7.9,7-14.7,18.4-14.7
					C301.8,316.4,321.1,325.8,321.1,325.8z"/>
			</g>
		</g>
		<g>
			<g>
				<g>
					<g>
						<rect x="227.8" y="426.8" class="st4" width="5.7" height="12.1"/>
					</g>
				</g>
				<g>
					<g>
						<g>
							<path class="st10" d="M246.6,445.9c0-1.5-0.6-6-3.9-6l-5.4-0.1l-1.1-3.9c-0.2-0.8-0.8-1.3-1.4-1.3l-0.9,0
								c-0.2,0-0.3,0.1-0.3,0.4c-0.1,2-0.3,3-1.4,3l-4.5-0.1c-1.8,0-1.7,1.1-1.7,2.4c0,0,0,4.5,0,5.6H246.6z"/>
						</g>
					</g>
					<g>
						<g>
							<path class="st13" d="M241,445.9h5.6c0-1.5-0.6-6-3.9-6l-1.7,0V445.9z"/>
						</g>
					</g>
					<g>
						<g>
							<polygon class="st13" points="246.7,447.3 226.1,447.3 226,445.8 246.6,445.8 							"/>
						</g>
					</g>
				</g>
			</g>
		</g>
		<g>
			<g>
				<g>
					<g>
						<path class="st14" d="M216.2,440.7h-6.6v-4.4c0-0.9,0.8-1.7,1.7-1.7h3.2c0.9,0,1.7,0.8,1.7,1.7V440.7z"/>
					</g>
				</g>
			</g>
			<g>
				<g>
					<g>
						<rect x="208.6" y="426.8" class="st4" width="5.7" height="12.1"/>
					</g>
				</g>
			</g>
			<g>
				<g>
					<path class="st10" d="M217.7,445.5h-10.6v-4.9c0-0.9,0.7-1.6,1.6-1.6h5.7c1.8,0,3.3,1.5,3.3,3.3V445.5z"/>
				</g>
			</g>
			<g>
				<g>
					<polygon class="st13" points="207.1,445.5 217.7,445.5 217.8,447.3 207.2,447.3 					"/>
				</g>
			</g>
		</g>
		<g>
			<polygon class="st10" points="235.1,432.9 226.6,432.9 225.4,354.9 236.3,354.9 			"/>
		</g>
		<g>
			<g>
				<path class="st10" d="M215.2,432.9c-3.1,0-4.9,0-8,0l-1.3-78.1c3.1,0,7.8,0,11,0L215.2,432.9z"/>
			</g>
		</g>
		<g>
			<path class="st10" d="M206.8,363.5c7,2.4,29.3-0.7,29.4-0.7l1-12.9c0,0-25.8-6.1-32-0.6C203.1,351.2,204,362.6,206.8,363.5z"/>
		</g>
		<g>
			<path class="st8" d="M237.2,349.9l-32-0.6l-1.3-40c0-6.8,5.5-12.4,12.4-12.4h11.1c6.8,0,11.4,4.5,11.4,11.4L237.2,349.9z"/>
		</g>
		<g>
			<path class="st11" d="M246.3,342.9c-0.1,0-0.2,0-0.3,0c-1.9-0.2-3.6-0.9-5.1-1.9c-1.7-1.2-3.2-2.8-4.3-4.9
				c-2.8-4.9-4-12.5-3.6-22.5c0.1-1.4,1.3-2.6,2.7-2.5c1.4,0.1,2.5,1.3,2.5,2.7c-0.4,9,0.6,15.7,2.9,19.8c0.8,1.4,1.7,2.4,2.7,3.1
				c0.9,0.6,1.8,0.9,2.9,1.1c1.4,0.2,2.4,1.5,2.2,2.9C248.7,342,247.6,342.9,246.3,342.9z"/>
		</g>
		<g>
			<path class="st8" d="M239.2,320.8c0,0-7,0.3-10.7,0c-1.3-3.5-1.3-7.5-0.4-11.1c0.9-3.6,2.9-6.9,5.7-9.4
				C234.7,299.5,240.7,314.9,239.2,320.8z"/>
		</g>
		<g>
			<g>
				<path class="st15" d="M231.4,285.5h-1.2v-5.7h1.6l1.2,3.3c0.4,1.1-0.3,2.3-1.4,2.4C231.5,285.4,231.4,285.5,231.4,285.5z"/>
			</g>
			<g>
				<path class="st11" d="M226.8,295.2c0,0-6.1,0-6.1,0v-21.1c0,0,11,0,11.1,0c0.2,0,0.3,14.5,0.3,14.5
					C232.1,293.5,229.9,295.2,226.8,295.2z"/>
			</g>
			<g>
				<path class="st9" d="M232,278.5h-0.5c-0.2,0-0.3-0.2-0.3-0.3l0,0c0-0.2,0.2-0.3,0.3-0.3h0.5c0.2,0,0.3,0.2,0.3,0.3l0,0
					C232.3,278.3,232.2,278.5,232,278.5z"/>
			</g>
			<g>
				<path class="st13" d="M229.4,264.6h-10.6c-0.2,0-0.5,0-0.7,0c-0.3,0-0.6,0-0.9,0l0,0c-6.1,0-11,4.9-11,11v26.1
					c0,6.1,4.9,11,11,11l0,0c6.1,0,11-4.9,11-11v-24.3c0-0.7,0.6-1.3,1.3-1.3l0,0c3.5,0,6.2-3,5.7-6.6
					C234.9,266.6,232.3,264.6,229.4,264.6z"/>
			</g>
		</g>
	</g>
	<g>
		<g class="st3">
			<ellipse cx="80.5" cy="428.2" rx="45.4" ry="5.7"/>
		</g>
		<g>
			<path class="st11" d="M118.5,330.2c-0.4,0-0.8-0.1-1.1-0.3c-23-11.2-48.6-31.9-50-44.7c-0.2-1.4,0.9-2.7,2.3-2.9
				c1.4-0.2,2.7,0.9,2.9,2.3c1,9.6,23.9,29.3,47.1,40.6c1.3,0.6,1.8,2.2,1.2,3.5C120.4,329.7,119.5,330.2,118.5,330.2z"/>
		</g>
		<g>
			<g>
				<polygon class="st4" points="112.4,337.5 94,328.5 121.7,272.3 139.3,279.1 140.1,281.3 				"/>
			</g>
			<g>
				
					<rect x="106" y="271.4" transform="matrix(0.8968 0.4424 -0.4424 0.8968 145.9196 -20.1793)" class="st0" width="20.5" height="62.7"/>
			</g>
			<g>
				<circle class="st12" cx="124.6" cy="285.8" r="7.3"/>
			</g>
			<g>
				<circle class="st10" cx="116.2" cy="302.7" r="7.3"/>
			</g>
			<g>
				<circle class="st2" cx="107.9" cy="319.6" r="7.3"/>
			</g>
		</g>
		<g>
			<g>
				<g>
					<g>
						<rect x="86.4" y="408.4" class="st4" width="5.7" height="12.1"/>
					</g>
				</g>
				<g>
					<g>
						<g>
							<path class="st10" d="M105.2,427.4c0-1.5-0.6-6-3.9-6l-5.4-0.1l-1.1-3.9c-0.2-0.8-0.8-1.3-1.4-1.3l-0.9,0
								c-0.2,0-0.3,0.1-0.3,0.4c-0.1,2-0.3,3-1.4,3l-4.5-0.1c-1.8,0-1.7,1.1-1.7,2.4c0,0,0,4.5,0,5.6H105.2z"/>
						</g>
					</g>
					<g>
						<g>
							<path class="st13" d="M99.6,427.4h5.6c0-1.5-0.6-6-3.9-6l-1.7,0V427.4z"/>
						</g>
					</g>
					<g>
						<g>
							<polygon class="st13" points="105.3,428.8 84.7,428.8 84.6,427.4 105.2,427.4 							"/>
						</g>
					</g>
				</g>
			</g>
		</g>
		<g>
			<g>
				<g>
					<g>
						<path class="st14" d="M72.8,422.2h-6.6v-4.4c0-0.9,0.8-1.7,1.7-1.7h3.2c0.9,0,1.7,0.8,1.7,1.7V422.2z"/>
					</g>
				</g>
			</g>
			<g>
				<g>
					<g>
						<rect x="65.2" y="408.4" class="st4" width="5.7" height="12.1"/>
					</g>
				</g>
			</g>
			<g>
				<g>
					<path class="st10" d="M74.4,427H63.8v-4.9c0-0.9,0.7-1.6,1.6-1.6h5.7c1.8,0,3.3,1.5,3.3,3.3V427z"/>
				</g>
			</g>
			<g>
				<g>
					<polygon class="st13" points="63.8,427 74.4,427 74.5,428.8 63.9,428.8 					"/>
				</g>
			</g>
		</g>
		<g>
			<rect x="84" y="336.4" class="st10" width="11" height="78.1"/>
		</g>
		<g>
			<g>
				<path class="st10" d="M73.1,414.4c-3.1,0-7.4,0-10.5,0c0-41.1,0-37,0-78.1c3.1,0,7.8,0,11,0L73.1,414.4z"/>
			</g>
		</g>
		<g>
			<g>
				<path class="st15" d="M90,267h-1.2v-5.7h1.6l1.2,3.3c0.4,1.1-0.3,2.3-1.4,2.4C90.1,267,90,267,90,267z"/>
			</g>
			<g>
				<path class="st11" d="M85.4,276.7c0,0-6.1,0-6.1,0v-21.1c0,0,11,0,11.1,0c0.2,0-0.3,14.1-0.4,15.4
					C89.6,273.5,88.5,276.7,85.4,276.7z"/>
			</g>
			<g>
				<polygon class="st11" points="79.7,285.1 75.1,285.1 75.1,266.3 84.8,266.3 84.8,277.9 				"/>
			</g>
			<g>
				<polygon class="st11" points="78.8,276.8 75.2,275.8 74,274 70,267 78.8,267 				"/>
			</g>
			<g>
				<path class="st13" d="M83.1,273.9L74,274l-8.5-13c-2-4.3,1.2-9.2,5.9-9.2h7.5c2.4,0,4.3,1.9,4.3,4.3V273.9z"/>
			</g>
			<g>
				<path class="st13" d="M88.2,257.6H71.8v-5.9c0-3.1,2.5-5.6,5.6-5.6h10.8c3.2,0,5.8,2.6,5.8,5.8l0,0
					C93.9,255,91.4,257.6,88.2,257.6z"/>
			</g>
			<g>
				<path class="st11" d="M82.9,267L82.9,267c-1.1,0-1.9-0.9-1.9-1.9v-2c0-1.1,0.9-1.9,1.9-1.9l0,0c1.1,0,1.9,0.9,1.9,1.9v2
					C84.8,266.1,83.9,267,82.9,267z"/>
			</g>
			<g>
				<path class="st13" d="M82.4,264.5h-1.6v-9.7h6.1v5.3C86.8,262.5,84.9,264.5,82.4,264.5z"/>
			</g>
			<g>
				<path class="st13" d="M86.9,266.4v-8.6l-2.1,4.5v15.7h2.1c2.3,0,4.1-1.9,4.1-4.1v-3.3c0-0.8-0.6-1.4-1.4-1.4l0,0
					C88.1,269.1,86.9,267.9,86.9,266.4z"/>
			</g>
		</g>
		<g>
			<path class="st10" d="M62.6,342h31.3c2.5,0,4.6-2.8,4.6-6.3l-35.9-14.7V342z"/>
		</g>
		<g>
			<path class="st12" d="M98.4,336.7H62.6v-45.9c0-6.8,5.5-12.4,12.4-12.4H86c6.8,0,12.4,5.5,12.4,12.4V336.7z"/>
		</g>
		<g>
			<path class="st11" d="M114.9,311.6c-7.9,0-15.9-8-24.4-24.3c-0.7-1.3-0.2-2.8,1.1-3.5c1.3-0.7,2.8-0.2,3.5,1.1
				c7.5,14.4,14.7,22,20.4,21.4c5-0.5,9.9-7.3,13.1-18.1c0.4-1.4,1.9-2.2,3.2-1.7c1.4,0.4,2.2,1.9,1.7,3.2
				c-2.3,7.7-7.7,20.9-17.6,21.8C115.7,311.6,115.3,311.6,114.9,311.6z"/>
		</g>
		<g>
			<path class="st12" d="M95.1,282.3c4.4,5.6,5.7,8.6,8,14.3c-0.6,3.6-2.8,7.3-6,9.2c-3.1-2.1-5.5-5.4-6.8-8.8
				c-1.4-3.5-1.7-7.3-0.8-11c0.2-1.1,0.6-2.1,1.2-3C91.2,282.1,94,282.5,95.1,282.3z"/>
		</g>
		<g>
			<path class="st11" d="M118.6,330.2c-0.8,0-1.7-0.4-2.2-1.1l-1.5-2.2c-0.8-1.2-0.5-2.8,0.7-3.6c1.2-0.8,2.8-0.5,3.6,0.7l1.5,2.2
				c0.8,1.2,0.5,2.8-0.7,3.6C119.6,330.1,119.1,330.2,118.6,330.2z"/>
		</g>
	</g>
	<g>
		<g class="st3">
			<ellipse cx="417.7" cy="428.8" rx="45.4" ry="5.6"/>
		</g>
		<g>
			<path class="st15" d="M417,281.8c-17.3-2-35.4-7.5-50.1-34.5l4.6-2.5c12.8,23.5,27.7,29.7,46.1,31.8L417,281.8z"/>
		</g>
		<g>
			<g>
				<path class="st12" d="M351.1,272.1l0.2-11.7c-0.1-0.4-0.2-0.6-0.5-0.7l-27.6-8.4c-0.2-0.1-0.5,0-0.8,0.3l-6.4,9.8
					c-0.5,0.7-1.2,1-2.1,0.7l-18.5-5.7c-0.5-0.1-0.8-0.4-1-0.8c-0.2-0.4-0.1-0.8,0.3-1.3l50.9-73.8c0.5-0.7,1.1-1,1.9-0.7l22.8,7
					c0.8,0.2,1.2,0.8,1.2,1.7l1,89.7c0,0.2,0,0.4-0.1,0.6c-0.2,0.7-0.8,1-1.7,0.7l-18.5-5.7C351.5,273.5,351.1,273,351.1,272.1z
					 M332.7,237.2l18,5.5c0.5,0.1,0.7,0,0.7-0.6l0.3-33.9c0-0.3-0.1-0.5-0.2-0.5c-0.2,0-0.3,0.1-0.5,0.3l-18.6,28.3
					C332.2,236.8,332.3,237.1,332.7,237.2z"/>
			</g>
		</g>
		<g>
			<g>
				<g>
					<polygon class="st4" points="444.8,407.9 449,404.2 439.2,394.7 435.8,399.7 					"/>
				</g>
			</g>
			<g>
				<g>
					<path class="st10" d="M439,420.2c-1.1-1.1-3.8-4.7-1.6-7l3.8-3.9l-1.9-3.5c-0.4-0.7-0.4-1.4,0-1.9l0.6-0.6
						c0.1-0.2,0.3-0.1,0.5,0c1.5,1.3,2.4,1.9,3.1,1.1l3.1-3.2c1.3-1.3,1.9-0.5,2.9,0.5c0,0,3.3,3.2,4,3.9L439,420.2z"/>
				</g>
			</g>
			<g>
				<g>
					<path class="st13" d="M442.9,416.2l-4,4c-1.1-1.1-3.8-4.7-1.6-7l1.2-1.3L442.9,416.2z"/>
				</g>
			</g>
			<g>
				<g>
					
						<rect x="436.4" y="412.6" transform="matrix(-0.7035 0.7107 -0.7107 -0.7035 1054.7743 386.7043)" class="st13" width="20.6" height="1.6"/>
				</g>
			</g>
		</g>
		<g>
			<g>
				<g>
					<g>
						<rect x="405.5" y="408.3" class="st4" width="5.7" height="12.1"/>
					</g>
				</g>
				<g>
					<g>
						<g>
							<path class="st13" d="M392.3,427.3c0-1.5,0.6-6,3.9-6l5.4-0.1l1.1-3.9c0.2-0.8,0.8-1.3,1.4-1.3l0.9,0c0.2,0,0.3,0.1,0.3,0.4
								c0.1,2,0.3,3,1.4,3l4.5-0.1c1.8,0,1.7,1.1,1.7,2.4c0,0,0,4.5,0,5.6H392.3z"/>
						</g>
					</g>
					<g>
						<g>
							<path class="st10" d="M398,427.3h-5.6c0-1.5,0.6-6,3.9-6l1.7,0V427.3z"/>
						</g>
					</g>
					<g>
						<g>
							<rect x="392.3" y="427.3" class="st10" width="20.6" height="1.6"/>
						</g>
					</g>
				</g>
			</g>
		</g>
		<g>
			<rect x="403.3" y="334.8" class="st13" width="11" height="78.1"/>
		</g>
		<g>
			<g>
				<g>
					<path class="st10" d="M435.1,402.6c2.7-2.6,5.3-5.1,8-7.7c-22-22.4-29.7-28.6-36.5-61c-4.8-0.6-9.5-1.3-14.3-1.9
						C404,369.4,407.4,375.3,435.1,402.6z"/>
				</g>
			</g>
		</g>
		<g>
			<path class="st10" d="M423.2,327.8c0,5.4-4.1,8.3-9.2,8.3h-20.2c-2.4,0-4.3-2.8-4.3-6.3l0.1-2l33.7-12.7V327.8z"/>
		</g>
		<g>
			
				<rect x="316.1" y="167" transform="matrix(0.9541 0.2996 -0.2996 0.9541 66.0698 -88.1413)" class="st8" width="8.8" height="8.8"/>
		</g>
		<g>
			
				<rect x="395.6" y="192" transform="matrix(0.9541 0.2996 -0.2996 0.9541 77.2053 -110.8223)" class="st8" width="8.8" height="8.8"/>
		</g>
		<g>
			
				<rect x="368.2" y="276.2" transform="matrix(0.9541 0.2996 -0.2996 0.9541 101.1891 -98.7494)" class="st8" width="8.8" height="8.8"/>
		</g>
		<g>
			<polygon class="st8" points="297,261.5 288.3,258.8 291.5,249.1 300.2,251.8 			"/>
		</g>
		<g>
			<path class="st8" d="M372.7,281.3l-79.4-25.2l27.1-85.4l79.4,25.2L372.7,281.3z M294.1,255.7l78.2,24.8l26.7-84.2l-78.2-24.8
				L294.1,255.7z"/>
		</g>
		<g>
			<g>
				<path class="st15" d="M399,259l1.2,0.2l1.1-5.6l-1.6-0.3l-1.8,3c-0.6,1-0.1,2.3,1,2.6C398.9,259,399,259,399,259z"/>
			</g>
			<g>
				<path class="st11" d="M401.4,269.5c0,0,6,1.2,6,1.2l4-20.8c0,0-10.8-2.1-10.9-2.1c-0.2,0-2.4,13.9-2.5,15.2
					C397.8,265.5,398.3,268.9,401.4,269.5z"/>
			</g>
			<g>
				<polygon class="st11" points="399.7,279.1 409.8,279.6 413.4,261.2 403.9,259.3 401.7,270.8 				"/>
			</g>
			<g>
				<polygon class="st11" points="407.8,270.8 411.5,270.6 417.2,262 409.7,261.1 				"/>
			</g>
			<g>
				<path class="st10" d="M409.3,268.1L409.3,268.1c2.2,0.5,4.5-0.5,5.7-2.4l5.5-8.8c2.7-3.8,0.6-9.2-4-10.1l-3.9-0.6
					c-2.3-0.4-4.5,1.1-5,3.4l-2.4,12.2C404.6,264.7,406.4,267.5,409.3,268.1z"/>
			</g>
			<g>
				<path class="st10" d="M402.3,250.1l16.1,3.1l1.1-5.8c0.6-3-1.4-6-4.4-6.6l-10.6-2.1c-3.1-0.6-6.1,1.4-6.7,4.5l0,0
					C397.1,246.5,399.1,249.5,402.3,250.1z"/>
			</g>
			<g>
				<path class="st10" d="M406.6,257.2l1.6,1.2l1.9-9.6l-6-1.2l-1,5.2C402.6,255.3,402.9,256.8,406.6,257.2z"/>
			</g>
			<g>
				<path class="st10" d="M399.4,252.1l0.5,0.1c0.2,0,0.4-0.1,0.4-0.3l0,0c0-0.2-0.1-0.4-0.3-0.4l-0.5-0.1c-0.2,0-0.4,0.1-0.4,0.3
					l0,0C399.1,251.8,399.2,252,399.4,252.1z"/>
			</g>
			<g>
				<path class="st11" d="M405.4,260.3L405.4,260.3c1,0.2,2.1-0.5,2.3-1.5l0.4-2c0.2-1-0.5-2.1-1.5-2.3l0,0c-1-0.2-2.1,0.5-2.3,1.5
					l-0.4,2C403.6,259.1,404.3,260.1,405.4,260.3z"/>
			</g>
		</g>
		<g>
			<path class="st2" d="M389.5,327.8h33.7v-43.2c0-6.6-5.4-12-12-12h-9.7c-6.6,0-12,5.4-12,12V327.8z"/>
		</g>
		<g>
			<path class="st11" d="M396.3,284.2c-0.1,0-0.3,0-0.4,0c-19.7-3.4-36.1-23.9-38.1-47.5c-0.1-1.4,0.9-2.7,2.4-2.8
				c1.4-0.1,2.7,0.9,2.8,2.4c1.7,21,16.6,39.8,33.8,42.8c1.4,0.2,2.4,1.6,2.1,3C398.6,283.3,397.5,284.2,396.3,284.2z"/>
		</g>
		<g>
			<path class="st2" d="M400.2,277.3l-17.5-7.8c0,0-4.7,3.1-5.8,7c1.9,3.2,11.2,10.6,14.6,12.1c3.4,1.5,1.2-2.9,4.8-3.6
				c1.1-0.2,2.1-0.5,3-1.1C400.3,283.3,400,278.3,400.2,277.3z"/>
		</g>
	</g>
	<g>
		<g>
			<path class="st16" d="M268.4,97.3L268.4,97.3c-8.8-0.7-15.5-8.4-14.8-17.2l1.7-22.9c0.7-8.8,8.4-15.5,17.2-14.8h0
				c8.8,0.7,15.5,8.4,14.8,17.2l-1.7,22.9C284.9,91.3,277.2,98,268.4,97.3z"/>
		</g>
		<g>
			<path class="st15" d="M252.8,108.5c-9.7,0-19.6-8.6-23.1-17.2l4.8-2c2.9,7.2,11.8,14.7,19.4,14c6.8-0.7,9.5-8,10.7-14l5.1,1
				c-2.8,14.8-10.8,17.8-15.3,18.2C253.9,108.5,253.4,108.5,252.8,108.5z"/>
		</g>
		<g>
			<path class="st17" d="M274.7,91.8c-0.3,5.2-1.8,7.8-4.9,12.1c-5.9-0.5-7.9-2-9.6-5.5c1-3.3,1.7-6.8,2.1-10.2
				C267.1,88.3,270.2,90,274.7,91.8z"/>
		</g>
		<g>
			<g>
				<g>
					<g>
						
							<rect x="216" y="175.8" transform="matrix(-0.9413 -0.3377 0.3377 -0.9413 363.5804 427.311)" class="st4" width="5.8" height="12.6"/>
					</g>
				</g>
				<g>
					<g>
						<g>
							<path class="st13" d="M203.8,191.2c0.2-0.4-0.5-7.2,2.6-6.1l3.6,1.2l2.5-3.4c0.5-0.7,1.2-1,1.8-0.8l0.9,0.3
								c0.2,0.1,0.2,0.2,0.2,0.5c-0.6,2-0.7,3,0.3,3.4l4.4,1.5c1.8,0.6,1.3,1.6,0.8,2.9c0,0-1.5,4.4-1.9,5.5L203.8,191.2z"/>
						</g>
					</g>
					<g>
						<path class="st10" d="M218.9,196.2l-14.6-5.2l2.1-5.8l-1.7-0.6c-3.1-1.1-5.2,2.9-5.9,4.4l0,0l-0.6,1.5l20.1,7.2L218.9,196.2z"
							/>
					</g>
				</g>
			</g>
		</g>
		<g>
			<path class="st13" d="M282.1,146.1c3.1-0.1,21.6-18.1,21.6-18.1s-20.3,1.1-20.3,1.1c-55.3,0.9-50.3-2.8-69.9,50l11,3.9
				C242.5,135.7,235.9,144.7,282.1,146.1z"/>
		</g>
		<g>
			<g>
				<g>
					<g>
						
							<rect x="265.2" y="199.6" transform="matrix(-0.9861 0.166 -0.166 -0.9861 566.7972 364.4377)" class="st4" width="5.8" height="12.6"/>
					</g>
				</g>
				<g>
					<g>
						<g>
							<path class="st13" d="M259.5,221.3c0-0.4-4-6-0.7-6.6l3.7-0.7l0.5-4.1c0.1-0.8,0.6-1.4,1.2-1.6l0.9-0.2
								c0.2,0,0.3,0.1,0.4,0.3c0.5,2,0.8,3,1.9,2.8l4.5-0.8c1.8-0.3,1.9,0.8,2.2,2.1c0,0,0.8,4.6,1,5.7L259.5,221.3z"/>
						</g>
					</g>
					<g>
						<path class="st10" d="M275.1,218.3l-15.3,2.6l-1-6.1l-1.8,0.3c-3.3,0.6-3.2,5.1-2.9,6.7l0,0l0.3,1.6l21-3.5L275.1,218.3z"/>
					</g>
				</g>
			</g>
		</g>
		<g>
			<polygon class="st13" points="271.8,143.7 302.7,143.7 303.7,128 272.2,132.8 			"/>
		</g>
		<g>
			<path class="st13" d="M305.6,143.7c2.8-1.3,0.6-10.4-1.9-15.7c-0.6-1.2-6.9-0.3-7-0.4c-47.8,27.8-43.5,22.7-34.8,78.4l11.5-2
				C266,154,264.6,165.1,305.6,143.7z"/>
		</g>
		<g>
			<path class="st12" d="M303.7,128c0,0-19.9,7-31.9,1.2l-9.5-36.5c-1.4-6.9,3-13.7,9.9-15.1l11.2-2.3c6.9-1.4,13.7,3,15.1,9.9
				L303.7,128z"/>
		</g>
		<g>
			<g>
				<path class="st15" d="M275,64.1l4.6-1l3,14.1c0.6,2.7-1.2,5.3-3.9,5.9l0,0c-2.7,0.6-5.3-1.2-5.9-3.9l-1.4-6.9L275,64.1z"/>
			</g>
			<g>
				<g>
					<path class="st15" d="M260.4,60.3l1.5,6.1c-1.3,0-2.7-0.8-2.9-2l-0.3-1.2C258.5,62,259.2,60.8,260.4,60.3z"/>
				</g>
				<g>
					<path class="st11" d="M262.3,68.9l-2.2-9.1c-0.9-4.5-0.3-7.5,3.7-8.2l12.6-2.7l3.4,14.9C282.1,75.3,264.9,79.3,262.3,68.9z"/>
				</g>
				<g>
					<g>
						<g>
							<g>
								<g>
									<g>
										<g>
											<g>
												<circle class="st18" cx="264" cy="62.8" r="0.9"/>
											</g>
										</g>
									</g>
								</g>
							</g>
						</g>
						<g>
							<g>
								<g>
									<g>
										<g>
											<circle class="st18" cx="271" cy="61.3" r="0.9"/>
										</g>
									</g>
								</g>
							</g>
						</g>
					</g>
				</g>
				<g>
					<path class="st19" d="M273.2,64.2c0.1,2.6-1.9,5.1-4.3,5.6c-2.4,0.5-4.5-1.1-5.5-3.5L273.2,64.2z"/>
				</g>
				<g>
					<path class="st15" d="M267.2,65.1c-0.3,0-0.6-0.1-0.8-0.3c-0.4-0.4-0.3-1.2-0.1-2.5c0.1-0.3,0.1-0.7,0.2-1
						c0-0.2,0.2-0.3,0.4-0.3c0.2,0,0.3,0.2,0.3,0.4c-0.1,0.4-0.1,0.7-0.2,1c-0.2,0.9-0.3,1.8-0.1,2c0.1,0.1,0.3,0.1,0.9,0
						c0.2,0,0.3,0.1,0.4,0.2c0,0.2-0.1,0.3-0.2,0.4C267.7,65,267.4,65.1,267.2,65.1z"/>
				</g>
				<g>
					<path class="st11" d="M278.9,56.3l-1,0.2l1.3,6.3l1-0.2c1.4-0.3,2.3-1.7,2-3.1l-0.3-1.2C281.7,56.9,280.3,56,278.9,56.3z"/>
				</g>
				<g>
					<path class="st16" d="M277,54.5l-9,1.6c-1.8,0.3-3.4-0.9-3.7-2.7l0,0c-0.3-1.8-1.2-5.4,0.6-5.7l7.4,1.1
						c1.8-0.3,3.4,0.9,3.7,2.7v0C276.3,53.2,278.7,54.2,277,54.5z"/>
				</g>
				<g>
					<path class="st16" d="M269.6,58.9c-0.2,0-0.3-0.1-0.3-0.3c0-0.2,0.1-0.3,0.3-0.4l1.7-0.3c0.2,0,0.3,0.1,0.4,0.3
						c0,0.2-0.1,0.3-0.3,0.4L269.6,58.9C269.7,58.9,269.6,58.9,269.6,58.9z"/>
				</g>
				<g>
					<path class="st16" d="M262.3,60.3c-0.2,0-0.3-0.1-0.3-0.3c0-0.2,0.1-0.3,0.3-0.4l1.7-0.3c0.2,0,0.3,0.1,0.4,0.3
						c0,0.2-0.1,0.3-0.3,0.4L262.3,60.3C262.3,60.3,262.3,60.3,262.3,60.3z"/>
				</g>
				<g>
					<path class="st16" d="M273.9,48.7l2,9.5c0.4,1.9,2.3,3.2,4.2,2.8l0,0c1.9-0.4,4-0.4,3.6-2.3l-2.1-7.9c-0.4-1.9-2.3-3.2-4.2-2.8
						L273.9,48.7z"/>
				</g>
			</g>
		</g>
		<g>
			<path class="st15" d="M279,86.9L279,86.9c5.6-1.2,9.2-6.4,8.6-11.9c-1.4-0.2-2.8-0.1-4.2,0.2l-11.2,2.3c-2.1,0.4-4,1.4-5.5,2.6
				C268.5,85.1,273.7,88.1,279,86.9z"/>
		</g>
		<g>
			<g>
				
					<rect x="198.1" y="87.8" transform="matrix(0.9734 -0.2291 0.2291 0.9734 -19.8662 54.6804)" class="st17" width="54.9" height="50.3"/>
			</g>
			<g>
				
					<rect x="202.7" y="92" transform="matrix(0.9734 -0.2291 0.2291 0.9734 -19.8662 54.6801)" class="st12" width="45.8" height="41.9"/>
			</g>
			<g>
				<path class="st0" d="M234.8,124.1l-2-3.5c-0.1-0.1-0.2-0.1-0.3-0.1l-9.7,2.3c-0.1,0-0.1,0.1-0.2,0.2l-0.2,4
					c0,0.3-0.2,0.5-0.5,0.6l-6.5,1.5c-0.2,0-0.3,0-0.4-0.1c-0.1-0.1-0.2-0.2-0.1-0.4l2.3-30.8c0-0.3,0.2-0.5,0.5-0.6l8-1.9
					c0.3-0.1,0.5,0,0.7,0.3l15.9,26.5c0,0,0.1,0.1,0.1,0.2c0.1,0.3-0.1,0.4-0.4,0.5l-6.5,1.5C235.2,124.5,235,124.4,234.8,124.1z
					 M223.3,116.9l6.3-1.5c0.2,0,0.2-0.1,0.1-0.3l-5.8-10.1c-0.1-0.1-0.1-0.1-0.2-0.1c-0.1,0-0.1,0.1-0.1,0.2l-0.6,11.6
					C223.1,116.9,223.2,117,223.3,116.9z"/>
			</g>
		</g>
		<g>
			<path class="st11" d="M251.6,127.9c-2,0-4-0.1-6.1-0.2c-1.5-0.1-2.6-1.4-2.5-2.8c0.1-1.5,1.4-2.6,2.8-2.5
				c16.1,1.1,27.8-2.2,34.8-9.7c8.5-9,7.9-21.7,7.2-26.8c-0.2-1.5,0.8-2.8,2.3-3c1.5-0.2,2.8,0.8,3,2.3c0.8,5.8,1.4,20.5-8.6,31.1
				C277.4,124,266.3,127.9,251.6,127.9z"/>
		</g>
		<g>
			<path class="st11" d="M225.8,92.5c-0.9,0-1.8-0.5-2.3-1.3l-1.3-2.2c-0.7-1.3-0.3-2.9,1-3.7c1.3-0.7,2.9-0.3,3.7,1l1.3,2.2
				c0.7,1.3,0.3,2.9-1,3.7C226.7,92.4,226.2,92.5,225.8,92.5z"/>
		</g>
		<g>
			<path class="st12" d="M289,77c-0.1,0.2-4.1,20.8-4.1,20.8c1.9,3.1,6.8,4,10.1,2.8c3.3-1.2,1.1-18.1,1.2-19.6L289,77z"/>
		</g>
	</g>
</g>
<g id="DESIGNED_BY_FREEPIK">
</g>
</svg>
